<svg width="85" height="84" viewBox="0 0 85 84" fill="none" xmlns="http://www.w3.org/2000/svg">
<rect x="0.5" width="84" height="84" rx="42" fill="#E3F8EA"/>
<path d="M37.1941 50.5336V30.8396C37.1941 28.1756 35.0361 26.0176 32.3721 26.0176V26.0176C30.1741 26.0176 28.2561 27.5036 27.7041 29.6296L22.7241 48.8496" stroke="#19C152" stroke-width="3" stroke-linecap="round" stroke-linejoin="round"/>
<path d="M35.0438 45.4559C37.9134 48.3255 37.9134 52.978 35.0438 55.8475C32.1742 58.7171 27.5218 58.7171 24.6522 55.8475C21.7826 52.978 21.7826 48.3255 24.6522 45.4559C27.5218 42.5863 32.1742 42.5863 35.0438 45.4559" stroke="#19C152" stroke-width="3"/>
<path d="M47.8059 50.5336V30.8396C47.8059 28.1756 49.9639 26.0176 52.6279 26.0176V26.0176C54.8259 26.0176 56.7439 27.5036 57.2959 29.6296L62.2759 48.8496" stroke="#19C152" stroke-width="3" stroke-linecap="round" stroke-linejoin="round"/>
<path d="M47.8058 37.9996C47.8058 35.0636 45.4298 32.6836 42.4998 32.6836C39.5698 32.6836 37.1938 35.0636 37.1938 37.9996" stroke="#19C152" stroke-width="3" stroke-linecap="round" stroke-linejoin="round"/>
<path d="M37.1938 49.9996C37.1938 47.0636 39.5698 44.6836 42.4998 44.6836C45.4298 44.6836 47.8058 47.0636 47.8058 49.9996" stroke="#19C152" stroke-width="3" stroke-linecap="round" stroke-linejoin="round"/>
<path d="M60.3478 45.4559C63.2174 48.3255 63.2174 52.978 60.3478 55.8475C57.4782 58.7171 52.8257 58.7171 49.9561 55.8475C47.0866 52.978 47.0866 48.3255 49.9561 45.4559C52.8257 42.5863 57.4782 42.5863 60.3478 45.4559" stroke="#19C152" stroke-width="3"/>
</svg>
