<svg width="63" height="73" viewBox="0 0 63 73" fill="none" xmlns="http://www.w3.org/2000/svg">
<path d="M3.28752 11.6331C2.54538 10.3477 2.9858 8.70404 4.27121 7.96191L16.6842 0.795246C17.9697 0.0531118 19.6133 0.493527 20.3554 1.77894C21.0976 3.06435 20.6572 4.708 19.3717 5.45013L6.95871 12.6168C5.6733 13.3589 4.02965 12.9185 3.28752 11.6331Z" fill="#ADE9C2"/>
<path d="M32.0635 36.3913C33.413 36.5535 34.6724 37.3267 35.4053 38.5961L35.4119 38.6076C36.6362 40.7458 35.9128 43.4834 33.7663 44.7227C31.6244 45.9594 28.8892 45.2265 27.6525 43.0845C26.919 41.814 26.8794 40.3361 27.4122 39.0849L22.0357 29.7726C21.2936 28.4872 21.734 26.8435 23.0194 26.1014C24.3048 25.3593 25.9485 25.7997 26.6906 27.0851L32.0635 36.3913Z" fill="#ADE9C2"/>
<path fill-rule="evenodd" clip-rule="evenodd" d="M37.0197 9.96949C21.1564 7.13042 5.49055 16.8756 1.2433 32.7266C-3.23827 49.452 6.68913 66.6468 23.4146 71.1284C40.14 75.6099 57.3348 65.6825 61.8163 48.9571C66.0636 33.1061 57.3692 16.8336 42.2116 11.3606L43.9229 4.97396L46.2219 5.58998C47.6556 5.97414 49.1292 5.12332 49.5134 3.68963C49.8975 2.25594 49.0467 0.782284 47.613 0.398126L37.8232 -2.22506C36.3895 -2.60921 34.9158 -1.7584 34.5317 -0.324705C34.1475 1.10898 34.9983 2.58264 36.432 2.9668L38.731 3.58281L37.0197 9.96949ZM38.2539 15.7472C24.3958 12.0339 10.1484 20.2597 6.43515 34.1178C2.72189 47.9758 10.9477 62.2233 24.8057 65.9365C38.6638 69.6498 52.9112 61.424 56.6245 47.566C60.3377 33.7079 52.112 19.4605 38.2539 15.7472Z" fill="#ADE9C2"/>
</svg>
