<svg width="22" height="20" viewBox="0 0 22 20" fill="none" xmlns="http://www.w3.org/2000/svg">
<path d="M18.0878 18.4948H4.02884C3.79262 18.507 3.56074 18.4157 3.37611 18.2378C3.19149 18.0599 3.06662 17.8075 3.02463 17.5272L1.01621 5.43118C0.97872 5.17427 1.00661 4.90971 1.09622 4.67225C1.18583 4.43479 1.33297 4.23552 1.51832 4.10062C1.69482 4.00105 1.89013 3.95979 2.08423 3.98104C2.27833 4.0023 2.46426 4.08532 2.62296 4.22159L6.74022 8.21327L10.1545 2.04432C10.2492 1.87662 10.3764 1.73935 10.5252 1.64447C10.674 1.5496 10.8398 1.5 11.0081 1.5C11.1765 1.5 11.3422 1.5496 11.491 1.64447C11.6398 1.73935 11.7671 1.87662 11.8617 2.04432L15.276 8.21327L19.3933 4.22159C19.5408 4.0582 19.729 3.95784 19.9286 3.93598C20.1282 3.91412 20.3283 3.97198 20.4979 4.10063C20.8996 4.34255 21 4.82637 21 5.43119L18.9916 17.5272C18.9898 17.6641 18.9645 17.7992 18.9171 17.9237C18.8697 18.0482 18.8014 18.1595 18.7164 18.2505C18.6314 18.3415 18.5316 18.4102 18.4234 18.4523C18.3152 18.4943 18.2009 18.5088 18.0878 18.4948Z" stroke="#363949" stroke-width="1.5" stroke-miterlimit="10"/>
</svg>
