<svg width="148" height="92" viewBox="0 0 148 92" fill="none" xmlns="http://www.w3.org/2000/svg">
<circle cx="93.5" cy="81.5" r="93.5" fill="#ADE9C2"/>
<path fill-rule="evenodd" clip-rule="evenodd" d="M42.8438 52.375C42.8438 48.1478 46.2728 44.7188 50.5 44.7188H120.5C124.727 44.7188 128.156 48.1478 128.156 52.375V61.125C128.156 65.3522 124.727 68.7812 120.5 68.7812H50.5C46.2728 68.7812 42.8438 65.3522 42.8438 61.125V52.375ZM50.5 51.2812C49.8972 51.2812 49.4062 51.7722 49.4062 52.375V61.125C49.4062 61.7278 49.8972 62.2188 50.5 62.2188H120.5C121.103 62.2188 121.594 61.7278 121.594 61.125V52.375C121.594 51.7722 121.103 51.2812 120.5 51.2812H50.5Z" fill="#EDFAF1"/>
<path fill-rule="evenodd" clip-rule="evenodd" d="M85.5 44.7188C87.3122 44.7188 88.7812 46.1878 88.7812 48V104.875C88.7812 106.687 87.3122 108.156 85.5 108.156C83.6878 108.156 82.2188 106.687 82.2188 104.875V48C82.2188 46.1878 83.6878 44.7188 85.5 44.7188Z" fill="#EDFAF1"/>
<path fill-rule="evenodd" clip-rule="evenodd" d="M103.944 39.5577C105.251 40.8132 105.292 42.8904 104.037 44.1972C98.4117 50.0517 89.893 51.2776 85.9336 51.2776C84.1214 51.2776 82.6523 49.8085 82.6523 47.9963C82.6523 46.1841 84.1214 44.7151 85.9336 44.7151C89.1666 44.7151 95.4968 43.6135 99.3043 39.6505C100.56 38.3437 102.637 38.3022 103.944 39.5577Z" fill="#EDFAF1"/>
<path fill-rule="evenodd" clip-rule="evenodd" d="M91.36 26.4664C92.6665 27.7223 92.7076 29.7994 91.4517 31.1059C90.6501 31.9399 89.988 33.2434 89.5225 34.9999C89.0633 36.7323 88.8529 38.6864 88.7953 40.5864C88.7382 42.4729 88.8341 44.2158 88.9459 45.4916C89.0015 46.1264 89.0604 46.6379 89.1044 46.9845C89.1264 47.1577 89.1446 47.2891 89.1567 47.3737L89.1701 47.4645L89.1725 47.4808C89.4555 49.2701 88.235 50.9516 86.4455 51.2353C84.6557 51.5191 82.9747 50.2981 82.691 48.5083L85.7561 48.0224C82.691 48.5083 82.6911 48.5091 82.691 48.5083L82.6897 48.5002L82.6877 48.487L82.6814 48.446C82.6763 48.4121 82.6693 48.3654 82.6609 48.3065C82.6439 48.1886 82.6209 48.0218 82.5942 47.8114C82.5408 47.3909 82.4723 46.7941 82.4084 46.0645C82.2811 44.6114 82.1688 42.6005 82.2358 40.3877C82.3025 38.1883 82.5484 35.6974 83.179 33.3184C83.8032 30.9635 84.8644 28.4892 86.7205 26.5581C87.9764 25.2517 90.0535 25.2106 91.36 26.4664Z" fill="#EDFAF1"/>
<path fill-rule="evenodd" clip-rule="evenodd" d="M86.7253 26.5614C91.4901 21.6045 99.2697 21.6045 104.035 26.5614C108.729 31.4453 108.729 39.3154 104.035 44.1992C102.779 45.5057 100.701 45.5467 99.395 44.2909C98.0886 43.035 98.0475 40.9579 99.3034 39.6514C101.556 37.3078 101.556 33.4529 99.3034 31.1092C97.1207 28.8386 93.6391 28.8386 91.4564 31.1092C90.2005 32.4157 88.1234 32.4567 86.8169 31.2009C85.5104 29.945 85.4694 27.8679 86.7253 26.5614Z" fill="#EDFAF1"/>
<path fill-rule="evenodd" clip-rule="evenodd" d="M67.0567 39.5577C68.3635 38.3022 70.4407 38.3437 71.6962 39.6505C75.5038 43.6135 81.8339 44.7151 85.067 44.7151C86.8791 44.7151 88.3482 46.1841 88.3482 47.9963C88.3482 49.8085 86.8791 51.2776 85.067 51.2776C81.1075 51.2776 72.5889 50.0517 66.964 44.1972C65.7084 42.8904 65.75 40.8132 67.0567 39.5577Z" fill="#EDFAF1"/>
<path fill-rule="evenodd" clip-rule="evenodd" d="M79.6392 26.4664C80.9457 25.2106 83.0228 25.2517 84.2787 26.5581C86.1348 28.4892 87.196 30.9635 87.8202 33.3184C88.4508 35.6974 88.6968 38.1883 88.7634 40.3877C88.8304 42.6005 88.7182 44.6114 88.5908 46.0645C88.5269 46.7941 88.4585 47.3909 88.4051 47.8114C88.3783 48.0218 88.3553 48.1886 88.3384 48.3065C88.3299 48.3654 88.323 48.4121 88.3178 48.446L88.3116 48.487L88.3095 48.5002L88.3085 48.5068C88.3084 48.5075 88.3082 48.5083 85.2414 48.0221L88.3085 48.5068C88.0247 50.2966 86.3435 51.5191 84.5537 51.2353C82.7648 50.9517 81.5443 49.2724 81.8262 47.4837C81.8261 47.4842 81.8263 47.4832 81.8262 47.4837L81.8267 47.4808L81.8292 47.4645L81.8425 47.3737C81.8546 47.2891 81.8729 47.1577 81.8948 46.9845C81.9389 46.6379 81.9978 46.1264 82.0534 45.4916C82.1652 44.2158 82.261 42.4729 82.2039 40.5864C82.1464 38.6864 81.936 36.7323 81.4768 34.9999C81.0112 33.2434 80.3491 31.9399 79.5475 31.1059C78.2917 29.7994 78.3327 27.7223 79.6392 26.4664Z" fill="#EDFAF1"/>
<path fill-rule="evenodd" clip-rule="evenodd" d="M79.5435 31.1092C77.3608 28.8386 73.8791 28.8386 71.6965 31.1092C69.4436 33.4529 69.4436 37.3078 71.6965 39.6514C72.9523 40.9579 72.9113 43.035 71.6048 44.2909C70.2984 45.5467 68.2212 45.5057 66.9653 44.1992C62.2707 39.3154 62.2707 31.4453 66.9653 26.5614C71.7302 21.6045 79.5098 21.6045 84.2746 26.5614C85.5304 27.8679 85.4894 29.945 84.1829 31.2009C82.8765 32.4567 80.7993 32.4157 79.5435 31.1092Z" fill="#EDFAF1"/>
<path fill-rule="evenodd" clip-rule="evenodd" d="M54.875 62.2188C56.6872 62.2188 58.1562 63.6878 58.1562 65.5V100.5C58.1562 101.103 58.6472 101.594 59.25 101.594H111.75C112.353 101.594 112.844 101.103 112.844 100.5V65.5C112.844 63.6878 114.313 62.2188 116.125 62.2188C117.937 62.2188 119.406 63.6878 119.406 65.5V100.5C119.406 104.727 115.977 108.156 111.75 108.156H59.25C55.0228 108.156 51.5938 104.727 51.5938 100.5V65.5C51.5938 63.6878 53.0628 62.2188 54.875 62.2188Z" fill="#EDFAF1"/>
</svg>
