<svg width="85" height="84" viewBox="0 0 85 84" fill="none" xmlns="http://www.w3.org/2000/svg">
<rect x="0.5" width="84" height="84" rx="42" fill="#EDFAF1"/>
<path fill-rule="evenodd" clip-rule="evenodd" d="M17.4746 34.3003C17.4746 31.8203 19.4863 29.8086 21.9663 29.8086H63.0329C65.5129 29.8086 67.5246 31.8203 67.5246 34.3003V39.4336C67.5246 41.9135 65.5129 43.9253 63.0329 43.9253H21.9663C19.4863 43.9253 17.4746 41.9135 17.4746 39.4336V34.3003ZM21.9663 33.6586C21.6126 33.6586 21.3246 33.9466 21.3246 34.3003V39.4336C21.3246 39.7872 21.6126 40.0753 21.9663 40.0753H63.0329C63.3866 40.0753 63.6746 39.7872 63.6746 39.4336V34.3003C63.6746 33.9466 63.3866 33.6586 63.0329 33.6586H21.9663Z" fill="#19C152"/>
<path fill-rule="evenodd" clip-rule="evenodd" d="M42.4992 29.8086C43.5624 29.8086 44.4242 30.6704 44.4242 31.7336V65.1003C44.4242 66.1634 43.5624 67.0253 42.4992 67.0253C41.4361 67.0253 40.5742 66.1634 40.5742 65.1003V31.7336C40.5742 30.6704 41.4361 29.8086 42.4992 29.8086Z" fill="#19C152"/>
<path fill-rule="evenodd" clip-rule="evenodd" d="M53.3191 26.781C54.0858 27.5176 54.1101 28.7362 53.3736 29.5028C50.0736 32.9375 45.076 33.6567 42.7531 33.6567C41.69 33.6567 40.8281 32.7948 40.8281 31.7317C40.8281 30.6685 41.69 29.8067 42.7531 29.8067C44.6498 29.8067 48.3635 29.1604 50.5973 26.8355C51.3339 26.0688 52.5525 26.0444 53.3191 26.781Z" fill="#19C152"/>
<path fill-rule="evenodd" clip-rule="evenodd" d="M45.9369 19.1007C46.7033 19.8374 46.7274 21.056 45.9907 21.8225C45.5204 22.3118 45.132 23.0765 44.8588 24.1069C44.5894 25.1233 44.466 26.2697 44.4323 27.3843C44.3987 28.4911 44.455 29.5136 44.5206 30.2621C44.5532 30.6345 44.5877 30.9346 44.6136 31.138C44.6265 31.2395 44.6371 31.3166 44.6443 31.3663L44.6521 31.4195L44.6535 31.4291C44.8196 32.4788 44.1035 33.4653 43.0537 33.6317C42.0037 33.7982 41.0175 33.0819 40.851 32.0319L42.6492 31.7468C40.851 32.0319 40.8511 32.0324 40.851 32.0319L40.8503 32.0271L40.8491 32.0194L40.8454 31.9953C40.8424 31.9755 40.8383 31.9481 40.8334 31.9135C40.8234 31.8444 40.8099 31.7465 40.7942 31.623C40.7629 31.3763 40.7228 31.0262 40.6852 30.5982C40.6105 29.7457 40.5447 28.566 40.584 27.2678C40.6231 25.9775 40.7674 24.5162 41.1373 23.1205C41.5036 21.7389 42.1261 20.2873 43.215 19.1545C43.9518 18.388 45.1704 18.3639 45.9369 19.1007Z" fill="#19C152"/>
<path fill-rule="evenodd" clip-rule="evenodd" d="M43.2188 19.1566C46.0142 16.2486 50.5782 16.2486 53.3736 19.1566C56.1278 22.0218 56.1278 26.6389 53.3736 29.5041C52.6368 30.2706 51.4182 30.2947 50.6518 29.5579C49.8853 28.8211 49.8612 27.6025 50.598 26.8361C51.9197 25.4611 51.9197 23.1996 50.598 21.8247C49.3175 20.4926 47.2749 20.4926 45.9944 21.8247C45.2577 22.5911 44.0391 22.6152 43.2726 21.8784C42.5062 21.1417 42.4821 19.9231 43.2188 19.1566Z" fill="#19C152"/>
<path fill-rule="evenodd" clip-rule="evenodd" d="M31.6792 26.781C32.4458 26.0444 33.6644 26.0688 34.401 26.8355C36.6348 29.1604 40.3485 29.8067 42.2452 29.8067C43.3083 29.8067 44.1702 30.6685 44.1702 31.7317C44.1702 32.7948 43.3083 33.6567 42.2452 33.6567C39.9223 33.6567 34.9247 32.9375 31.6248 29.5028C30.8882 28.7362 30.9126 27.5176 31.6792 26.781Z" fill="#19C152"/>
<path fill-rule="evenodd" clip-rule="evenodd" d="M39.0617 19.1007C39.8282 18.3639 41.0468 18.388 41.7835 19.1545C42.8725 20.2873 43.495 21.7389 43.8612 23.1205C44.2312 24.5162 44.3755 25.9775 44.4145 27.2678C44.4539 28.566 44.388 29.7457 44.3133 30.5982C44.2758 31.0262 44.2357 31.3763 44.2043 31.623C44.1886 31.7465 44.1751 31.8444 44.1652 31.9135C44.1602 31.9481 44.1562 31.9755 44.1532 31.9953L44.1495 32.0194L44.1483 32.0271L44.1477 32.031C44.1476 32.0314 44.1475 32.0319 42.3483 31.7467L44.1477 32.031C43.9812 33.081 42.9949 33.7982 41.9449 33.6317C40.8954 33.4654 40.1793 32.4802 40.3447 31.4308C40.3447 31.4311 40.3448 31.4305 40.3447 31.4308L40.345 31.4291L40.3465 31.4195L40.3543 31.3663C40.3614 31.3166 40.3721 31.2395 40.385 31.138C40.4108 30.9346 40.4454 30.6345 40.478 30.2621C40.5436 29.5136 40.5998 28.4911 40.5663 27.3843C40.5326 26.2697 40.4091 25.1233 40.1397 24.1069C39.8666 23.0765 39.4782 22.3118 39.0079 21.8225C38.2711 21.056 38.2952 19.8374 39.0617 19.1007Z" fill="#19C152"/>
<path fill-rule="evenodd" clip-rule="evenodd" d="M39.0054 21.8247C37.7249 20.4926 35.6823 20.4926 34.4018 21.8247C33.0801 23.1996 33.0801 25.4611 34.4018 26.8361C35.1386 27.6025 35.1145 28.8211 34.348 29.5579C33.5816 30.2947 32.363 30.2706 31.6262 29.5041C28.872 26.6389 28.872 22.0218 31.6262 19.1566C34.4216 16.2486 38.9856 16.2486 41.781 19.1566C42.5177 19.9231 42.4937 21.1417 41.7272 21.8784C40.9607 22.6152 39.7421 22.5911 39.0054 21.8247Z" fill="#19C152"/>
<path fill-rule="evenodd" clip-rule="evenodd" d="M24.5324 40.0752C25.5956 40.0752 26.4574 40.937 26.4574 42.0002V62.5335C26.4574 62.8872 26.7454 63.1752 27.0991 63.1752H57.8991C58.2527 63.1752 58.5408 62.8872 58.5408 62.5335V42.0002C58.5408 40.937 59.4026 40.0752 60.4658 40.0752C61.5289 40.0752 62.3908 40.937 62.3908 42.0002V62.5335C62.3908 65.0135 60.379 67.0252 57.8991 67.0252H27.0991C24.6191 67.0252 22.6074 65.0135 22.6074 62.5335V42.0002C22.6074 40.937 23.4693 40.0752 24.5324 40.0752Z" fill="#19C152"/>
</svg>
