<svg width="51" height="66" viewBox="0 0 51 66" fill="none" xmlns="http://www.w3.org/2000/svg">
<path fill-rule="evenodd" clip-rule="evenodd" d="M12.8899 0.636719C8.06936 0.636719 3.77743 3.53723 1.70835 7.94629L1.70536 7.95269C0.863603 9.75836 0.423828 11.742 0.423828 13.7488V14.4871C0.423828 19.5685 0.653481 24.6483 1.11643 29.7073L3.48527 55.7527C3.97244 61.0791 8.2261 65.4101 13.6191 65.4101H37.1966C42.5892 65.4101 46.8444 61.079 47.3269 55.7502L49.6992 29.7034C50.1623 24.6439 50.3918 19.5691 50.3918 14.4871V13.7488C50.3918 11.742 49.9521 9.75836 49.1103 7.95269L49.1073 7.94629C47.0382 3.53723 42.7463 0.636719 37.9257 0.636719H12.8899ZM5.97583 13.7488C5.97583 12.5509 6.23879 11.3694 6.73596 10.3017C7.95417 7.70879 10.3681 6.18872 12.8899 6.18872H37.9257C40.4475 6.18872 42.8613 7.70867 44.0795 10.3014C44.5768 11.3692 44.8398 12.5508 44.8398 13.7488V14.4871C44.8398 19.0888 44.6451 23.684 44.253 28.2644C39.0989 31.2365 31.7539 30.8671 27.1485 27.1597C21.4544 22.5758 13.0674 21.6439 6.27648 24.3649C6.0757 21.0776 5.97583 17.7834 5.97583 14.4871V13.7488ZM6.74319 30.2774L9.01419 55.247C9.26787 58.0134 11.3877 59.8581 13.6191 59.8581H37.1966C39.4287 59.8581 41.5472 58.0143 41.7975 55.2495L43.6781 34.6017C37.0506 36.9158 29.1228 35.8764 23.667 31.4844C19.1151 27.8201 11.887 27.4166 6.74319 30.2774Z" fill="#04B4FF"/>
<path d="M6.74319 30.2774L9.01419 55.247C9.26787 58.0134 11.3877 59.8581 13.6191 59.8581H37.1966C39.4287 59.8581 41.5472 58.0143 41.7975 55.2495L43.6781 34.6017C37.0506 36.9158 29.1228 35.8764 23.667 31.4844C19.1151 27.8201 11.887 27.4166 6.74319 30.2774Z" fill="#04B4FF"/>
</svg>
