<svg width="64" height="63" viewBox="0 0 64 63" fill="none" xmlns="http://www.w3.org/2000/svg">
<path fill-rule="evenodd" clip-rule="evenodd" d="M6.56798 7.64438C2.52635 9.97782 0.331945 14.4872 0.731445 19.1854L0.732034 19.1922C0.900343 21.1136 1.49184 22.9896 2.46325 24.6721L2.82063 25.2911C5.28031 29.5514 7.93178 33.6992 10.7688 37.7167L25.3624 58.4069C28.3492 62.6369 34.0119 64.209 38.5335 61.5984L58.3012 50.1855C62.8225 47.5751 64.2937 41.8842 62.1187 37.1828L51.4995 14.1964C49.4386 9.73031 47.1746 5.36438 44.7146 1.1036L44.3572 0.484603C43.3858 -1.19793 42.0569 -2.64819 40.4771 -3.75463L40.4715 -3.75854C36.6025 -6.45361 31.6001 -6.8079 27.5584 -4.47446L6.56798 7.64438ZM7.11814 21.9846C6.5383 20.9803 6.18682 19.8624 6.08682 18.7265C5.85308 15.9629 7.14114 13.52 9.25548 12.2993L30.2459 0.180429C32.3602 -1.04024 35.1197 -0.934323 37.3961 0.649723C38.3299 1.30427 39.1224 2.16769 39.7023 3.1721L40.0597 3.7911C42.2872 7.64926 44.3483 11.5962 46.2367 15.6263C43.3542 20.613 37.0172 23.8587 31.3613 22.9796C24.3684 21.8927 16.8856 25.1712 12.509 30.7397C10.7494 28.0808 9.07112 25.3673 7.47552 22.6036L7.11814 21.9846ZM15.7623 35.471L29.7532 55.3066C31.3049 57.5032 33.9752 58.0237 35.846 56.9435L55.6137 45.5306C57.4852 44.4502 58.3689 41.8788 57.2405 39.4396L48.8224 21.2179C44.3859 26.3661 37.236 29.3323 30.5358 28.2909C24.9457 27.422 18.6902 30.5825 15.7623 35.471Z" fill="#ADE9C2"/>
<path d="M15.7623 35.471L29.7532 55.3066C31.3049 57.5032 33.9752 58.0237 35.846 56.9435L55.6137 45.5306C57.4852 44.4502 58.3689 41.8788 57.2405 39.4396L48.8224 21.2179C44.3859 26.3661 37.236 29.3323 30.5358 28.2909C24.9457 27.422 18.6902 30.5825 15.7623 35.471Z" fill="#ADE9C2"/>
</svg>
