<svg width="24" height="16" viewBox="0 0 24 16" fill="none" xmlns="http://www.w3.org/2000/svg">
<path fill-rule="evenodd" clip-rule="evenodd" d="M20.0122 6.05385C19.515 5.55671 18.709 5.55671 18.2119 6.05385C17.7147 6.55099 17.7147 7.357 18.2119 7.85414C18.709 8.35128 19.515 8.35128 20.0122 7.85414C20.5093 7.357 20.5093 6.55099 20.0122 6.05385ZM21.072 4.99233C19.989 3.91027 18.2339 3.91055 17.1512 4.99319C16.0683 6.07611 16.0683 7.83188 17.1512 8.9148C18.2341 9.99772 19.9899 9.99772 21.0728 8.9148C22.1558 7.83188 22.1558 6.07611 21.0728 4.99319L21.072 4.99233Z" fill="#797C8B"/>
<path fill-rule="evenodd" clip-rule="evenodd" d="M13.4223 2.44269C12.4987 1.5191 11.0012 1.5191 10.0777 2.44269C9.15406 3.36629 9.15406 4.86372 10.0777 5.78731C11.0012 6.7109 12.4987 6.7109 13.4223 5.78731C14.3459 4.86371 14.3459 3.36628 13.4223 2.44269ZM14.4826 1.38165C12.9731 -0.127341 10.5262 -0.12722 9.01699 1.38203C7.50762 2.89141 7.50762 5.3386 9.01699 6.84797C10.5264 8.35734 12.9736 8.35734 14.4829 6.84797C15.9923 5.33859 15.9919 2.89103 14.4826 1.38165Z" fill="#797C8B"/>
<path fill-rule="evenodd" clip-rule="evenodd" d="M5.28815 6.05385C4.79101 5.55671 3.985 5.55671 3.48786 6.05385C2.99072 6.55099 2.99072 7.357 3.48786 7.85414C3.985 8.35128 4.79101 8.35128 5.28815 7.85414C5.78529 7.357 5.78529 6.55099 5.28815 6.05385ZM6.34795 4.99233C5.26496 3.91027 3.50984 3.91055 2.4272 4.99319C1.34428 6.07611 1.34428 7.83188 2.4272 8.9148C3.51012 9.99772 5.26589 9.99772 6.34881 8.9148C7.43174 7.83188 7.43173 6.07611 6.34881 4.99319L6.34795 4.99233Z" fill="#797C8B"/>
<path fill-rule="evenodd" clip-rule="evenodd" d="M18.699 11.404C18.699 10.9898 19.0348 10.654 19.449 10.654H20.25C22.0452 10.654 23.5 12.1088 23.5 13.904V15C23.5 15.4142 23.1642 15.75 22.75 15.75C22.3358 15.75 22 15.4142 22 15V13.904C22 12.9372 21.2168 12.154 20.25 12.154H19.449C19.0348 12.154 18.699 11.8182 18.699 11.404Z" fill="#797C8B"/>
<path fill-rule="evenodd" clip-rule="evenodd" d="M3.25 12.154C2.28321 12.154 1.5 12.9372 1.5 13.904V15C1.5 15.4142 1.16421 15.75 0.75 15.75C0.335786 15.75 0 15.4142 0 15V13.904C0 12.1088 1.45479 10.654 3.25 10.654H4.051C4.46521 10.654 4.801 10.9898 4.801 11.404C4.801 11.8182 4.46521 12.154 4.051 12.154H3.25Z" fill="#797C8B"/>
<path fill-rule="evenodd" clip-rule="evenodd" d="M5.66 13.399C5.66 11.0518 7.56279 9.149 9.91 9.149H13.589C15.9362 9.149 17.839 11.0518 17.839 13.399V15C17.839 15.4142 17.5032 15.75 17.089 15.75C16.6748 15.75 16.339 15.4142 16.339 15V13.399C16.339 11.8802 15.1078 10.649 13.589 10.649H9.91C8.39121 10.649 7.16 11.8802 7.16 13.399V15C7.16 15.4142 6.82421 15.75 6.41 15.75C5.99579 15.75 5.66 15.4142 5.66 15V13.399Z" fill="#797C8B"/>
</svg>
