<svg width="85" height="84" viewBox="0 0 85 84" fill="none" xmlns="http://www.w3.org/2000/svg">
<rect x="0.5" width="84" height="84" rx="42" fill="#EDFAF1"/>
<path fill-rule="evenodd" clip-rule="evenodd" d="M25.175 53.5501C25.175 52.4869 26.0369 51.6251 27.1 51.6251H29.0062H55.9767H57.9C58.9495 51.6251 59.8028 52.4649 59.8246 53.5091C59.8249 53.5227 59.825 53.5364 59.825 53.5501C59.825 53.5653 59.8249 53.5804 59.8245 53.5955C59.8004 54.6377 58.948 55.4751 57.9 55.4751H55.9724H29.0019H27.1C26.0369 55.4751 25.175 54.6132 25.175 53.5501Z" fill="#19C152"/>
<path d="M35.0274 26.8881C35.6845 23.4606 38.7565 20.8251 42.5001 20.8251C45.0226 20.8251 47.2398 22.0216 48.6182 23.8504L55.9409 27.4714C58.3493 27.4124 60.7618 28.464 62.3348 30.6331C63.9591 32.8739 64.1158 36.0305 62.7347 38.4658C61.5356 40.58 59.6451 41.7074 57.5528 42.1029C56.6444 42.2746 55.9864 43.0678 55.9853 43.9922L55.9767 51.6251H57.9C58.9495 51.6251 59.8028 52.4649 59.8246 53.5091L59.8336 45.483C62.2941 44.6727 64.5667 43.0396 66.0836 40.3651C68.193 36.6456 67.98 31.8608 65.4516 28.3729C62.4659 24.2557 57.4987 22.8503 53.1114 24.0172C51.4065 19.8769 47.2916 16.9751 42.5001 16.9751C37.7081 16.9751 33.5935 19.8772 31.8871 24.0172L19.5215 28.4091C17.0074 31.9009 16.7975 36.6956 18.9356 40.4093C20.4516 43.0441 22.7111 44.6774 25.1631 45.4917L25.1468 59.9595C25.1405 63.8609 28.3042 67.0251 32.2056 67.0251L52.7595 67.02C56.655 67.0197 59.8136 63.8645 59.8174 59.9685L59.8245 53.5955C59.8004 54.6377 58.948 55.4751 57.9 55.4751H55.9724L55.9674 59.965C55.9657 61.7359 54.5299 63.17 52.7585 63.17L32.2048 63.1751C30.4293 63.1749 28.9936 61.7339 28.9968 59.9638L29.0019 55.4751H27.1C26.0369 55.4751 25.175 54.6132 25.175 53.5501C25.175 52.4869 26.0369 51.6251 27.1 51.6251H29.0062L29.0148 44.0094C29.0158 43.0844 28.3588 42.2894 27.4502 42.1163C25.3681 41.7195 23.4764 40.5817 22.2721 38.4884C20.8785 36.0678 21.028 32.9057 22.6461 30.6585C24.942 27.4691 29.041 26.6774 32.2963 28.2575C32.8349 28.5189 33.4645 28.5148 33.9996 28.2465C34.5348 27.9782 34.9147 27.4761 35.0274 26.8881Z" fill="#19C152"/>
<path d="M49.9699 26.887L53.4495 27.9412C54.2554 27.6487 55.0979 27.492 55.9409 27.4714L48.6182 23.8504C49.2856 24.7358 49.7563 25.7693 49.9699 26.887Z" fill="#19C152"/>
<path d="M19.5215 28.4091L31.8871 24.0172C27.4881 22.8466 22.5048 24.2651 19.5215 28.4091Z" fill="#19C152"/>
<path d="M50.9972 28.2461C51.5323 28.5147 52.162 28.519 52.7008 28.2577C52.946 28.1388 53.1959 28.0333 53.4495 27.9412L49.9699 26.887C50.0823 27.4752 50.462 27.9775 50.9972 28.2461Z" fill="#19C152"/>
</svg>
