<svg width="1366" height="1372" viewBox="0 0 1366 1372" fill="none" xmlns="http://www.w3.org/2000/svg">
<path fill-rule="evenodd" clip-rule="evenodd" d="M936.023 800.701C925.662 798.628 916.751 806.975 914.933 816.062C911.251 834.464 937.131 855.313 937.653 855.417C938.176 855.522 970.085 846.235 973.767 827.833C975.585 818.746 970.572 807.613 960.21 805.54C954.262 804.35 949.777 806.546 946.998 808.71C945.266 805.644 941.972 801.891 936.023 800.701Z" fill="#19C152"/>
<path fill-rule="evenodd" clip-rule="evenodd" d="M909.793 594.317C899.85 597.894 896.532 609.645 899.67 618.364C906.023 636.023 938.952 640.506 939.454 640.326C939.956 640.145 962.48 615.71 956.127 598.052C952.989 589.332 942.946 582.389 933.003 585.966C927.295 588.02 924.589 592.217 923.328 595.505C920.261 593.775 915.501 592.263 909.793 594.317Z" fill="#19C152"/>
<path fill-rule="evenodd" clip-rule="evenodd" d="M747.522 480.8C737.579 484.377 734.261 496.128 737.399 504.847C743.752 522.506 776.681 526.989 777.183 526.809C777.685 526.628 800.209 502.193 793.856 484.535C790.718 475.815 780.675 468.872 770.732 472.449C765.024 474.503 762.318 478.7 761.057 481.988C757.99 480.257 753.23 478.746 747.522 480.8Z" fill="#19C152"/>
<path fill-rule="evenodd" clip-rule="evenodd" d="M604.075 416.989C594.132 420.566 590.814 432.316 593.951 441.036C600.305 458.694 633.234 463.178 633.735 462.997C634.237 462.817 656.762 438.382 650.408 420.723C647.271 412.004 637.227 405.061 627.285 408.638C621.576 410.692 618.871 414.889 617.609 418.177C614.542 416.446 609.783 414.935 604.075 416.989Z" fill="#19C152"/>
<path fill-rule="evenodd" clip-rule="evenodd" d="M757.405 734.271C747.463 737.848 744.145 749.598 747.282 758.318C753.635 775.976 786.564 780.46 787.066 780.279C787.568 780.099 810.092 755.664 803.739 738.005C800.602 729.286 790.558 722.343 780.615 725.92C774.907 727.974 772.201 732.171 770.94 735.459C767.873 733.728 763.114 732.217 757.405 734.271Z" fill="#19C152"/>
<path fill-rule="evenodd" clip-rule="evenodd" d="M563.183 495.862C555.96 498.461 553.549 506.998 555.828 513.333C560.444 526.162 584.367 529.419 584.732 529.288C585.097 529.157 601.461 511.405 596.845 498.575C594.566 492.241 587.269 487.196 580.045 489.795C575.898 491.288 573.933 494.337 573.016 496.725C570.788 495.468 567.33 494.37 563.183 495.862Z" fill="#19C152"/>
<path fill-rule="evenodd" clip-rule="evenodd" d="M491.338 419.061C481.355 422.524 477.904 434.236 480.941 442.991C487.092 460.721 519.968 465.58 520.472 465.405C520.976 465.23 543.778 441.054 537.626 423.324C534.589 414.57 524.625 407.512 514.642 410.976C508.911 412.964 506.158 417.13 504.859 420.403C501.812 418.638 497.07 417.072 491.338 419.061Z" fill="#19C152"/>
<path fill-rule="evenodd" clip-rule="evenodd" d="M872.652 720.482C862.709 724.059 859.391 735.81 862.528 744.529C868.882 762.188 901.811 766.671 902.313 766.491C902.814 766.31 925.339 741.875 918.985 724.217C915.848 715.497 905.805 708.554 895.862 712.131C890.153 714.185 887.448 718.382 886.187 721.67C883.12 719.94 878.36 718.428 872.652 720.482Z" fill="#19C152"/>
<path fill-rule="evenodd" clip-rule="evenodd" d="M978.976 674.655C968.472 673.513 960.34 682.621 959.339 691.834C957.311 710.49 984.945 728.951 985.475 729.008C986.006 729.066 1016.96 716.973 1018.99 698.316C1019.99 689.104 1014 678.461 1003.5 677.32C997.468 676.664 993.196 679.251 990.622 681.654C988.623 678.754 985.008 675.31 978.976 674.655Z" fill="#19C152"/>
<path fill-rule="evenodd" clip-rule="evenodd" d="M724.667 679.941C719.945 682.311 719 688.343 721.079 692.484C725.288 700.87 741.903 701.128 742.141 701.008C742.379 700.888 752.1 687.412 747.891 679.026C745.812 674.885 740.412 672.039 735.69 674.409C732.979 675.769 731.887 678.015 731.457 679.722C729.831 679.046 727.378 678.581 724.667 679.941Z" fill="#19C152"/>
<path fill-rule="evenodd" clip-rule="evenodd" d="M804.338 677.377C799.086 676.806 795.02 681.36 794.519 685.966C793.505 695.295 807.322 704.525 807.588 704.554C807.853 704.583 823.33 698.536 824.344 689.208C824.844 684.601 821.852 679.28 816.599 678.709C813.584 678.382 811.448 679.675 810.161 680.877C809.162 679.427 807.354 677.705 804.338 677.377Z" fill="#19C152"/>
<path fill-rule="evenodd" clip-rule="evenodd" d="M883.838 870.714C880.713 871.247 879.114 874.543 879.582 877.284C880.529 882.833 890.018 885.891 890.176 885.864C890.334 885.837 898.272 879.806 897.326 874.257C896.858 871.516 894.257 868.937 891.132 869.47C889.338 869.776 888.318 870.873 887.773 871.778C886.958 871.105 885.632 870.408 883.838 870.714Z" fill="#19C152"/>
<path fill-rule="evenodd" clip-rule="evenodd" d="M646.307 501.378C643.786 503.3 643.899 506.961 645.584 509.172C648.998 513.649 658.823 511.955 658.95 511.858C659.077 511.761 663.312 502.736 659.899 498.259C658.213 496.048 654.712 494.969 652.192 496.891C650.744 497.995 650.35 499.44 650.286 500.495C649.252 500.277 647.754 500.275 646.307 501.378Z" fill="#19C152"/>
<path fill-rule="evenodd" clip-rule="evenodd" d="M723.672 561.574C720.547 562.107 718.948 565.402 719.416 568.143C720.363 573.693 729.852 576.75 730.01 576.723C730.168 576.696 738.106 570.666 737.16 565.116C736.692 562.375 734.091 559.796 730.966 560.329C729.172 560.635 728.152 561.732 727.607 562.637C726.792 561.964 725.466 561.267 723.672 561.574Z" fill="#19C152"/>
<path fill-rule="evenodd" clip-rule="evenodd" d="M662.179 661.15C659.054 661.684 657.455 664.979 657.923 667.72C658.87 673.269 668.359 676.327 668.517 676.3C668.674 676.273 676.613 670.242 675.666 664.693C675.199 661.952 672.598 659.373 669.473 659.906C667.679 660.212 666.659 661.309 666.114 662.214C665.299 661.541 663.973 660.844 662.179 661.15Z" fill="#19C152"/>
<path fill-rule="evenodd" clip-rule="evenodd" d="M699.789 466.103C696.664 466.636 695.066 469.932 695.533 472.673C696.48 478.222 705.969 481.28 706.127 481.253C706.285 481.226 714.224 475.195 713.277 469.645C712.809 466.905 710.208 464.326 707.084 464.859C705.29 465.165 704.269 466.262 703.724 467.167C702.909 466.494 701.583 465.797 699.789 466.103Z" fill="#19C152"/>
<path fill-rule="evenodd" clip-rule="evenodd" d="M985.332 868.581C980.539 870.805 979.409 876.804 981.359 881.007C985.308 889.519 1001.91 890.289 1002.15 890.177C1002.39 890.065 1012.52 876.895 1008.57 868.383C1006.62 864.18 1001.31 861.168 996.52 863.391C993.768 864.668 992.608 866.878 992.125 868.572C990.521 867.846 988.084 867.305 985.332 868.581Z" fill="#19C152"/>
<path fill-rule="evenodd" clip-rule="evenodd" d="M780.483 604.96C775.69 607.184 774.56 613.183 776.51 617.386C780.458 625.898 797.057 626.668 797.299 626.556C797.541 626.444 807.673 613.274 803.724 604.762C801.774 600.558 796.464 597.547 791.671 599.77C788.919 601.047 787.758 603.257 787.276 604.951C785.672 604.225 783.235 603.684 780.483 604.96Z" fill="#19C152"/>
<path fill-rule="evenodd" clip-rule="evenodd" d="M840.767 575.241C835.974 577.464 834.844 583.464 836.793 587.667C840.742 596.179 857.341 596.949 857.583 596.836C857.824 596.724 867.956 583.554 864.008 575.042C862.058 570.839 856.747 567.827 851.955 570.051C849.203 571.327 848.042 573.538 847.56 575.231C845.956 574.506 843.518 573.964 840.767 575.241Z" fill="#19C152"/>
<path fill-rule="evenodd" clip-rule="evenodd" d="M871.943 665.535C867.151 667.758 866.02 673.758 867.97 677.961C871.919 686.473 888.517 687.242 888.759 687.13C889.001 687.018 899.133 673.848 895.184 665.336C893.235 661.133 887.924 658.121 883.131 660.345C880.38 661.621 879.219 663.832 878.737 665.525C877.132 664.8 874.695 664.258 871.943 665.535Z" fill="#19C152"/>
<path fill-rule="evenodd" clip-rule="evenodd" d="M858.813 521.852C854.021 524.076 852.89 530.075 854.84 534.278C858.789 542.79 875.388 543.56 875.629 543.448C875.871 543.336 886.003 530.166 882.055 521.654C880.105 517.451 874.794 514.439 870.002 516.662C867.25 517.939 866.089 520.149 865.607 521.843C864.003 521.117 861.565 520.576 858.813 521.852Z" fill="#19C152"/>
<path fill-rule="evenodd" clip-rule="evenodd" d="M949.403 922.723C944.182 923.531 941.433 928.983 942.142 933.561C943.577 942.834 959.312 948.174 959.576 948.133C959.839 948.092 973.224 938.246 971.789 928.973C971.08 924.394 966.813 920.029 961.591 920.837C958.594 921.301 956.866 923.103 955.933 924.597C954.593 923.455 952.401 922.259 949.403 922.723Z" fill="#19C152"/>
<path fill-rule="evenodd" clip-rule="evenodd" d="M635.602 549.324C630.381 550.133 627.633 555.584 628.341 560.163C629.776 569.435 645.511 574.775 645.775 574.734C646.039 574.693 659.423 564.847 657.988 555.574C657.28 550.995 653.012 546.63 647.791 547.438C644.793 547.902 643.065 549.704 642.132 551.198C640.792 550.056 638.6 548.861 635.602 549.324Z" fill="#19C152"/>
<path fill-rule="evenodd" clip-rule="evenodd" d="M855.168 797.665C849.947 798.473 847.198 803.924 847.907 808.503C849.342 817.776 865.077 823.115 865.34 823.075C865.604 823.034 878.989 813.187 877.554 803.915C876.845 799.336 872.577 794.97 867.356 795.778C864.358 796.242 862.63 798.045 861.698 799.538C860.357 798.396 858.165 797.201 855.168 797.665Z" fill="#19C152"/>
<path fill-rule="evenodd" clip-rule="evenodd" d="M696.708 610.701C691.487 611.509 688.739 616.96 689.447 621.539C690.882 630.812 706.617 636.151 706.881 636.11C707.144 636.07 720.529 626.223 719.094 616.95C718.386 612.372 714.118 608.006 708.897 608.814C705.899 609.278 704.171 611.08 703.238 612.574C701.898 611.432 699.706 610.237 696.708 610.701Z" fill="#19C152"/>
<path fill-rule="evenodd" clip-rule="evenodd" d="M635.658 610.873C630.397 611.361 627.32 616.633 627.748 621.247C628.613 630.59 643.992 636.882 644.258 636.858C644.523 636.833 658.485 627.824 657.62 618.48C657.192 613.867 653.2 609.249 647.939 609.736C644.918 610.016 643.083 611.709 642.061 613.142C640.793 611.921 638.678 610.594 635.658 610.873Z" fill="#19C152"/>
<path fill-rule="evenodd" clip-rule="evenodd" d="M1011.76 763.312C1006.53 764.12 1003.79 769.571 1004.49 774.15C1005.93 783.423 1021.66 788.762 1021.93 788.721C1022.19 788.681 1035.58 778.834 1034.14 769.561C1033.43 764.982 1029.17 760.617 1023.94 761.425C1020.95 761.889 1019.22 763.691 1018.29 765.185C1016.95 764.043 1014.75 762.848 1011.76 763.312Z" fill="#19C152"/>
<path fill-rule="evenodd" clip-rule="evenodd" d="M639.008 389.226C628.598 391.041 623.31 402.046 624.901 411.175C628.124 429.663 659.792 439.741 660.317 439.649C660.842 439.558 687.232 419.359 684.01 400.871C682.418 391.742 673.718 383.176 663.308 384.99C657.332 386.032 653.945 389.702 652.137 392.724C649.413 390.491 644.985 388.184 639.008 389.226Z" fill="#19C152"/>
<path fill-rule="evenodd" clip-rule="evenodd" d="M539.912 206.299C531.936 213.231 533.092 225.386 539.171 232.38C551.48 246.546 583.802 238.816 584.205 238.466C584.607 238.117 596.769 207.189 584.46 193.024C578.381 186.029 566.507 183.189 558.531 190.12C553.951 194.099 552.947 198.991 552.96 202.512C549.475 202.008 544.491 202.32 539.912 206.299Z" fill="#19C152"/>
<path fill-rule="evenodd" clip-rule="evenodd" d="M347.57 159.154C339.594 166.085 340.75 178.24 346.829 185.235C359.138 199.4 391.46 191.671 391.862 191.321C392.265 190.971 404.427 160.044 392.118 145.878C386.039 138.884 374.164 136.043 366.189 142.974C361.609 146.954 360.605 151.845 360.618 155.367C357.133 154.862 352.149 155.175 347.57 159.154Z" fill="#19C152"/>
<path fill-rule="evenodd" clip-rule="evenodd" d="M190.755 151.542C182.779 158.473 183.935 170.628 190.014 177.623C202.323 191.788 234.645 184.059 235.047 183.709C235.45 183.359 247.612 152.432 235.302 138.266C229.224 131.272 217.349 128.431 209.373 135.362C204.794 139.341 203.79 144.233 203.803 147.754C200.318 147.25 195.334 147.563 190.755 151.542Z" fill="#19C152"/>
<path fill-rule="evenodd" clip-rule="evenodd" d="M448.455 391.892C440.479 398.824 441.636 410.979 447.714 417.973C460.024 432.139 492.345 424.409 492.748 424.059C493.151 423.71 505.313 392.782 493.003 378.617C486.925 371.622 475.05 368.782 467.074 375.713C462.495 379.692 461.49 384.584 461.504 388.105C458.018 387.601 453.035 387.913 448.455 391.892Z" fill="#19C152"/>
<path fill-rule="evenodd" clip-rule="evenodd" d="M181.156 239.866C175.362 244.902 176.202 253.732 180.618 258.814C189.561 269.105 213.043 263.49 213.335 263.236C213.628 262.981 222.464 240.513 213.52 230.221C209.105 225.14 200.477 223.076 194.683 228.111C191.356 231.002 190.626 234.556 190.636 237.114C188.104 236.748 184.483 236.975 181.156 239.866Z" fill="#19C152"/>
<path fill-rule="evenodd" clip-rule="evenodd" d="M86.3988 194.246C78.3442 201.086 79.3618 213.253 85.3598 220.317C97.507 234.622 129.915 227.262 130.321 226.917C130.728 226.572 143.242 195.786 131.095 181.481C125.097 174.417 113.256 171.441 105.201 178.28C100.577 182.207 99.5165 187.087 99.4894 190.608C96.0102 190.064 91.0231 190.32 86.3988 194.246Z" fill="#19C152"/>
<path fill-rule="evenodd" clip-rule="evenodd" d="M550.914 337.357C542.938 344.288 544.095 356.443 550.173 363.437C562.483 377.603 594.804 369.873 595.207 369.524C595.61 369.174 607.772 338.246 595.462 324.081C589.384 317.086 577.509 314.246 569.533 321.177C564.954 325.156 563.949 330.048 563.963 333.569C560.477 333.065 555.494 333.377 550.914 337.357Z" fill="#19C152"/>
<path fill-rule="evenodd" clip-rule="evenodd" d="M633.467 256.178C623.26 258.913 618.973 270.345 621.372 279.296C626.229 297.423 658.669 304.64 659.184 304.502C659.699 304.364 684.184 281.894 679.327 263.767C676.929 254.816 667.5 247.059 657.293 249.794C651.433 251.364 648.387 255.32 646.855 258.492C643.944 256.511 639.327 254.608 633.467 256.178Z" fill="#19C152"/>
<path fill-rule="evenodd" clip-rule="evenodd" d="M398.284 353.081C394.739 356.998 396.04 362.963 399.475 366.072C406.432 372.368 422.015 366.6 422.194 366.402C422.373 366.204 426.562 350.125 419.605 343.828C416.17 340.719 410.105 340.019 406.56 343.936C404.525 346.185 404.318 348.674 404.535 350.421C402.775 350.379 400.32 350.832 398.284 353.081Z" fill="#19C152"/>
<path fill-rule="evenodd" clip-rule="evenodd" d="M471.635 321.876C466.532 323.243 464.388 328.959 465.587 333.435C468.016 342.499 484.236 346.107 484.494 346.038C484.751 345.969 496.994 334.734 494.565 325.67C493.366 321.195 488.652 317.316 483.548 318.684C480.618 319.469 479.095 321.447 478.329 323.033C476.873 322.042 474.565 321.091 471.635 321.876Z" fill="#19C152"/>
<path fill-rule="evenodd" clip-rule="evenodd" d="M615.676 473.374C612.955 475.001 612.657 478.652 614.084 481.038C616.974 485.869 626.927 485.288 627.064 485.206C627.201 485.124 632.422 476.63 629.532 471.798C628.105 469.412 624.747 467.948 622.027 469.575C620.465 470.51 619.911 471.901 619.729 472.942C618.726 472.61 617.238 472.44 615.676 473.374Z" fill="#19C152"/>
<path fill-rule="evenodd" clip-rule="evenodd" d="M260.649 214.945C258.993 217.649 260.423 221.021 262.794 222.473C267.595 225.412 276.143 220.28 276.226 220.144C276.31 220.007 276.994 210.061 272.192 207.121C269.821 205.67 266.167 205.93 264.512 208.634C263.562 210.186 263.717 211.676 264.039 212.682C262.996 212.853 261.599 213.393 260.649 214.945Z" fill="#19C152"/>
<path fill-rule="evenodd" clip-rule="evenodd" d="M354.548 243.085C351.827 244.712 351.529 248.363 352.956 250.749C355.846 255.581 365.799 255 365.936 254.917C366.073 254.835 371.294 246.341 368.404 241.51C366.977 239.124 363.619 237.66 360.899 239.287C359.337 240.221 358.783 241.613 358.601 242.654C357.598 242.321 356.11 242.151 354.548 243.085Z" fill="#19C152"/>
<path fill-rule="evenodd" clip-rule="evenodd" d="M333.23 358.162C330.509 359.789 330.211 363.44 331.638 365.826C334.528 370.657 344.481 370.076 344.618 369.994C344.755 369.912 349.975 361.418 347.086 356.586C345.659 354.2 342.301 352.736 339.58 354.363C338.018 355.298 337.464 356.689 337.283 357.73C336.28 357.398 334.792 357.228 333.23 358.162Z" fill="#19C152"/>
<path fill-rule="evenodd" clip-rule="evenodd" d="M297.753 162.715C295.033 164.342 294.734 167.993 296.161 170.379C299.051 175.211 309.004 174.629 309.142 174.547C309.279 174.465 314.499 165.971 311.609 161.14C310.182 158.754 306.825 157.29 304.104 158.917C302.542 159.851 301.988 161.243 301.806 162.284C300.804 161.951 299.315 161.781 297.753 162.715Z" fill="#19C152"/>
<path fill-rule="evenodd" clip-rule="evenodd" d="M709.529 434.679C705.865 438.485 706.981 444.487 710.319 447.7C717.079 454.208 732.832 448.922 733.017 448.73C733.202 448.538 737.885 432.595 731.125 426.088C727.787 422.874 721.747 421.987 718.083 425.793C715.979 427.979 715.696 430.459 715.859 432.213C714.101 432.116 711.633 432.493 709.529 434.679Z" fill="#19C152"/>
<path fill-rule="evenodd" clip-rule="evenodd" d="M423.204 262.989C419.54 266.795 420.656 272.797 423.994 276.011C430.754 282.518 446.507 277.233 446.692 277.041C446.877 276.849 451.56 260.906 444.8 254.398C441.462 251.185 435.422 250.298 431.758 254.104C429.654 256.289 429.371 258.77 429.534 260.523C427.776 260.427 425.308 260.804 423.204 262.989Z" fill="#19C152"/>
<path fill-rule="evenodd" clip-rule="evenodd" d="M468.659 213.479C464.995 217.285 466.111 223.287 469.449 226.5C476.209 233.008 491.962 227.723 492.147 227.53C492.332 227.338 497.015 211.395 490.255 204.888C486.917 201.674 480.877 200.787 477.213 204.593C475.109 206.779 474.826 209.259 474.989 211.013C473.231 210.916 470.763 211.293 468.659 213.479Z" fill="#19C152"/>
<path fill-rule="evenodd" clip-rule="evenodd" d="M530.382 286.385C526.717 290.191 527.833 296.193 531.171 299.407C537.931 305.914 553.685 300.629 553.87 300.437C554.054 300.245 558.737 284.302 551.978 277.794C548.64 274.581 542.599 273.694 538.935 277.5C536.832 279.685 536.549 282.166 536.712 283.919C534.953 283.823 532.485 284.2 530.382 286.385Z" fill="#19C152"/>
<path fill-rule="evenodd" clip-rule="evenodd" d="M466.176 157.177C462.511 160.984 463.627 166.986 466.965 170.199C473.725 176.707 489.479 171.421 489.663 171.229C489.848 171.037 494.531 155.094 487.771 148.586C484.434 145.373 478.393 144.486 474.729 148.292C472.625 150.477 472.343 152.958 472.506 154.711C470.747 154.615 468.279 154.992 466.176 157.177Z" fill="#19C152"/>
<path fill-rule="evenodd" clip-rule="evenodd" d="M695.613 498.15C691.038 500.791 690.447 506.868 692.764 510.88C697.455 519.006 714.056 518.294 714.287 518.16C714.518 518.027 723.436 504.006 718.744 495.88C716.428 491.868 710.87 489.341 706.294 491.983C703.668 493.5 702.708 495.805 702.379 497.535C700.716 496.955 698.24 496.633 695.613 498.15Z" fill="#19C152"/>
<path fill-rule="evenodd" clip-rule="evenodd" d="M268.009 263.517C263.433 266.159 262.842 272.235 265.159 276.247C269.851 284.374 286.452 283.661 286.683 283.528C286.914 283.394 295.832 269.374 291.14 261.247C288.823 257.235 283.265 254.709 278.69 257.35C276.063 258.867 275.104 261.172 274.774 262.902C273.112 262.322 270.636 262 268.009 263.517Z" fill="#19C152"/>
<path fill-rule="evenodd" clip-rule="evenodd" d="M562.528 415.638C557.953 418.28 557.361 424.356 559.678 428.369C564.37 436.495 580.971 435.782 581.202 435.649C581.433 435.515 590.351 421.495 585.659 413.369C583.342 409.356 577.784 406.83 573.209 409.471C570.582 410.988 569.623 413.293 569.294 415.023C567.631 414.443 565.155 414.121 562.528 415.638Z" fill="#19C152"/>
<path fill-rule="evenodd" clip-rule="evenodd" d="M347.176 298.639C342.601 301.28 342.01 307.357 344.326 311.369C349.018 319.495 365.619 318.783 365.85 318.649C366.081 318.516 374.999 304.495 370.307 296.369C367.99 292.357 362.433 289.83 357.857 292.472C355.23 293.989 354.271 296.294 353.942 298.024C352.279 297.444 349.803 297.122 347.176 298.639Z" fill="#19C152"/>
<path fill-rule="evenodd" clip-rule="evenodd" d="M290.321 320.88C285.592 323.237 284.631 329.265 286.698 333.412C290.884 341.81 307.497 342.114 307.736 341.995C307.975 341.876 317.733 328.427 313.547 320.029C311.48 315.882 306.087 313.021 301.359 315.378C298.644 316.731 297.546 318.973 297.111 320.679C295.487 319.999 293.036 319.526 290.321 320.88Z" fill="#19C152"/>
<path fill-rule="evenodd" clip-rule="evenodd" d="M696.091 326.978C691.516 329.62 690.925 335.696 693.242 339.708C697.933 347.835 714.534 347.122 714.765 346.989C714.996 346.855 723.914 332.835 719.222 324.708C716.906 320.696 711.348 318.17 706.772 320.811C704.146 322.328 703.186 324.633 702.857 326.363C701.194 325.783 698.718 325.461 696.091 326.978Z" fill="#19C152"/>
<path fill-rule="evenodd" clip-rule="evenodd" d="M973.707 1131.08C965.23 1124.77 953.604 1128.5 948.072 1135.94C936.869 1150.99 951.337 1180.91 951.765 1181.23C952.193 1181.55 985.006 1186.81 996.209 1171.75C1001.74 1164.32 1001.97 1152.11 993.497 1145.8C988.63 1142.18 983.636 1142.25 980.199 1143.01C979.946 1139.5 978.574 1134.7 973.707 1131.08Z" fill="#19C152"/>
<path fill-rule="evenodd" clip-rule="evenodd" d="M1038.32 933.322C1027.8 932.3 1019.78 941.5 1018.88 950.723C1017.07 969.402 1044.91 987.546 1045.44 987.598C1045.97 987.649 1076.78 975.204 1078.6 956.525C1079.5 947.302 1073.39 936.729 1062.87 935.707C1056.83 935.12 1052.59 937.756 1050.05 940.188C1048.01 937.311 1044.36 933.908 1038.32 933.322Z" fill="#19C152"/>
<path fill-rule="evenodd" clip-rule="evenodd" d="M940.239 761.281C929.722 760.259 921.695 769.46 920.799 778.683C918.984 797.362 946.827 815.506 947.357 815.557C947.888 815.609 978.703 803.164 980.517 784.485C981.413 775.262 975.307 764.688 964.79 763.666C958.752 763.08 954.511 765.715 951.963 768.147C949.932 765.271 946.277 761.868 940.239 761.281Z" fill="#19C152"/>
<path fill-rule="evenodd" clip-rule="evenodd" d="M837.899 642.221C827.382 641.199 819.354 650.399 818.458 659.622C816.644 678.301 844.486 696.445 845.017 696.497C845.548 696.548 876.362 684.103 878.177 665.424C879.073 656.201 872.967 645.628 862.45 644.606C856.412 644.019 852.17 646.655 849.623 649.087C847.592 646.21 843.937 642.807 837.899 642.221Z" fill="#19C152"/>
<path fill-rule="evenodd" clip-rule="evenodd" d="M840.7 994.599C830.182 993.577 822.155 1002.78 821.259 1012C819.444 1030.68 847.287 1048.82 847.818 1048.87C848.349 1048.93 879.163 1036.48 880.978 1017.8C881.874 1008.58 875.768 998.006 865.251 996.984C859.212 996.397 854.971 999.033 852.424 1001.46C850.393 998.588 846.738 995.185 840.7 994.599Z" fill="#19C152"/>
<path fill-rule="evenodd" clip-rule="evenodd" d="M767.187 696.008C759.546 695.265 753.714 701.949 753.063 708.65C751.745 722.22 771.973 735.402 772.358 735.44C772.744 735.477 795.131 726.436 796.45 712.865C797.101 706.165 792.664 698.483 785.024 697.741C780.637 697.314 777.555 699.229 775.705 700.996C774.229 698.906 771.574 696.434 767.187 696.008Z" fill="#19C152"/>
<path fill-rule="evenodd" clip-rule="evenodd" d="M735.12 595.848C724.615 594.706 716.484 603.814 715.482 613.027C713.454 631.683 741.088 650.144 741.618 650.202C742.148 650.259 773.103 638.167 775.131 619.51C776.132 610.298 770.147 599.655 759.642 598.514C753.611 597.858 749.34 600.445 746.765 602.847C744.767 599.948 741.151 596.504 735.12 595.848Z" fill="#19C152"/>
<path fill-rule="evenodd" clip-rule="evenodd" d="M950.761 1031.46C940.244 1030.43 932.217 1039.63 931.321 1048.86C929.506 1067.54 957.349 1085.68 957.879 1085.73C958.41 1085.78 989.225 1073.34 991.039 1054.66C991.935 1045.44 985.829 1034.86 975.312 1033.84C969.274 1033.25 965.032 1035.89 962.485 1038.32C960.454 1035.45 956.799 1032.04 950.761 1031.46Z" fill="#19C152"/>
<path fill-rule="evenodd" clip-rule="evenodd" d="M1066.47 1035.54C1057.46 1030.01 1046.22 1034.76 1041.37 1042.66C1031.55 1058.65 1048.63 1087.17 1049.08 1087.44C1049.54 1087.72 1082.69 1090.04 1092.51 1074.05C1097.35 1066.15 1096.5 1053.97 1087.49 1048.44C1082.32 1045.27 1077.35 1045.78 1074 1046.85C1073.43 1043.37 1071.64 1038.71 1066.47 1035.54Z" fill="#19C152"/>
<path fill-rule="evenodd" clip-rule="evenodd" d="M834.361 931.485C829.079 931.607 825.644 936.653 825.75 941.286C825.966 950.666 840.872 958.009 841.138 958.003C841.405 957.997 855.958 949.977 855.742 940.596C855.636 935.964 851.973 931.081 846.691 931.202C843.658 931.272 841.71 932.833 840.591 934.193C839.411 932.886 837.393 931.416 834.361 931.485Z" fill="#19C152"/>
<path fill-rule="evenodd" clip-rule="evenodd" d="M907.466 963.263C902.963 960.499 897.34 962.875 894.916 966.824C890.008 974.821 898.545 989.076 898.773 989.216C899 989.355 915.576 990.514 920.484 982.517C922.908 978.568 922.48 972.478 917.977 969.714C915.392 968.127 912.908 968.383 911.231 968.917C910.948 967.179 910.051 964.849 907.466 963.263Z" fill="#19C152"/>
<path fill-rule="evenodd" clip-rule="evenodd" d="M896.58 1172.02C893.527 1171.17 890.672 1173.46 889.922 1176.14C888.403 1181.56 895.671 1188.38 895.825 1188.43C895.979 1188.47 905.735 1186.42 907.254 1181C908.004 1178.32 906.758 1174.88 903.705 1174.02C901.953 1173.53 900.561 1174.08 899.681 1174.67C899.233 1173.71 898.332 1172.51 896.58 1172.02Z" fill="#19C152"/>
<path fill-rule="evenodd" clip-rule="evenodd" d="M839.954 736.565C836.853 737.224 835.389 740.581 835.966 743.3C837.135 748.808 846.74 751.481 846.896 751.448C847.053 751.415 854.743 745.07 853.574 739.562C852.996 736.843 850.294 734.37 847.193 735.029C845.413 735.407 844.438 736.544 843.929 737.47C843.088 736.83 841.735 736.187 839.954 736.565Z" fill="#19C152"/>
<path fill-rule="evenodd" clip-rule="evenodd" d="M884.118 824.078C881.065 823.223 878.21 825.517 877.46 828.194C875.941 833.615 883.209 840.44 883.363 840.483C883.517 840.526 893.273 838.473 894.792 833.052C895.543 830.375 894.296 826.931 891.243 826.075C889.491 825.584 888.099 826.139 887.219 826.723C886.771 825.767 885.87 824.569 884.118 824.078Z" fill="#19C152"/>
<path fill-rule="evenodd" clip-rule="evenodd" d="M785.925 887.76C782.873 886.905 780.018 889.199 779.268 891.876C777.748 897.297 785.016 904.122 785.17 904.165C785.325 904.208 795.081 902.155 796.6 896.734C797.35 894.057 796.103 890.613 793.051 889.757C791.298 889.266 789.907 889.821 789.027 890.405C788.578 889.449 787.678 888.251 785.925 887.76Z" fill="#19C152"/>
<path fill-rule="evenodd" clip-rule="evenodd" d="M903.388 727.571C900.336 726.716 897.481 729.011 896.731 731.687C895.211 737.109 902.479 743.933 902.633 743.976C902.787 744.019 912.544 741.966 914.063 736.545C914.813 733.868 913.566 730.424 910.514 729.568C908.761 729.077 907.37 729.632 906.49 730.216C906.041 729.26 905.141 728.062 903.388 727.571Z" fill="#19C152"/>
<path fill-rule="evenodd" clip-rule="evenodd" d="M989.224 1213.53C983.941 1213.49 980.352 1218.43 980.316 1223.06C980.242 1232.44 994.914 1240.24 995.181 1240.24C995.447 1240.25 1010.24 1232.68 1010.31 1223.3C1010.35 1218.66 1006.84 1213.67 1001.56 1213.63C998.524 1213.6 996.529 1215.1 995.368 1216.43C994.229 1215.09 992.257 1213.55 989.224 1213.53Z" fill="#19C152"/>
<path fill-rule="evenodd" clip-rule="evenodd" d="M916.896 887.604C911.612 887.562 908.023 892.501 907.987 897.134C907.913 906.517 922.586 914.316 922.852 914.318C923.119 914.32 937.912 906.753 937.986 897.37C938.022 892.737 934.512 887.742 929.228 887.701C926.195 887.677 924.2 889.178 923.04 890.502C921.9 889.16 919.929 887.628 916.896 887.604Z" fill="#19C152"/>
<path fill-rule="evenodd" clip-rule="evenodd" d="M984.099 886.541C978.816 886.5 975.227 891.438 975.191 896.071C975.117 905.454 989.789 913.253 990.056 913.256C990.322 913.258 1005.12 905.691 1005.19 896.307C1005.23 891.674 1001.72 886.68 996.432 886.638C993.399 886.614 991.404 888.115 990.243 889.44C989.104 888.097 987.132 886.565 984.099 886.541Z" fill="#19C152"/>
<path fill-rule="evenodd" clip-rule="evenodd" d="M973.636 981.491C968.353 981.45 964.764 986.388 964.727 991.022C964.653 1000.4 979.326 1008.2 979.592 1008.21C979.859 1008.21 994.652 1000.64 994.726 991.258C994.763 986.624 991.252 981.63 985.969 981.588C982.935 981.565 980.94 983.066 979.78 984.39C978.64 983.048 976.669 981.515 973.636 981.491Z" fill="#19C152"/>
<path fill-rule="evenodd" clip-rule="evenodd" d="M1023.26 846.012C1017.97 845.97 1014.39 850.909 1014.35 855.542C1014.27 864.925 1028.95 872.724 1029.21 872.726C1029.48 872.728 1044.27 865.161 1044.35 855.778C1044.38 851.145 1040.87 846.15 1035.59 846.109C1032.56 846.085 1030.56 847.586 1029.4 848.91C1028.26 847.568 1026.29 846.036 1023.26 846.012Z" fill="#19C152"/>
<path fill-rule="evenodd" clip-rule="evenodd" d="M933.581 1247.09C928.517 1245.58 923.699 1249.33 922.38 1253.78C919.709 1262.77 931.646 1274.33 931.901 1274.41C932.157 1274.48 948.468 1271.31 951.139 1262.32C952.458 1257.87 950.469 1252.1 945.404 1250.6C942.496 1249.74 940.163 1250.62 938.681 1251.58C937.959 1249.97 936.489 1247.95 933.581 1247.09Z" fill="#19C152"/>
<path fill-rule="evenodd" clip-rule="evenodd" d="M809.761 775.318C804.697 773.814 799.88 777.565 798.561 782.006C795.889 791.001 807.826 802.561 808.081 802.637C808.337 802.713 824.648 799.542 827.319 790.547C828.638 786.105 826.649 780.333 821.584 778.829C818.677 777.966 816.344 778.855 814.862 779.806C814.139 778.2 812.669 776.182 809.761 775.318Z" fill="#19C152"/>
<path fill-rule="evenodd" clip-rule="evenodd" d="M901.929 1093.73C896.864 1092.23 892.047 1095.98 890.728 1100.42C888.057 1109.41 899.993 1120.97 900.249 1121.05C900.505 1121.13 916.816 1117.96 919.487 1108.96C920.806 1104.52 918.817 1098.75 913.752 1097.24C910.844 1096.38 908.511 1097.27 907.029 1098.22C906.306 1096.61 904.837 1094.6 901.929 1093.73Z" fill="#19C152"/>
<path fill-rule="evenodd" clip-rule="evenodd" d="M838.723 856.941C833.659 855.437 828.842 859.187 827.523 863.629C824.851 872.624 836.788 884.183 837.043 884.259C837.299 884.335 853.61 881.164 856.281 872.169C857.6 867.727 855.611 861.956 850.546 860.452C847.639 859.588 845.305 860.477 843.823 861.428C843.101 859.823 841.631 857.804 838.723 856.941Z" fill="#19C152"/>
<path fill-rule="evenodd" clip-rule="evenodd" d="M783.472 830.97C778.508 829.159 773.471 832.608 771.883 836.961C768.666 845.776 779.874 858.044 780.124 858.135C780.375 858.227 796.849 856.059 800.065 847.244C801.654 842.891 800.021 837.009 795.058 835.198C792.208 834.158 789.825 834.903 788.288 835.761C787.664 834.115 786.321 832.01 783.472 830.97Z" fill="#19C152"/>
<path fill-rule="evenodd" clip-rule="evenodd" d="M1058.16 1129.69C1053.09 1128.19 1048.27 1131.94 1046.95 1136.38C1044.28 1145.38 1056.22 1156.94 1056.48 1157.01C1056.73 1157.09 1073.04 1153.92 1075.71 1144.92C1077.03 1140.48 1075.04 1134.71 1069.98 1133.21C1067.07 1132.34 1064.74 1133.23 1063.26 1134.18C1062.53 1132.58 1061.06 1130.56 1058.16 1129.69Z" fill="#19C152"/>
</svg>
