<svg width="145" height="116" viewBox="0 0 145 116" fill="none" xmlns="http://www.w3.org/2000/svg">
<path d="M30.4843 0.671962C32.3563 15.616 32.5803 31.952 25.5243 45.808C23.1083 50.336 20.4043 54.56 17.8283 58.832C12.7243 67.264 7.95626 75.904 5.60426 85.504C3.26826 95.088 2.27626 105.088 2.06826 114.944C2.10026 115.888 0.564256 116.112 0.468256 115.024C-0.235744 104.912 0.276256 94.768 2.32426 84.752C4.29226 74.704 9.17226 65.424 14.3723 56.752C16.9323 52.416 19.6523 48.208 22.0043 43.92C26.6123 35.36 28.0843 25.408 28.6923 15.728C29.0123 10.784 29.0603 5.79196 28.9003 0.847961C28.8043 -0.0960386 30.3243 -0.384038 30.4843 0.671962Z" fill="#19C152"/>
<path d="M116.116 0.847956C115.876 15.328 116.196 30.848 123.012 43.92C127.86 52.592 133.7 60.976 137.844 70.16C144.324 84.048 145.444 99.952 144.548 115.024C144.468 115.984 142.948 116.032 142.948 114.944C142.516 100.24 140.948 85.1199 134.372 71.792C130.052 62.768 124.292 54.688 119.492 45.808C117.012 41.2 115.524 36.08 114.628 31.056C112.98 20.912 113.108 10.72 114.532 0.687957C114.676 -0.272043 116.18 -0.192044 116.116 0.847956Z" fill="#19C152"/>
</svg>
