<svg width="140" height="117" viewBox="0 0 140 117" fill="none" xmlns="http://www.w3.org/2000/svg">
<path d="M132.077 0.86032C132.59 10.6349 132.095 20.4461 131.178 30.1472C130.665 35.007 130.243 39.8301 129.326 44.7449C128.519 49.3479 127.731 53.8042 128.629 58.3889C130.335 67.4482 134.846 76.3058 137.157 86.0437C139.376 95.6531 140.641 105.519 139.669 115.459C139.541 116.596 137.762 116.523 137.835 115.294C137.725 105.776 135.8 96.2216 133.269 87.0523C130.683 77.6445 126.025 69.0253 124.1 59.2141C122.541 51.6586 124.998 44.2681 125.915 36.8409L126.924 29.6521C128.226 20.061 129.436 10.4881 130.243 0.823645C130.316 -0.240001 132.022 -0.313358 132.077 0.86032Z" fill="#19C152"/>
<path d="M9.75735 0.825757C10.766 12.8009 12.3981 24.9412 14.0853 36.8246C14.8188 43.0415 16.671 48.9282 16.3776 55.2917C15.4607 66.5517 9.55562 76.4363 6.73146 87.036C4.20072 96.2054 2.29349 105.778 2.16512 115.278C2.25681 116.415 0.477957 116.671 0.331247 115.443C-0.640705 105.503 0.624664 95.6552 2.84365 86.0274C5.15433 76.2896 9.66565 67.432 11.3712 58.3726C12.2697 53.8063 11.4628 49.3317 10.6743 44.7286C8.3636 30.1677 7.26328 15.5701 7.90514 0.825757C7.97849 -0.219549 9.66565 -0.329582 9.75735 0.825757Z" fill="#19C152"/>
</svg>
