<svg width="195" height="116" viewBox="0 0 195 116" fill="none" xmlns="http://www.w3.org/2000/svg">
<path d="M158.335 0.960551L158.389 5.53551C158.389 5.9365 158.08 6.24636 157.679 6.24636C157.278 6.24636 156.968 5.9365 156.968 5.53551C156.968 5.51728 156.968 5.49906 156.968 5.48083V5.4626L157.259 0.924099V0.905872C157.278 0.614241 157.533 0.37729 157.824 0.395517C158.116 0.450198 158.335 0.687147 158.335 0.960551Z" fill="#19C152"/>
<path d="M158.116 15.2874L157.423 25.0023C157.368 25.6403 156.822 26.1324 156.165 26.0777C155.528 26.023 155.035 25.4762 155.09 24.82C155.09 24.8018 155.09 24.8018 155.09 24.7836V24.7471L156.147 15.1233V15.0869C156.202 14.5401 156.694 14.1573 157.241 14.212C157.769 14.2849 158.152 14.7588 158.116 15.2874Z" fill="#19C152"/>
<path d="M156.404 34.6807L155.802 39.5108C155.602 41.1148 155.292 42.7552 155.037 44.3592C154.927 45.0883 154.235 45.5986 153.505 45.471C152.776 45.3434 152.266 44.669 152.394 43.94C152.394 43.94 152.394 43.94 152.394 43.9217L152.412 43.8488C152.685 42.2813 152.995 40.7138 153.214 39.1281L153.888 34.3344V34.3162C153.979 33.6235 154.636 33.1314 155.328 33.2225C156.003 33.3501 156.495 33.9881 156.404 34.6807Z" fill="#19C152"/>
<path d="M153.888 53.7452C153.869 56.7709 154.544 59.8694 155.401 62.9316C155.601 63.6242 155.2 64.335 154.507 64.5355C153.815 64.736 153.104 64.335 152.903 63.6424C151.992 60.4709 151.245 57.1901 151.227 53.7452C151.227 53.0161 151.81 52.4146 152.557 52.3964C153.304 52.3782 153.888 52.9797 153.906 53.727L153.888 53.7452Z" fill="#19C152"/>
<path d="M158.444 72.0281C159.538 75.0719 160.686 78.0976 161.652 81.2326C161.853 81.8706 161.488 82.545 160.85 82.7455C160.23 82.946 159.556 82.5997 159.337 81.9799C158.316 78.9543 157.186 75.9286 156.056 72.9029C155.819 72.2468 156.147 71.5177 156.804 71.2807C157.46 71.0256 158.189 71.3719 158.444 72.0281Z" fill="#19C152"/>
<path d="M164.039 90.7653C164.677 93.9732 165.206 97.1812 165.57 100.444C165.625 100.954 165.26 101.41 164.75 101.464C164.258 101.519 163.82 101.173 163.729 100.681C163.237 97.5092 162.654 94.356 161.925 91.2392C161.797 90.6559 162.144 90.0727 162.727 89.9451C163.31 89.8175 163.893 90.1638 164.021 90.747L164.039 90.7653Z" fill="#19C152"/>
<path d="M166.099 110.212C166.08 111.743 166.026 113.274 165.88 114.823C165.843 115.115 165.588 115.334 165.297 115.297C165.005 115.261 164.805 115.024 164.823 114.751V114.732C164.877 113.256 164.823 111.743 164.75 110.249C164.732 109.866 165.023 109.556 165.388 109.538C165.771 109.519 166.08 109.811 166.099 110.176C166.099 110.194 166.099 110.212 166.099 110.212Z" fill="#19C152"/>
<path d="M36.7798 0.960547L37.0714 5.49905V5.51728C37.0897 5.90004 36.798 6.24635 36.4153 6.26458C36.0325 6.28281 35.6862 5.99118 35.668 5.60841C35.668 5.59019 35.668 5.57196 35.668 5.55373L35.7226 0.978774C35.7226 0.687143 35.9778 0.450195 36.2695 0.450195C36.5246 0.450195 36.7616 0.668916 36.7798 0.960547Z" fill="#19C152"/>
<path d="M37.8907 15.1223L38.9479 24.7461V24.7826C39.0208 25.4205 38.5469 26.0038 37.909 26.0767C37.271 26.1496 36.6878 25.6757 36.6148 25.0378C36.6148 25.0195 36.6148 25.0013 36.6148 25.0013L35.9222 15.2864C35.8858 14.7396 36.2868 14.2657 36.8336 14.2292C37.3621 14.1928 37.8178 14.5755 37.8907 15.1041V15.1223Z" fill="#19C152"/>
<path d="M40.1694 34.3531L40.8256 39.1468C41.0443 40.7508 41.3724 42.3 41.6276 43.8676L41.6458 43.9222C41.7734 44.6513 41.2812 45.3439 40.5522 45.4715C39.8231 45.5991 39.1305 45.107 39.0029 44.3779V44.3597C38.7477 42.7375 38.4561 41.1153 38.2373 39.5113L37.6359 34.6812C37.5447 33.9886 38.0369 33.3506 38.7477 33.2595C39.4403 33.1684 40.06 33.6423 40.1694 34.3531Z" fill="#19C152"/>
<path d="M42.8129 53.7286C42.7947 57.1917 42.0474 60.4726 41.1361 63.6258C40.9356 64.3184 40.2247 64.7194 39.5321 64.5189C38.8395 64.3184 38.4567 63.6076 38.639 62.915C39.4956 59.8711 40.1518 56.7725 40.1518 53.7286V53.7104C40.1518 52.9813 40.7533 52.3798 41.4824 52.3616C42.2115 52.3798 42.8129 52.9813 42.8129 53.7286Z" fill="#19C152"/>
<path d="M37.9635 72.9019C36.8334 75.9458 35.7034 78.9532 34.6826 81.9789C34.4639 82.6168 33.7713 82.9449 33.1516 82.7444C32.5319 82.5257 32.1856 81.8695 32.3861 81.2316C33.3521 78.0965 34.5004 75.0709 35.594 72.027C35.8309 71.3708 36.56 71.0245 37.2162 71.2614C37.8724 71.5166 38.2004 72.2275 37.9635 72.9019Z" fill="#19C152"/>
<path d="M32.113 91.2207C31.3839 94.3375 30.8006 97.4908 30.3085 100.662C30.2356 101.173 29.7617 101.519 29.2513 101.428C28.7592 101.355 28.4129 100.899 28.4676 100.407C28.8139 97.1627 29.3607 93.9365 29.9987 90.7286C30.108 90.1453 30.6913 89.7626 31.2745 89.8719C31.8578 89.9813 32.2406 90.5645 32.1312 91.1478C32.113 91.2025 32.113 91.2207 32.113 91.2207Z" fill="#19C152"/>
<path d="M29.3058 110.249C29.2329 111.743 29.1782 113.274 29.2329 114.733V114.751C29.2511 115.042 29.0142 115.298 28.7226 115.316C28.4309 115.334 28.194 115.115 28.1758 114.842C28.0117 113.274 27.957 111.762 27.957 110.23C27.957 109.848 28.2669 109.538 28.6314 109.538C29.0142 109.538 29.3241 109.848 29.3241 110.212C29.3058 110.212 29.3058 110.23 29.3058 110.249Z" fill="#19C152"/>
<path d="M19.9741 114.987C20.9948 100.679 20.9584 85.9515 16.2012 72.3724C7.37933 49.607 -1.91639 25.7297 0.343743 0.831724C0.416651 -0.280119 2.16644 -0.298344 2.16644 0.904633C2.43984 20.4986 8.25423 38.9989 15.3263 57.08C18.8987 66.2299 22.9087 75.7261 23.6195 85.6598C24.5491 95.6482 23.7836 105.6 21.7786 115.297C21.5234 116.372 19.8283 116.153 19.9741 114.987Z" fill="#C51616"/>
<path d="M172.969 115.297C170.053 100.77 169.433 85.1496 174.245 70.8597C182.721 48.1307 192.418 25.5658 192.582 0.904752C192.563 -0.207091 194.331 -0.352907 194.404 0.831842C195.516 15.6139 193.238 30.6693 188.535 44.7223C184.635 58.757 177.143 71.5887 175.266 86.1156C174.008 95.5571 173.99 105.345 174.774 114.969C174.92 116.081 173.206 116.445 172.969 115.297Z" fill="#C51616"/>
</svg>
