<svg width="150" height="116" viewBox="0 0 150 116" fill="none" xmlns="http://www.w3.org/2000/svg">
<path d="M136.57 0.839354L136.625 5.43321C136.625 5.83586 136.314 6.147 135.911 6.147C135.508 6.147 135.197 5.83586 135.197 5.43321C135.197 5.41491 135.197 5.39661 135.197 5.3783V5.36L135.49 0.802752V0.784449C135.508 0.491614 135.765 0.253684 136.057 0.271986C136.35 0.326893 136.57 0.56482 136.57 0.839354Z" fill="#19C152"/>
<path d="M136.351 15.2257L135.656 24.9808C135.601 25.6213 135.052 26.1155 134.393 26.0606C133.734 26.0057 133.258 25.4566 133.313 24.7977C133.313 24.7794 133.313 24.7794 133.313 24.7611V24.7245L134.374 15.061V15.0243C134.429 14.4753 134.923 14.0909 135.473 14.1458C136.003 14.2191 136.388 14.6949 136.351 15.2257Z" fill="#19C152"/>
<path d="M134.63 34.6973L134.026 39.5473C133.825 41.1579 133.514 42.8051 133.257 44.4157C133.148 45.1478 132.452 45.6603 131.72 45.5322C130.988 45.4041 130.476 44.7269 130.604 43.9948C130.604 43.9948 130.604 43.9948 130.604 43.9765L130.622 43.9033C130.896 42.3293 131.208 40.7553 131.427 39.163L132.104 34.3495V34.3312C132.196 33.6357 132.855 33.1416 133.55 33.2331C134.227 33.3612 134.722 34.0018 134.63 34.6973Z" fill="#19C152"/>
<path d="M132.105 53.8439C132.086 56.882 132.764 59.9934 133.624 63.0682C133.825 63.7637 133.422 64.4775 132.727 64.6788C132.032 64.8801 131.318 64.4774 131.116 63.782C130.201 60.5974 129.451 57.303 129.433 53.8439C129.433 53.1118 130.018 52.5078 130.769 52.4895C131.501 52.4895 132.105 53.0752 132.123 53.8256L132.105 53.8439Z" fill="#19C152"/>
<path d="M136.681 72.1987C137.779 75.2552 138.932 78.2934 139.902 81.4413C140.103 82.0819 139.737 82.7591 139.097 82.9604C138.474 83.1617 137.797 82.814 137.578 82.1917C136.553 79.1536 135.418 76.1154 134.283 73.0772C134.045 72.4183 134.375 71.6863 135.034 71.4483C135.693 71.1921 136.425 71.5398 136.681 72.1987Z" fill="#19C152"/>
<path d="M142.299 91.0129C142.94 94.2341 143.47 97.4553 143.836 100.731C143.891 101.244 143.525 101.701 143.013 101.756C142.519 101.811 142.079 101.463 141.988 100.969C141.494 97.7847 140.908 94.6185 140.176 91.4888C140.048 90.9031 140.396 90.3174 140.981 90.1893C141.567 90.0612 142.153 90.4089 142.281 90.9946L142.299 91.0129Z" fill="#19C152"/>
<path d="M144.367 110.544C144.349 112.082 144.294 113.619 144.147 115.175C144.111 115.467 143.854 115.687 143.562 115.651C143.269 115.614 143.067 115.376 143.086 115.101V115.083C143.141 113.601 143.086 112.082 143.013 110.581C142.994 110.196 143.287 109.885 143.653 109.867C144.037 109.849 144.349 110.142 144.367 110.508C144.367 110.526 144.367 110.544 144.367 110.544Z" fill="#19C152"/>
<path d="M14.511 0.84205L14.8038 5.3993V5.4176C14.8221 5.80195 14.5293 6.14969 14.1449 6.16799C13.7606 6.1863 13.4128 5.89346 13.3945 5.50912C13.3945 5.49081 13.3945 5.47251 13.3945 5.45421L13.4494 0.860352C13.4494 0.567517 13.7057 0.32959 13.9985 0.32959C14.2547 0.32959 14.4927 0.549214 14.511 0.84205Z" fill="#19C152"/>
<path d="M15.6274 15.0628L16.6889 24.7264V24.763C16.7621 25.4035 16.2863 25.9892 15.6457 26.0624C15.0051 26.1356 14.4194 25.6598 14.3462 25.0192C14.3462 25.0009 14.3462 24.9826 14.3462 24.9826L13.6507 15.2275C13.6141 14.6784 14.0168 14.2026 14.5659 14.166C15.0966 14.1294 15.5542 14.5137 15.6274 15.0445V15.0628Z" fill="#19C152"/>
<path d="M17.9162 34.3721L18.5751 39.1856C18.7947 40.7962 19.1242 42.3518 19.3804 43.9258L19.3987 43.9807C19.5268 44.7128 19.0327 45.4083 18.3006 45.5364C17.5685 45.6645 16.873 45.1704 16.7449 44.4383V44.42C16.4887 42.7911 16.1958 41.1622 15.9762 39.5516L15.3722 34.7015C15.2807 34.006 15.7749 33.3655 16.4887 33.2739C17.1841 33.1824 17.8064 33.6583 17.9162 34.3721Z" fill="#19C152"/>
<path d="M20.5706 53.8277C20.5523 57.3052 19.8019 60.5996 18.8868 63.7658C18.6855 64.4613 17.9717 64.864 17.2762 64.6627C16.5807 64.4613 16.1964 63.7475 16.3794 63.0521C17.2396 59.9956 17.8985 56.8842 17.8985 53.8277V53.8094C17.8985 53.0774 18.5025 52.4734 19.2345 52.4551C19.9666 52.4734 20.5706 53.0774 20.5706 53.8277Z" fill="#19C152"/>
<path d="M15.7016 73.0801C14.5669 76.1366 13.4321 79.1564 12.4072 82.1946C12.1876 82.8352 11.4921 83.1646 10.8698 82.9633C10.2475 82.7437 9.89981 82.0848 10.1011 81.4442C11.0711 78.2962 12.2242 75.2581 13.3223 72.2016C13.5602 71.5427 14.2923 71.195 14.9512 71.4329C15.6101 71.6891 15.9395 72.4029 15.7016 73.0801Z" fill="#19C152"/>
<path d="M9.82532 91.4729C9.09323 94.6026 8.50756 97.7689 8.0134 100.953C7.94019 101.466 7.46434 101.814 6.95187 101.722C6.45772 101.649 6.10997 101.191 6.16488 100.697C6.51262 97.4395 7.06169 94.2 7.70227 90.9788C7.81208 90.3931 8.39775 90.0088 8.98342 90.1186C9.56909 90.2284 9.95344 90.8141 9.84362 91.3997C9.82532 91.4546 9.82532 91.4729 9.82532 91.4729Z" fill="#19C152"/>
<path d="M7.00769 110.581C6.93448 112.082 6.87957 113.619 6.93448 115.084V115.102C6.95278 115.395 6.71485 115.651 6.42201 115.669C6.12918 115.688 5.89125 115.468 5.87295 115.193C5.70823 113.619 5.65332 112.1 5.65332 110.563C5.65332 110.179 5.96446 109.867 6.3305 109.867C6.71485 109.867 7.02599 110.179 7.02599 110.545C7.00768 110.545 7.00769 110.563 7.00769 110.581Z" fill="#19C152"/>
<path d="M9.38918 0.822007C10.5239 20.0027 10.6886 39.1468 10.286 58.3459C8.96822 77.5266 4.24626 96.1765 1.83036 115.193C1.72055 116.291 -0.0181587 116.254 0.000143468 115.064C0.238072 95.9569 4.53909 77.0141 5.71043 58.0713C5.87515 39.1102 5.98496 19.7831 7.55896 0.840306C7.61386 -0.221222 9.31597 -0.331032 9.38918 0.822007Z" fill="#F4B718"/>
<path d="M142.373 0.856284C143.947 19.7991 144.057 39.1262 144.222 58.0873C145.393 77.0301 149.694 95.9546 149.932 115.08C149.969 116.179 148.23 116.38 148.102 115.209C145.686 96.1925 140.964 77.5425 139.646 58.3618C139.225 48.8996 139.518 39.0164 139.573 29.5542C139.72 20.0004 139.774 10.4466 140.525 0.837982C140.616 -0.260151 142.318 -0.296755 142.373 0.856284Z" fill="#F4B718"/>
</svg>
