<svg width="159" height="115" viewBox="0 0 159 115" fill="none" xmlns="http://www.w3.org/2000/svg">
<path d="M37.4503 0.717514L38.1497 8.68125C38.1815 9.06275 37.8953 9.39655 37.5139 9.42835C37.1324 9.46014 36.7985 9.17402 36.7668 8.79252C36.7668 8.77662 36.7668 8.76073 36.7668 8.76073V8.71304L36.5283 0.812887V0.765201C36.5283 0.51087 36.7191 0.28833 36.9734 0.28833C37.2277 0.28833 37.4344 0.479079 37.4503 0.717514Z" fill="#19C152"/>
<path d="M38.2775 16.6768L37.8006 24.6882C37.7688 25.2286 37.3079 25.6419 36.7674 25.6101C36.227 25.5783 35.8137 25.1174 35.8455 24.5769C35.8455 24.561 35.8455 24.561 35.8455 24.5451V24.4656L36.5449 16.6132V16.5496C36.5926 16.0727 37.0059 15.723 37.4827 15.7707C37.9596 15.8025 38.3093 16.2158 38.2775 16.6768Z" fill="#19C152"/>
<path d="M36.5927 32.6517C36.0205 35.2904 35.2893 37.8972 34.3037 40.4405C34.0812 41.0128 33.4295 41.3148 32.8413 41.0923C32.2532 40.8697 31.9671 40.218 32.1896 39.6299V39.614C33.1433 37.2137 33.8745 34.7181 34.4468 32.1748C34.574 31.5867 35.1621 31.2211 35.7502 31.3482C36.3384 31.4913 36.704 32.0635 36.5927 32.6517Z" fill="#19C152"/>
<path d="M30.7114 47.7049L26.6263 54.556C26.2924 55.1123 25.5612 55.3031 25.0049 54.9692C24.4485 54.6354 24.2578 53.9042 24.5916 53.3479L24.6075 53.332L28.6927 46.5604L28.7086 46.5286C29.0424 45.9723 29.7577 45.7974 30.3141 46.1312C30.8545 46.4492 31.0453 47.1486 30.7114 47.7049Z" fill="#19C152"/>
<path d="M22.5254 61.3277L18.7105 68.2264L18.6787 68.29C18.3767 68.8304 17.6931 69.0212 17.1527 68.7351C16.6122 68.4331 16.4215 67.7654 16.7076 67.225L20.5226 60.1832C20.8246 59.6269 21.524 59.4202 22.0803 59.7222C22.6367 60.0242 22.8433 60.7236 22.5413 61.28V61.2959L22.5254 61.3277Z" fill="#19C152"/>
<path d="M15.4198 75.3476C14.4502 77.7797 13.5759 80.2276 12.9083 82.7391C12.7653 83.2796 12.2089 83.5975 11.6685 83.4544C11.1439 83.3114 10.8101 82.7709 10.9531 82.2305C11.589 79.6077 12.3997 77.0326 13.4011 74.537C13.6236 73.9806 14.2595 73.7104 14.8158 73.9329C15.3721 74.1555 15.6424 74.7913 15.4198 75.3476Z" fill="#19C152"/>
<path d="M11.2241 90.4327L10.1114 98.2375V98.2852C10.0479 98.7303 9.63458 99.0323 9.1895 98.9687C8.76032 98.9051 8.4424 98.5077 8.49009 98.0785L9.41204 90.1307C9.47562 89.622 9.9207 89.2723 10.4294 89.32C10.938 89.3677 11.2877 89.8287 11.24 90.3373V90.3532L11.2241 90.4327Z" fill="#19C152"/>
<path d="M9.44336 106.122L9.22083 114.038V114.069C9.22083 114.324 8.99829 114.53 8.72806 114.53C8.47373 114.53 8.26708 114.324 8.26708 114.069L8.12402 106.074C8.12402 105.708 8.41015 105.406 8.77575 105.406C9.14135 105.406 9.44336 105.692 9.44336 106.058C9.44336 106.074 9.44336 106.074 9.44336 106.09V106.122Z" fill="#19C152"/>
<path d="M122.525 0.828705L122.287 8.72886V8.77655C122.271 9.15804 121.953 9.46006 121.572 9.44416C121.19 9.42827 120.888 9.11035 120.904 8.72886C120.904 8.71296 120.904 8.69707 120.904 8.69707L121.603 0.733331C121.619 0.479 121.858 0.288252 122.112 0.304148C122.366 0.320044 122.541 0.542584 122.541 0.781019L122.525 0.828705Z" fill="#19C152"/>
<path d="M122.51 16.613L123.209 24.4655V24.545C123.257 25.0854 122.86 25.5623 122.319 25.61C121.779 25.6577 121.302 25.2603 121.254 24.7198C121.254 24.7039 121.254 24.7039 121.254 24.688L120.777 16.6766C120.746 16.1997 121.111 15.7865 121.588 15.7706C122.049 15.7388 122.462 16.0885 122.494 16.5494L122.51 16.613Z" fill="#19C152"/>
<path d="M124.592 32.1751C125.164 34.7184 125.895 37.214 126.849 39.6143C127.071 40.1865 126.801 40.8542 126.213 41.0767C125.641 41.2992 124.973 41.029 124.751 40.4409V40.425C123.765 37.8817 123.034 35.2748 122.462 32.6361C122.335 32.0479 122.7 31.4757 123.288 31.3485C123.876 31.2373 124.465 31.6029 124.592 32.1751Z" fill="#19C152"/>
<path d="M130.363 46.5449L134.448 53.3164L134.464 53.3323C134.798 53.8887 134.623 54.6199 134.066 54.9537C133.51 55.2875 132.779 55.1126 132.445 54.5563L128.36 47.7052C128.026 47.1489 128.217 46.4336 128.757 46.0998C129.314 45.766 130.029 45.9567 130.363 46.4972V46.5449Z" fill="#19C152"/>
<path d="M138.517 60.1673L142.332 67.2091C142.634 67.7496 142.427 68.4331 141.887 68.7192C141.346 69.0053 140.679 68.8146 140.377 68.2741L140.345 68.2105L136.53 61.3118L136.498 61.2641C136.196 60.7078 136.387 60.0084 136.943 59.7064C137.516 59.4043 138.215 59.611 138.517 60.1673Z" fill="#19C152"/>
<path d="M145.653 74.5528C146.655 77.0485 147.465 79.6395 148.101 82.2463C148.228 82.7868 147.911 83.3432 147.37 83.4703C146.83 83.5975 146.289 83.2796 146.146 82.755C145.478 80.2435 144.604 77.7797 143.635 75.3635C143.412 74.8072 143.682 74.1713 144.239 73.9488C144.795 73.7104 145.431 73.9965 145.653 74.5528Z" fill="#19C152"/>
<path d="M149.643 90.1306L150.565 98.0785C150.613 98.5235 150.295 98.9209 149.85 98.9845C149.405 99.0322 149.007 98.7302 148.96 98.301V98.2533L147.847 90.4485L147.831 90.385C147.767 89.8922 148.101 89.4153 148.61 89.3517C149.103 89.2882 149.58 89.622 149.643 90.1306Z" fill="#19C152"/>
<path d="M150.931 106.074L150.788 114.07C150.788 114.324 150.565 114.531 150.311 114.531C150.057 114.531 149.85 114.324 149.85 114.07V114.022L149.628 106.106V106.058C149.612 105.693 149.898 105.391 150.263 105.391C150.629 105.375 150.931 105.661 150.931 106.026C150.931 106.058 150.931 106.058 150.931 106.074Z" fill="#19C152"/>
<path d="M10.762 0.796973C11.0163 19.84 10.8256 38.8512 8.77505 57.8307C7.8531 66.0487 6.32711 77.7639 5.34158 86.0773C4.21299 95.5034 2.97312 104.93 1.5902 114.324C1.52662 114.753 1.12922 115.055 0.684144 114.992C0.270856 114.928 -0.015265 114.562 0.000630687 114.149C1.16102 95.2173 2.63931 76.222 4.78523 57.3856C6.70861 38.581 7.36033 19.5857 9.17244 0.73339C9.20423 0.288311 9.60162 -0.0296024 10.0308 0.00218896C10.4441 0.0657717 10.7461 0.399581 10.762 0.796973Z" fill="#C51616"/>
<path d="M149.435 0.749104C151.248 19.6014 151.899 38.6126 153.823 57.4013C154.856 66.7957 155.873 76.3013 156.541 85.7592C157.336 95.2171 158.051 104.675 158.591 114.149C158.671 115.103 157.161 115.341 157.018 114.324C154.983 100.781 153.219 85.6479 151.55 71.9618C149.61 57.8464 148.291 43.5085 148.005 29.2977C147.703 19.7921 147.655 10.3024 147.846 0.780896C147.862 -0.093366 149.308 -0.315906 149.435 0.749104Z" fill="#C51616"/>
</svg>
