<svg width="157" height="117" viewBox="0 0 157 117" fill="none" xmlns="http://www.w3.org/2000/svg">
<path d="M35.8459 0.702051L36.5535 8.75939C36.5857 9.14536 36.2962 9.4831 35.9102 9.51526C35.5242 9.54743 35.1865 9.25794 35.1543 8.87196C35.1543 8.85588 35.1543 8.8398 35.1543 8.8398V8.79155L34.9131 0.798545V0.750298C34.9131 0.492978 35.1061 0.267822 35.3634 0.267822C35.6207 0.267822 35.8298 0.460813 35.8459 0.702051Z" fill="#19C152"/>
<path d="M36.6821 16.8488L36.1996 24.9544C36.1674 25.5012 35.7011 25.9194 35.1542 25.8872C34.6074 25.855 34.1893 25.3886 34.2215 24.8418C34.2215 24.8258 34.2215 24.8258 34.2215 24.8097V24.7293L34.9291 16.7845V16.7202C34.9773 16.2377 35.3955 15.8839 35.878 15.9321C36.3604 15.9643 36.7143 16.3824 36.6821 16.8488Z" fill="#19C152"/>
<path d="M34.9784 33.0118C34.3994 35.6815 33.6596 38.319 32.6625 40.8922C32.4373 41.4712 31.7779 41.7767 31.1829 41.5516C30.5878 41.3264 30.2983 40.667 30.5235 40.072V40.0559C31.4884 37.6274 32.2282 35.1025 32.8072 32.5293C32.9359 31.9342 33.5309 31.5643 34.126 31.693C34.721 31.8377 35.0909 32.4167 34.9784 33.0118Z" fill="#19C152"/>
<path d="M29.0265 48.242L24.8933 55.1736C24.5556 55.7365 23.8158 55.9294 23.2529 55.5917C22.69 55.254 22.497 54.5142 22.8348 53.9513L22.8508 53.9352L26.984 47.0841L27.0001 47.0519C27.3379 46.489 28.0616 46.3121 28.6245 46.6498C29.1713 46.9715 29.3643 47.6791 29.0265 48.242Z" fill="#19C152"/>
<path d="M20.7438 62.0245L16.884 69.0043L16.8518 69.0686C16.5463 69.6154 15.8547 69.8084 15.3079 69.5189C14.7611 69.2133 14.5681 68.5379 14.8576 67.9911L18.7174 60.8665C19.023 60.3036 19.7306 60.0946 20.2935 60.4001C20.8564 60.7057 21.0654 61.4133 20.7599 61.9762V61.9923L20.7438 62.0245Z" fill="#19C152"/>
<path d="M13.5548 76.2094C12.5737 78.67 11.6892 81.1467 11.0137 83.6878C10.869 84.2346 10.3061 84.5562 9.75928 84.4115C9.22856 84.2668 8.89083 83.72 9.03557 83.1731C9.67887 80.5195 10.4991 77.9142 11.5123 75.3892C11.7374 74.8263 12.3807 74.5529 12.9436 74.7781C13.5065 75.0032 13.7799 75.6465 13.5548 76.2094Z" fill="#19C152"/>
<path d="M9.30907 91.4717L8.18329 99.3682V99.4165C8.11896 99.8668 7.70082 100.172 7.25051 100.108C6.81628 100.044 6.49463 99.6416 6.54288 99.2074L7.47566 91.1661C7.53999 90.6515 7.99031 90.2977 8.50495 90.3459C9.01959 90.3942 9.3734 90.8606 9.32515 91.3752V91.3913L9.30907 91.4717Z" fill="#19C152"/>
<path d="M7.50868 107.345L7.28352 115.354V115.386C7.28352 115.643 7.05837 115.852 6.78496 115.852C6.52764 115.852 6.31857 115.643 6.31857 115.386L6.17383 107.297C6.17383 106.927 6.46331 106.621 6.83321 106.621C7.20311 106.621 7.50868 106.911 7.50868 107.28C7.50868 107.297 7.50868 107.297 7.50868 107.313V107.345Z" fill="#19C152"/>
<path d="M121.92 0.814862L121.679 8.80786V8.85611C121.663 9.24209 121.341 9.54766 120.955 9.53158C120.569 9.5155 120.264 9.19384 120.28 8.80786C120.28 8.79178 120.28 8.7757 120.28 8.7757L120.988 0.718366C121.004 0.461046 121.245 0.268057 121.502 0.284139C121.759 0.300222 121.936 0.525377 121.936 0.766615L121.92 0.814862Z" fill="#19C152"/>
<path d="M121.904 16.7846L122.612 24.7293V24.8097C122.66 25.3566 122.258 25.839 121.711 25.8873C121.165 25.9355 120.682 25.5335 120.634 24.9867C120.634 24.9706 120.634 24.9706 120.634 24.9545L120.151 16.8489C120.119 16.3664 120.489 15.9483 120.972 15.9322C121.438 15.9 121.856 16.2539 121.888 16.7202L121.904 16.7846Z" fill="#19C152"/>
<path d="M124.011 32.5295C124.59 35.1027 125.329 37.6277 126.294 40.0562C126.52 40.6351 126.246 41.3106 125.651 41.5357C125.072 41.7609 124.397 41.4875 124.171 40.8924V40.8764C123.174 38.3032 122.435 35.6656 121.856 32.9959C121.727 32.4009 122.097 31.8219 122.692 31.6933C123.287 31.5807 123.882 31.9506 124.011 32.5295Z" fill="#19C152"/>
<path d="M129.849 47.0681L133.982 53.9193L133.998 53.9354C134.336 54.4983 134.159 55.2381 133.596 55.5758C133.033 55.9135 132.294 55.7366 131.956 55.1737L127.823 48.2422C127.485 47.6793 127.678 46.9556 128.225 46.6178C128.788 46.2801 129.511 46.4731 129.849 47.0199V47.0681Z" fill="#19C152"/>
<path d="M138.1 60.8509L141.96 67.9754C142.265 68.5222 142.056 69.2138 141.509 69.5033C140.963 69.7928 140.287 69.5998 139.982 69.053L139.949 68.9886L136.09 62.0088L136.057 61.9606C135.752 61.3977 135.945 60.6901 136.508 60.3845C137.087 60.0789 137.794 60.288 138.1 60.8509Z" fill="#19C152"/>
<path d="M145.321 75.4057C146.334 77.9306 147.154 80.5521 147.797 83.1896C147.926 83.7364 147.604 84.2993 147.057 84.4279C146.511 84.5566 145.964 84.235 145.819 83.7042C145.144 81.1632 144.259 78.6704 143.278 76.2259C143.053 75.663 143.326 75.0197 143.889 74.7945C144.452 74.5533 145.095 74.8428 145.321 75.4057Z" fill="#19C152"/>
<path d="M149.359 91.1665L150.292 99.2077C150.34 99.658 150.018 100.06 149.568 100.124C149.118 100.173 148.716 99.8671 148.667 99.4329V99.3846L147.542 91.4881L147.525 91.4238C147.461 90.9253 147.799 90.4428 148.313 90.3784C148.812 90.3141 149.294 90.6518 149.359 91.1665Z" fill="#19C152"/>
<path d="M150.66 107.298L150.515 115.387C150.515 115.644 150.29 115.853 150.033 115.853C149.776 115.853 149.567 115.644 149.567 115.387V115.339L149.341 107.33V107.281C149.325 106.912 149.615 106.606 149.985 106.606C150.355 106.606 150.66 106.879 150.66 107.249C150.66 107.281 150.66 107.281 150.66 107.298Z" fill="#19C152"/>
<path d="M29.751 0.814474C29.0594 15.8194 27.0813 31.2265 20.5035 44.9609C14.0223 58.1647 8.3934 72.0439 4.67834 86.2126C2.55545 95.7173 2.13731 105.705 2.78061 115.434C2.90927 116.383 1.38143 116.753 1.18844 115.66C-0.387644 105.737 -0.468055 95.5726 1.38143 85.5371C3.45608 75.6142 6.72082 66.1577 10.5967 56.8459C14.2635 47.6467 19.5868 39.316 22.1439 29.6504C24.9101 20.2261 26.7275 10.4479 28.1266 0.717978C28.2392 -0.246972 29.7831 -0.263054 29.751 0.814474Z" fill="#F4B718"/>
<path d="M128.69 0.701908C130.925 15.1279 133.434 30.0042 139.915 43.1758C151.044 65.4661 160.308 90.4744 155.644 115.676C155.483 116.641 153.939 116.512 154.052 115.451C154.39 110.561 154.438 105.608 154.132 100.719C153.489 85.8909 148.085 72.0278 142.489 58.4059C138.677 49.1907 133.37 40.3774 131.15 30.6154C128.658 20.805 127.451 10.8339 127.082 0.814485C127.049 -0.150465 128.577 -0.343455 128.69 0.701908Z" fill="#F4B718"/>
</svg>
