<svg width="141" height="117" viewBox="0 0 141 117" fill="none" xmlns="http://www.w3.org/2000/svg">
<path d="M132.483 0.85739C132.997 10.6319 132.501 20.4431 131.585 30.1443C131.071 35.0041 130.649 39.8272 129.732 44.7419C128.925 49.345 128.137 53.8013 129.035 58.3859C130.741 67.4453 135.252 76.3029 137.563 86.0407C139.782 95.6502 141.047 105.516 140.075 115.456C139.947 116.593 138.168 116.52 138.242 115.291C138.131 105.773 136.206 96.2187 133.675 87.0493C131.089 77.6416 126.431 69.0224 124.506 59.2112C122.947 51.6556 125.404 44.2651 126.321 36.8379L127.33 29.6492C128.632 20.058 129.842 10.4852 130.649 0.820715C130.723 -0.24293 132.428 -0.316288 132.483 0.85739Z" fill="#797C8B"/>
<path d="M9.75735 0.825757C10.766 12.8009 12.3981 24.9412 14.0853 36.8246C14.8188 43.0415 16.671 48.9282 16.3776 55.2917C15.4607 66.5517 9.55562 76.4363 6.73146 87.036C4.20072 96.2054 2.29349 105.778 2.16512 115.278C2.25681 116.415 0.477957 116.671 0.331247 115.443C-0.640705 105.503 0.624664 95.6552 2.84365 86.0274C5.15433 76.2896 9.66565 67.432 11.3712 58.3726C12.2697 53.8063 11.4628 49.3317 10.6743 44.7286C8.3636 30.1677 7.26328 15.5701 7.90514 0.825757C7.97849 -0.219549 9.66565 -0.329582 9.75735 0.825757Z" fill="#797C8B"/>
</svg>
