<svg width="20" height="20" viewBox="0 0 20 20" fill="none" xmlns="http://www.w3.org/2000/svg">
<path fill-rule="evenodd" clip-rule="evenodd" d="M10 1.75C5.44321 1.75 1.75 5.44321 1.75 10C1.75 14.5568 5.44321 18.25 10 18.25C14.5568 18.25 18.25 14.5568 18.25 10C18.25 5.44321 14.5568 1.75 10 1.75ZM0.25 10C0.25 4.61479 4.61479 0.25 10 0.25C15.3852 0.25 19.75 4.61479 19.75 10C19.75 15.3852 15.3852 19.75 10 19.75C4.61479 19.75 0.25 15.3852 0.25 10Z" fill="#B1B3C0"/>
<path fill-rule="evenodd" clip-rule="evenodd" d="M8.25 10C8.25 9.58579 8.58579 9.25 9 9.25H10C10.4142 9.25 10.75 9.58579 10.75 10V15C10.75 15.4142 10.4142 15.75 10 15.75C9.58579 15.75 9.25 15.4142 9.25 15V10.75H9C8.58579 10.75 8.25 10.4142 8.25 10Z" fill="#B1B3C0"/>
<path fill-rule="evenodd" clip-rule="evenodd" d="M8.75 6.25272C8.74745 5.69648 9.19874 5.25 9.749 5.25C10.3003 5.25 10.75 5.69584 10.75 6.25C10.75 6.80221 10.3022 7.25 9.75 7.25C9.19869 7.25 8.75147 6.80368 8.75 6.25272ZM9.04286 6.25331L8.75002 6.25543C8.75001 6.25453 8.75001 6.25362 8.75 6.25272C8.75 6.25181 8.75 6.25091 8.75 6.25H9.04168C9.04207 6.25111 9.04246 6.25221 9.04286 6.25331ZM9.25 6.25181L9.04286 6.25331C9.14674 6.54288 9.42369 6.75 9.749 6.75C9.47633 6.75 9.25098 6.52913 9.25 6.25181ZM9.25 6.25H9.5L9.2518 6.2518L9.25 6.25181C9.25 6.25121 9.25 6.2506 9.25 6.25ZM9.25 6.25C9.25 5.97412 9.47325 5.75054 9.749 5.75C9.74867 5.75 9.74933 5.75 9.749 5.75C10.0234 5.75 10.2471 5.97086 10.25 6.24457C10.25 6.24637 10.25 6.24819 10.25 6.25C10.2491 6.5286 10.0219 6.74946 9.749 6.75M9.25 6.25H9.04168H9.25Z" fill="#B1B3C0"/>
<path d="M9.25 6.25181L9.04286 6.25331C9.14674 6.54288 9.42369 6.75 9.749 6.75C9.47633 6.75 9.25098 6.52913 9.25 6.25181Z" fill="#B1B3C0"/>
<path d="M9.25 6.25H9.5L9.2518 6.2518L9.749 6.75C10.0219 6.74946 10.2491 6.5286 10.25 6.25L10.25 6.24457C10.2471 5.97086 10.0234 5.75 9.749 5.75C9.47325 5.75054 9.25 5.97412 9.25 6.25Z" fill="#B1B3C0"/>
</svg>
