<svg width="101" height="90" viewBox="0 0 101 90" fill="none" xmlns="http://www.w3.org/2000/svg">
<g clip-path="url(#clip0_3513_47019)">
<mask id="mask0_3513_47019" style="mask-type:luminance" maskUnits="userSpaceOnUse" x="0" y="0" width="101" height="88">
<path d="M71.1069 0.0164265C88.7945 0.0164265 100.643 16.3302 100.643 31.6137C100.643 62.5241 51.3586 87.9393 50.5 87.9393C49.6413 87.9393 0.356445 62.5241 0.356445 31.6137C0.356445 16.3302 12.2054 0.0164265 29.893 0.0164265C33.8136 -0.0376308 37.697 0.781917 41.2613 2.41558C44.8257 4.04925 47.9816 6.45604 50.5 9.46127C53.0183 6.45604 56.1742 4.04925 59.7386 2.41558C63.303 0.781917 67.1863 -0.0376308 71.1069 0.0164265Z" fill="white"/>
</mask>
<g mask="url(#mask0_3513_47019)">
<path fill-rule="evenodd" clip-rule="evenodd" d="M71.1069 0.0164265C88.7945 0.0164265 100.643 16.3302 100.643 31.6137C100.643 62.5241 51.3586 87.9393 50.5 87.9393C49.6413 87.9393 0.356445 62.5241 0.356445 31.6137C0.356445 16.3302 12.2054 0.0164265 29.893 0.0164265C33.8136 -0.0376308 37.697 0.781917 41.2613 2.41558C44.8257 4.04925 47.9816 6.45604 50.5 9.46127C53.0183 6.45604 56.1742 4.04925 59.7386 2.41558C63.303 0.781917 67.1863 -0.0376308 71.1069 0.0164265Z" fill="url(#paint0_linear_3513_47019)"/>
<mask id="mask1_3513_47019" style="mask-type:luminance" maskUnits="userSpaceOnUse" x="0" y="0" width="101" height="88">
<path d="M71.1069 0.0164265C88.7945 0.0164265 100.643 16.3302 100.643 31.6137C100.643 62.5241 51.3586 87.9393 50.5 87.9393C49.6413 87.9393 0.356445 62.5241 0.356445 31.6137C0.356445 16.3302 12.2054 0.0164265 29.893 0.0164265C33.8136 -0.0376308 37.697 0.781917 41.2613 2.41558C44.8257 4.04925 47.9816 6.45604 50.5 9.46127C53.0183 6.45604 56.1742 4.04925 59.7386 2.41558C63.303 0.781917 67.1863 -0.0376308 71.1069 0.0164265Z" fill="white"/>
</mask>
<g mask="url(#mask1_3513_47019)">
<mask id="mask2_3513_47019" style="mask-type:luminance" maskUnits="userSpaceOnUse" x="0" y="0" width="101" height="88">
<path d="M71.1069 0.0164265C88.7945 0.0164265 100.643 16.3302 100.643 31.6137C100.643 62.5241 51.3586 87.9393 50.5 87.9393C49.6413 87.9393 0.356445 62.5241 0.356445 31.6137C0.356445 16.3302 12.2054 0.0164265 29.893 0.0164265C33.8136 -0.0376308 37.697 0.781917 41.2613 2.41558C44.8257 4.04925 47.9816 6.45604 50.5 9.46127C53.0183 6.45604 56.1742 4.04925 59.7386 2.41558C63.303 0.781917 67.1863 -0.0376308 71.1069 0.0164265Z" fill="white"/>
</mask>
<g mask="url(#mask2_3513_47019)">
<path d="M65.7836 19.7648C66.4745 19.3021 67.0124 18.6446 67.3291 17.8758C67.7052 17.1341 67.8259 16.289 67.6726 15.4717C67.6478 14.6517 67.3451 13.8645 66.814 13.2393C66.3738 12.5938 65.7848 12.0637 65.0967 11.6937C64.5816 11.522 64.0664 11.3503 63.3795 11.1786C63.7467 10.1922 63.8647 9.13043 63.7229 8.08752C63.4873 7.04673 62.8758 6.12952 62.0057 5.51166C61.1788 4.84491 60.1486 4.48131 59.0864 4.48131C58.0242 4.48131 56.994 4.84491 56.1671 5.51166C56.1463 4.4794 55.8499 3.47147 55.3084 2.59234C54.6409 1.77522 53.7436 1.17705 52.7326 0.8751C51.7117 0.588342 50.6244 0.648744 49.6415 1.04682C48.6745 1.44406 47.8823 2.17533 47.4091 3.10752C47.0284 2.67167 46.5603 2.32064 46.0353 2.07717C45.3378 1.74437 44.5758 1.56851 43.8029 1.562C43.0141 1.60649 42.2479 1.84224 41.5705 2.2489C40.8878 2.64487 40.3471 3.24567 40.025 3.96614C39.6944 4.67513 39.4632 5.42636 39.3381 6.19856C38.2355 6.07433 37.1276 6.38207 36.247 7.05718C35.6315 7.91286 35.1132 8.8344 34.7015 9.80477C34.4148 10.8257 34.4752 11.9129 34.8732 12.8958C35.2705 13.8628 36.0017 14.655 36.9339 15.1282C36.6507 15.6826 36.4889 16.291 36.4593 16.9128C36.4297 17.5347 36.5329 18.1557 36.7622 18.7344C37.2166 19.9039 38.0675 20.8765 39.1664 21.482C39.7207 21.7653 40.3291 21.9271 40.9509 21.9567C41.5728 21.9863 42.1938 21.883 42.7726 21.6537C43.3681 21.4572 43.9181 21.1431 44.39 20.7301C44.862 20.3172 45.2462 19.8137 45.5202 19.2496C45.5382 19.1194 45.5985 18.9987 45.6919 18.9062C46.3972 19.1999 47.1633 19.3177 47.9243 19.2496C48.6541 19.1783 49.3584 18.9435 49.985 18.5627C50.0563 19.2925 50.2911 19.9968 50.6719 20.6234C51.001 21.296 51.5448 21.8398 52.2174 22.1689C51.6733 23.2293 51.5506 24.4563 51.874 25.6034C52.2605 26.7595 53.0539 27.7359 54.1064 28.351C55.1724 28.8673 56.3703 29.047 57.5409 28.8662C58.1289 28.7638 58.6844 28.5237 59.1619 28.1656C59.6395 27.8074 60.0255 27.3414 60.2885 26.8055C61.1922 27.2554 62.2243 27.3768 63.2078 27.1489C64.205 26.9112 65.1046 26.3715 65.7836 25.6034C66.4748 24.7904 66.8417 23.7509 66.814 22.6841C66.8426 22.1536 66.7664 21.6228 66.5896 21.1218C66.4128 20.6209 66.1389 20.1597 65.7836 19.7648Z" stroke="white" stroke-width="1.38748" stroke-linecap="round" stroke-linejoin="round"/>
</g>
</g>
<mask id="mask3_3513_47019" style="mask-type:luminance" maskUnits="userSpaceOnUse" x="0" y="0" width="101" height="88">
<path d="M71.1069 0.0164265C88.7945 0.0164265 100.643 16.3302 100.643 31.6137C100.643 62.5241 51.3586 87.9393 50.5 87.9393C49.6413 87.9393 0.356445 62.5241 0.356445 31.6137C0.356445 16.3302 12.2054 0.0164265 29.893 0.0164265C33.8136 -0.0376308 37.697 0.781917 41.2613 2.41558C44.8257 4.04925 47.9816 6.45604 50.5 9.46127C53.0183 6.45604 56.1742 4.04925 59.7386 2.41558C63.303 0.781917 67.1863 -0.0376308 71.1069 0.0164265Z" fill="white"/>
</mask>
<g mask="url(#mask3_3513_47019)">
<mask id="mask4_3513_47019" style="mask-type:luminance" maskUnits="userSpaceOnUse" x="0" y="0" width="101" height="88">
<path d="M71.1069 0.0164265C88.7945 0.0164265 100.643 16.3302 100.643 31.6137C100.643 62.5241 51.3586 87.9393 50.5 87.9393C49.6413 87.9393 0.356445 62.5241 0.356445 31.6137C0.356445 16.3302 12.2054 0.0164265 29.893 0.0164265C33.8136 -0.0376308 37.697 0.781917 41.2613 2.41558C44.8257 4.04925 47.9816 6.45604 50.5 9.46127C53.0183 6.45604 56.1742 4.04925 59.7386 2.41558C63.303 0.781917 67.1863 -0.0376308 71.1069 0.0164265Z" fill="white"/>
</mask>
<g mask="url(#mask4_3513_47019)">
<path d="M51.874 22.1689C51.7849 22.1628 51.701 22.1247 51.6378 22.0616C51.5747 21.9984 51.5366 21.9145 51.5305 21.8254L47.7526 23.5427L46.894 23.1992L46.0353 19.0779C45.8636 19.0779 45.6919 18.9061 45.5202 18.9061C45.5021 19.0363 45.4418 19.157 45.3484 19.2496C44.9784 19.9376 44.4484 20.5266 43.8029 20.9668C43.1849 21.3964 42.4824 21.6891 41.7422 21.8254L42.2574 23.7144L38.6512 30.9268C38.5267 31.1954 38.4678 31.4897 38.4795 31.7855C38.4795 32.1289 38.6512 32.3006 38.9946 32.4724L45.005 35.5634C45.1318 35.6491 45.2813 35.6949 45.4343 35.6949C45.5873 35.6949 45.7368 35.6491 45.8636 35.5634C46.2071 35.3917 46.3788 35.2199 46.3788 35.0482L49.985 27.8358L52.2174 26.8054C51.7583 26.1526 51.5179 25.3711 51.5305 24.573C51.3772 23.7557 51.4979 22.9106 51.874 22.1689Z" stroke="white" stroke-width="1.38748" stroke-linecap="round" stroke-linejoin="round"/>
</g>
</g>
<path d="M19.732 27.8369C22.4337 27.3367 24.0975 24.0598 23.4098 20.345C22.7221 16.6302 19.9956 14.166 17.2939 14.6661C14.5922 15.1662 12.9285 18.4431 13.6162 22.158C14.135 25.9041 17.0303 28.337 19.732 27.8369Z" stroke="white" stroke-width="1.14171" stroke-miterlimit="10"/>
<mask id="mask5_3513_47019" style="mask-type:luminance" maskUnits="userSpaceOnUse" x="0" y="0" width="101" height="88">
<path d="M71.1069 0.0164265C88.7945 0.0164265 100.643 16.3302 100.643 31.6137C100.643 62.5241 51.3586 87.9393 50.5 87.9393C49.6413 87.9393 0.356445 62.5241 0.356445 31.6137C0.356445 16.3302 12.2054 0.0164265 29.893 0.0164265C33.8136 -0.0376308 37.697 0.781917 41.2613 2.41558C44.8257 4.04925 47.9816 6.45604 50.5 9.46127C53.0183 6.45604 56.1742 4.04925 59.7386 2.41558C63.303 0.781917 67.1863 -0.0376308 71.1069 0.0164265Z" fill="white"/>
</mask>
<g mask="url(#mask5_3513_47019)">
<mask id="mask6_3513_47019" style="mask-type:luminance" maskUnits="userSpaceOnUse" x="0" y="0" width="101" height="88">
<path d="M71.1069 0.0164265C88.7945 0.0164265 100.643 16.3302 100.643 31.6137C100.643 62.5241 51.3586 87.9393 50.5 87.9393C49.6413 87.9393 0.356445 62.5241 0.356445 31.6137C0.356445 16.3302 12.2054 0.0164265 29.893 0.0164265C33.8136 -0.0376308 37.697 0.781917 41.2613 2.41558C44.8257 4.04925 47.9816 6.45604 50.5 9.46127C53.0183 6.45604 56.1742 4.04925 59.7386 2.41558C63.303 0.781917 67.1863 -0.0376308 71.1069 0.0164265Z" fill="white"/>
</mask>
<g mask="url(#mask6_3513_47019)">
<path d="M15.4739 21.8142C15.2525 20.8169 15.3411 19.7757 15.7279 18.8301C16.1146 17.8846 16.7811 17.0798 17.6381 16.5236" stroke="white" stroke-width="1.14171" stroke-miterlimit="10" stroke-linecap="round"/>
</g>
</g>
<mask id="mask7_3513_47019" style="mask-type:luminance" maskUnits="userSpaceOnUse" x="0" y="0" width="101" height="88">
<path d="M71.1069 0.0164265C88.7945 0.0164265 100.643 16.3302 100.643 31.6137C100.643 62.5241 51.3586 87.9393 50.5 87.9393C49.6413 87.9393 0.356445 62.5241 0.356445 31.6137C0.356445 16.3302 12.2054 0.0164265 29.893 0.0164265C33.8136 -0.0376308 37.697 0.781917 41.2613 2.41558C44.8257 4.04925 47.9816 6.45604 50.5 9.46127C53.0183 6.45604 56.1742 4.04925 59.7386 2.41558C63.303 0.781917 67.1863 -0.0376308 71.1069 0.0164265Z" fill="white"/>
</mask>
<g mask="url(#mask7_3513_47019)">
<path d="M28.1444 16.6743C31.2396 23.9602 26.211 31.7022 20.6388 32.7337C15.0665 33.7652 7.59989 28.3363 7.88177 20.4253C8.1012 12.1765 9.53386 3.87775 15.1061 2.84624C20.6783 1.81472 25.018 9.21956 28.1444 16.6743Z" stroke="white" stroke-width="1.14171" stroke-miterlimit="10" stroke-linecap="round"/>
</g>
<mask id="mask8_3513_47019" style="mask-type:luminance" maskUnits="userSpaceOnUse" x="0" y="0" width="101" height="88">
<path d="M71.1069 0.0164265C88.7945 0.0164265 100.643 16.3302 100.643 31.6137C100.643 62.5241 51.3586 87.9393 50.5 87.9393C49.6413 87.9393 0.356445 62.5241 0.356445 31.6137C0.356445 16.3302 12.2054 0.0164265 29.893 0.0164265C33.8136 -0.0376308 37.697 0.781917 41.2613 2.41558C44.8257 4.04925 47.9816 6.45604 50.5 9.46127C53.0183 6.45604 56.1742 4.04925 59.7386 2.41558C63.303 0.781917 67.1863 -0.0376308 71.1069 0.0164265Z" fill="white"/>
</mask>
<g mask="url(#mask8_3513_47019)">
<mask id="mask9_3513_47019" style="mask-type:luminance" maskUnits="userSpaceOnUse" x="0" y="0" width="101" height="88">
<path d="M71.1069 0.0164265C88.7945 0.0164265 100.643 16.3302 100.643 31.6137C100.643 62.5241 51.3586 87.9393 50.5 87.9393C49.6413 87.9393 0.356445 62.5241 0.356445 31.6137C0.356445 16.3302 12.2054 0.0164265 29.893 0.0164265C33.8136 -0.0376308 37.697 0.781917 41.2613 2.41558C44.8257 4.04925 47.9816 6.45604 50.5 9.46127C53.0183 6.45604 56.1742 4.04925 59.7386 2.41558C63.303 0.781917 67.1863 -0.0376308 71.1069 0.0164265Z" fill="white"/>
</mask>
<g mask="url(#mask9_3513_47019)">
<path d="M90.6834 52.5641C90.6834 52.5641 77.9758 30.24 54.2778 36.4221C54.2778 36.4221 63.7227 56.8573 90.6834 52.5641Z" stroke="white" stroke-width="1.34972" stroke-linecap="round" stroke-linejoin="round"/>
</g>
</g>
<mask id="mask10_3513_47019" style="mask-type:luminance" maskUnits="userSpaceOnUse" x="0" y="0" width="101" height="88">
<path d="M71.1069 0.0164265C88.7945 0.0164265 100.643 16.3302 100.643 31.6137C100.643 62.5241 51.3586 87.9393 50.5 87.9393C49.6413 87.9393 0.356445 62.5241 0.356445 31.6137C0.356445 16.3302 12.2054 0.0164265 29.893 0.0164265C33.8136 -0.0376308 37.697 0.781917 41.2613 2.41558C44.8257 4.04925 47.9816 6.45604 50.5 9.46127C53.0183 6.45604 56.1742 4.04925 59.7386 2.41558C63.303 0.781917 67.1863 -0.0376308 71.1069 0.0164265Z" fill="white"/>
</mask>
<g mask="url(#mask10_3513_47019)">
<mask id="mask11_3513_47019" style="mask-type:luminance" maskUnits="userSpaceOnUse" x="0" y="0" width="101" height="88">
<path d="M71.1069 0.0164265C88.7945 0.0164265 100.643 16.3302 100.643 31.6137C100.643 62.5241 51.3586 87.9393 50.5 87.9393C49.6413 87.9393 0.356445 62.5241 0.356445 31.6137C0.356445 16.3302 12.2054 0.0164265 29.893 0.0164265C33.8136 -0.0376308 37.697 0.781917 41.2613 2.41558C44.8257 4.04925 47.9816 6.45604 50.5 9.46127C53.0183 6.45604 56.1742 4.04925 59.7386 2.41558C63.303 0.781917 67.1863 -0.0376308 71.1069 0.0164265Z" fill="white"/>
</mask>
<g mask="url(#mask11_3513_47019)">
<path d="M89.4817 50.6751C90.8555 48.4426 99.4417 49.1295 99.4417 49.1295L96.5224 52.0488C96.0709 52.5225 95.7718 53.1207 95.6638 53.7661C95.6099 54.415 95.7284 55.0666 96.0072 55.6551L97.8962 59.433C93.8144 58.188 90.1389 55.876 87.2493 52.7357" stroke="white" stroke-width="1.34972" stroke-linejoin="round"/>
</g>
</g>
<mask id="mask12_3513_47019" style="mask-type:luminance" maskUnits="userSpaceOnUse" x="0" y="0" width="101" height="88">
<path d="M71.1069 0.0164265C88.7945 0.0164265 100.643 16.3302 100.643 31.6137C100.643 62.5241 51.3586 87.9393 50.5 87.9393C49.6413 87.9393 0.356445 62.5241 0.356445 31.6137C0.356445 16.3302 12.2054 0.0164265 29.893 0.0164265C33.8136 -0.0376308 37.697 0.781917 41.2613 2.41558C44.8257 4.04925 47.9816 6.45604 50.5 9.46127C53.0183 6.45604 56.1742 4.04925 59.7386 2.41558C63.303 0.781917 67.1863 -0.0376308 71.1069 0.0164265Z" fill="white"/>
</mask>
<g mask="url(#mask12_3513_47019)">
<mask id="mask13_3513_47019" style="mask-type:luminance" maskUnits="userSpaceOnUse" x="0" y="0" width="101" height="88">
<path d="M71.1069 0.0164265C88.7945 0.0164265 100.643 16.3302 100.643 31.6137C100.643 62.5241 51.3586 87.9393 50.5 87.9393C49.6413 87.9393 0.356445 62.5241 0.356445 31.6137C0.356445 16.3302 12.2054 0.0164265 29.893 0.0164265C33.8136 -0.0376308 37.697 0.781917 41.2613 2.41558C44.8257 4.04925 47.9816 6.45604 50.5 9.46127C53.0183 6.45604 56.1742 4.04925 59.7386 2.41558C63.303 0.781917 67.1863 -0.0376308 71.1069 0.0164265Z" fill="white"/>
</mask>
<g mask="url(#mask13_3513_47019)">
<path d="M65.2685 35.3917C65.2685 35.3917 66.6422 40.5434 60.9753 45.18" stroke="white" stroke-width="1.34972" stroke-miterlimit="10"/>
</g>
</g>
<mask id="mask14_3513_47019" style="mask-type:luminance" maskUnits="userSpaceOnUse" x="0" y="0" width="101" height="88">
<path d="M71.1069 0.0164265C88.7945 0.0164265 100.643 16.3302 100.643 31.6137C100.643 62.5241 51.3586 87.9393 50.5 87.9393C49.6413 87.9393 0.356445 62.5241 0.356445 31.6137C0.356445 16.3302 12.2054 0.0164265 29.893 0.0164265C33.8136 -0.0376308 37.697 0.781917 41.2613 2.41558C44.8257 4.04925 47.9816 6.45604 50.5 9.46127C53.0183 6.45604 56.1742 4.04925 59.7386 2.41558C63.303 0.781917 67.1863 -0.0376308 71.1069 0.0164265Z" fill="white"/>
</mask>
<g mask="url(#mask14_3513_47019)">
<mask id="mask15_3513_47019" style="mask-type:luminance" maskUnits="userSpaceOnUse" x="0" y="0" width="101" height="88">
<path d="M71.1069 0.0164265C88.7945 0.0164265 100.643 16.3302 100.643 31.6137C100.643 62.5241 51.3586 87.9393 50.5 87.9393C49.6413 87.9393 0.356445 62.5241 0.356445 31.6137C0.356445 16.3302 12.2054 0.0164265 29.893 0.0164265C33.8136 -0.0376308 37.697 0.781917 41.2613 2.41558C44.8257 4.04925 47.9816 6.45604 50.5 9.46127C53.0183 6.45604 56.1742 4.04925 59.7386 2.41558C63.303 0.781917 67.1863 -0.0376308 71.1069 0.0164265Z" fill="white"/>
</mask>
<g mask="url(#mask15_3513_47019)">
<path d="M72.481 36.7654C72.481 36.7654 75.572 32.9875 82.2692 37.4523L79.0065 40.1999" stroke="white" stroke-width="1.34972" stroke-linejoin="round"/>
</g>
</g>
<mask id="mask16_3513_47019" style="mask-type:luminance" maskUnits="userSpaceOnUse" x="0" y="0" width="101" height="88">
<path d="M71.1069 0.0164265C88.7945 0.0164265 100.643 16.3302 100.643 31.6137C100.643 62.5241 51.3586 87.9393 50.5 87.9393C49.6413 87.9393 0.356445 62.5241 0.356445 31.6137C0.356445 16.3302 12.2054 0.0164265 29.893 0.0164265C33.8136 -0.0376308 37.697 0.781917 41.2613 2.41558C44.8257 4.04925 47.9816 6.45604 50.5 9.46127C53.0183 6.45604 56.1742 4.04925 59.7386 2.41558C63.303 0.781917 67.1863 -0.0376308 71.1069 0.0164265Z" fill="white"/>
</mask>
<g mask="url(#mask16_3513_47019)">
<path d="M70.9356 51.1903C70.9356 51.1903 70.2487 53.7662 77.4611 55.6551V52.7358" stroke="white" stroke-width="1.34972" stroke-linejoin="round"/>
</g>
<path d="M13.5798 55.8268V62.3524" stroke="white" stroke-width="1.21238" stroke-linecap="round" stroke-linejoin="round"/>
<path d="M25.6003 41.402C26.1155 41.402 27.1458 41.5738 27.1458 40.7151V38.8262C27.1337 38.648 27.0575 38.4802 26.9312 38.3539C26.8049 38.2276 26.6371 38.1514 26.4589 38.1393H14.7817C14.6035 38.1514 14.4357 38.2276 14.3094 38.3539C14.1832 38.4802 14.1069 38.648 14.0948 38.8262V40.7151C14.0948 41.5738 15.1251 41.402 15.4686 41.402H15.6403L11.6906 51.7055C11.3553 52.5231 11.1804 53.3977 11.1755 54.2814V73.1711C11.1571 73.8758 11.4172 74.5593 11.8994 75.0736C12.3815 75.5879 13.0469 75.8915 13.7513 75.9186H27.3176C27.6709 75.9198 28.0206 75.8481 28.345 75.7082C28.6695 75.5682 28.9616 75.363 29.2032 75.1052C29.4449 74.8475 29.6309 74.5427 29.7496 74.21C29.8684 73.8772 29.9173 73.5236 29.8934 73.1711V54.1096C29.8885 53.2259 29.7136 52.3514 29.3783 51.5338L25.6003 41.402Z" stroke="white" stroke-width="1.21238" stroke-linecap="round" stroke-linejoin="round"/>
<path d="M11.8625 53.4226L29.3784 53.2509" stroke="white" stroke-width="1.21238" stroke-linecap="round" stroke-linejoin="round"/>
<mask id="mask17_3513_47019" style="mask-type:luminance" maskUnits="userSpaceOnUse" x="0" y="0" width="101" height="88">
<path d="M71.1069 0.0164265C88.7945 0.0164265 100.643 16.3302 100.643 31.6137C100.643 62.5241 51.3586 87.9393 50.5 87.9393C49.6413 87.9393 0.356445 62.5241 0.356445 31.6137C0.356445 16.3302 12.2054 0.0164265 29.893 0.0164265C33.8136 -0.0376308 37.697 0.781917 41.2613 2.41558C44.8257 4.04925 47.9816 6.45604 50.5 9.46127C53.0183 6.45604 56.1742 4.04925 59.7386 2.41558C63.303 0.781917 67.1863 -0.0376308 71.1069 0.0164265Z" fill="white"/>
</mask>
<g mask="url(#mask17_3513_47019)">
<mask id="mask18_3513_47019" style="mask-type:luminance" maskUnits="userSpaceOnUse" x="0" y="0" width="101" height="88">
<path d="M71.1069 0.0164265C88.7945 0.0164265 100.643 16.3302 100.643 31.6137C100.643 62.5241 51.3586 87.9393 50.5 87.9393C49.6413 87.9393 0.356445 62.5241 0.356445 31.6137C0.356445 16.3302 12.2054 0.0164265 29.893 0.0164265C33.8136 -0.0376308 37.697 0.781917 41.2613 2.41558C44.8257 4.04925 47.9816 6.45604 50.5 9.46127C53.0183 6.45604 56.1742 4.04925 59.7386 2.41558C63.303 0.781917 67.1863 -0.0376308 71.1069 0.0164265Z" fill="white"/>
</mask>
<g mask="url(#mask18_3513_47019)">
<path d="M61.1928 38.0774C61.6061 38.0774 61.9411 37.7424 61.9411 37.3292C61.9411 36.9159 61.6061 36.5809 61.1928 36.5809C60.7796 36.5809 60.4446 36.9159 60.4446 37.3292C60.4446 37.7424 60.7796 38.0774 61.1928 38.0774Z" fill="white"/>
</g>
</g>
<path d="M51.8739 58.5744C51.8739 58.5744 43.4594 58.5744 44.4898 50.5034C45.5347 50.4463 46.5793 50.6219 47.5482 51.0175C48.5171 51.4131 49.386 52.0188 50.0924 52.7909C50.7989 53.563 51.3251 54.4823 51.6331 55.4825C51.9412 56.4826 52.0235 57.5386 51.8739 58.5744Z" stroke="white" stroke-width="1.38558" stroke-linecap="round" stroke-linejoin="round"/>
<path d="M54.965 58.7461C56.3271 58.1611 57.7789 57.8127 59.2581 57.7158C61.8795 57.822 64.3591 58.934 66.1819 60.8208C68.0048 62.7075 69.0306 65.2241 69.0464 67.8475C69.0464 73.5144 64.925 89.313 56.6823 89.313C56.3304 89.3401 55.9772 89.2814 55.6531 89.1419C54.7224 88.6661 53.692 88.418 52.6467 88.418C51.6015 88.418 50.5711 88.6661 49.6404 89.1419C49.3163 89.2814 48.9631 89.3401 48.6112 89.313C40.3684 89.313 36.2471 73.5144 36.2471 67.8475C36.1954 65.2334 37.1757 62.7041 38.9757 60.8077C40.7757 58.9113 43.2504 57.8004 45.8636 57.7158C47.8836 57.9061 49.8585 58.4276 51.7091 59.2595C51.9583 59.3898 52.2318 59.467 52.5123 59.4861C52.7929 59.5053 53.0744 59.4659 53.3389 59.3705L54.965 58.7461Z" stroke="white" stroke-width="1.38558" stroke-linecap="round" stroke-linejoin="round"/>
<path d="M52.5605 59.433C52.5605 59.433 51.7019 52.3923 56.3385 50.5034" stroke="white" stroke-width="1.38558" stroke-linecap="round" stroke-linejoin="round"/>
<path d="M41.9136 61.6655C41.9136 61.6655 39.3378 62.3524 38.6509 66.9889" stroke="white" stroke-width="1.38558" stroke-linecap="round" stroke-linejoin="round"/>
<path d="M81.5605 17.9039L95.4269 35.2984" stroke="white" stroke-width="1.21238" stroke-linecap="round" stroke-linejoin="round"/>
<path d="M74.26 8.68933C74.0634 10.8777 74.7214 13.0572 76.0961 14.7711C77.4709 16.4851 79.4556 17.6004 81.6345 17.8835C81.7457 15.7135 81.0561 13.5782 79.6965 11.8833C78.337 10.1883 76.4023 9.0517 74.26 8.68933Z" stroke="white" stroke-width="1.21238" stroke-linecap="round" stroke-linejoin="round"/>
<path d="M84.559 9.95703C85.7803 11.3594 86.5527 13.0958 86.7765 14.9419C86.1376 15.6244 85.6529 16.4363 85.3554 17.3226C85.0579 18.2089 84.9545 19.1488 85.0523 20.0785C84.7742 20.4135 84.4646 20.7209 84.1276 20.9965C78.597 14.0586 84.559 9.95703 84.559 9.95703Z" stroke="white" stroke-width="1.21238" stroke-linecap="round" stroke-linejoin="round"/>
<path d="M84.0024 21.0961C83.6585 21.3632 83.2898 21.5966 82.9013 21.793L82.8984 21.7893C82.0138 21.4887 81.075 21.3814 80.1454 21.4745C79.2159 21.5675 78.317 21.8589 77.5096 22.329C75.7599 21.6993 74.2393 20.5592 73.1445 19.0561C73.1445 19.0561 78.4717 14.1582 84.0024 21.0961Z" stroke="white" stroke-width="1.21238" stroke-linecap="round" stroke-linejoin="round"/>
<path d="M87.7911 14.0122C89.0123 15.4145 89.7848 17.151 90.0085 18.997C89.3696 19.6795 88.8849 20.4914 88.5874 21.3777C88.29 22.2639 88.1866 23.2039 88.2844 24.1336C88.0063 24.4685 87.6966 24.7759 87.3597 25.0516C86.1327 23.6474 85.3321 21.9221 85.0519 20.0786C84.9541 19.1488 85.0574 18.2089 85.3549 17.3226C85.6524 16.4363 86.1371 15.6244 86.7761 14.9419C87.0815 14.5979 87.4216 14.2863 87.7911 14.0122Z" stroke="white" stroke-width="1.21238" stroke-linecap="round" stroke-linejoin="round"/>
<path d="M87.2348 25.1512C86.891 25.4183 86.5222 25.6517 86.1337 25.8482C85.2492 25.5456 84.3098 25.4368 83.3795 25.5293C82.4492 25.6218 81.5497 25.9133 80.742 26.3841C78.9923 25.7545 77.4718 24.6144 76.377 23.1113C76.7265 22.8122 77.106 22.5501 77.5095 22.3291C78.3169 21.859 79.2157 21.5676 80.1453 21.4745C81.0749 21.3814 82.0136 21.4888 82.8982 21.7894L82.9011 21.7931C84.6359 22.4771 86.1394 23.6421 87.2348 25.1512Z" stroke="white" stroke-width="1.21238" stroke-linecap="round" stroke-linejoin="round"/>
<path d="M91.024 18.0673C96.3167 24.7066 90.5927 29.1068 90.5927 29.1068C89.3657 27.7026 88.565 25.9773 88.2848 24.1337C88.187 23.2039 88.2903 22.264 88.5878 21.3777C88.8853 20.4914 89.37 19.6795 90.0089 18.9971C90.3143 18.653 90.6545 18.3414 91.024 18.0673Z" stroke="white" stroke-width="1.21238" stroke-linecap="round" stroke-linejoin="round"/>
<path d="M90.4678 29.2064C90.4678 29.2064 84.9025 33.8057 79.6099 27.1663C79.9594 26.8672 80.3389 26.6051 80.7424 26.3841C81.5501 25.9133 82.4496 25.6217 83.3799 25.5293C84.3102 25.4368 85.2495 25.5456 86.1341 25.8482C87.8689 26.5322 89.3724 27.6973 90.4678 29.2064Z" stroke="white" stroke-width="1.21238" stroke-linecap="round" stroke-linejoin="round"/>
</g>
</g>
<defs>
<linearGradient id="paint0_linear_3513_47019" x1="50.5" y1="0.0164265" x2="50.5" y2="87.9393" gradientUnits="userSpaceOnUse">
<stop stop-color="#00F954"/>
<stop offset="0.445" stop-color="#15BA4D" stop-opacity="0.9"/>
<stop offset="1" stop-color="#019834" stop-opacity="0.8"/>
</linearGradient>
<clipPath id="clip0_3513_47019">
<rect width="100.287" height="90" fill="white" transform="translate(0.356445)"/>
</clipPath>
</defs>
</svg>
