<svg width="290" height="30" viewBox="0 0 290 30" fill="none" xmlns="http://www.w3.org/2000/svg">
<path d="M0 29.2742L4.84714 0.0463867H10.15L8.09929 12.4128H21.6464L23.6971 0.0463867H29L24.1529 29.2742H18.8293L20.88 16.8664H7.35357L5.30286 29.2742H0Z" fill="#19C152"/>
<path d="M32.4795 29.6678L33.2459 25.2142H34.9238C35.6695 25.2142 36.3116 25.1107 36.8295 24.8828C37.3474 24.655 37.8031 24.3442 38.1552 23.9507C38.5073 23.5364 38.8388 23.06 39.1495 22.5214L39.7088 21.5271L32.7902 0.0463867H38.3209L43.0231 15.6857L51.9095 0.0463867H57.3573L43.3338 23.8885C42.6916 24.9242 42.0081 25.8771 41.2416 26.7471C40.4752 27.6171 39.5845 28.3421 38.5073 28.8807C37.4509 29.4192 36.1252 29.6885 34.5716 29.6885H32.4795V29.6678Z" fill="#19C152"/>
<path d="M59.1392 4.47924L59.8849 0.0463867H83.2092L82.4634 4.47924H73.432L69.3306 29.2742H64.0692L68.1706 4.47924H59.1392Z" fill="#19C152"/>
<path d="M82.8369 29.2742L87.6841 0.0463867H98.6419C100.879 0.0463867 102.702 0.460672 104.09 1.28924C105.478 2.11782 106.451 3.27782 106.99 4.72782C107.528 6.19853 107.653 7.85567 107.342 9.71996C107.031 11.605 106.368 13.2621 105.333 14.7121C104.297 16.1621 102.95 17.3221 101.273 18.1507C99.5948 18.9792 97.6269 19.3935 95.3483 19.3935H88.0776L88.8026 15.0435H95.3483C96.6533 15.0435 97.7719 14.8157 98.7041 14.36C99.6155 13.9042 100.34 13.2828 100.879 12.475C101.418 11.6671 101.77 10.7557 101.935 9.71996C102.101 8.66353 102.06 7.7521 101.79 6.96496C101.521 6.17782 101.003 5.5771 100.237 5.12139C99.4705 4.68639 98.4348 4.45853 97.1091 4.45853H92.2619L88.1191 29.2535H82.8369V29.2742Z" fill="#19C152"/>
<path d="M113.515 0.0463867H118.776L115.482 19.9735H115.752L132.8 0.0463867H137.543L132.696 29.2742H127.393L130.707 9.36782H130.459L113.37 29.2742H108.667L113.515 0.0463867Z" fill="#19C152"/>
<path d="M143.281 0.0463867H149.764L154.943 21.2164H155.295L167.475 0.0463867H173.958L169.111 29.2742H164.036L167.371 9.2021H167.102L155.709 29.1914H151.918L147.175 9.16067H146.906L143.529 29.2742H138.454L143.281 0.0463867Z" fill="#363949"/>
<path d="M178.619 29.2742H172.964L188.106 0.0463867H194.652L200.1 29.2742H194.445L190.509 6.03282H190.281L178.619 29.2742ZM180.711 17.8192H196.123L195.398 22.0657H179.986L180.711 17.8192Z" fill="#363949"/>
<path d="M203.932 29.2742L208.779 0.0463867H214.082L212.031 12.4128H225.579L227.629 0.0463867H232.932L228.085 29.2742H222.782L224.833 16.8664H211.286L209.235 29.2742H203.932Z" fill="#363949"/>
<path d="M238.69 0.0463867H243.952L240.658 19.9735H240.928L257.975 0.0463867H262.719L257.872 29.2742H252.569L255.883 9.36782H255.635L238.545 29.2742H233.843L238.69 0.0463867Z" fill="#363949"/>
<path d="M272.247 16.0169H278.027L268.726 29.2533H262.822L272.247 16.0169ZM285.152 29.274H279.849L283.951 4.47904H279.104C277.799 4.47904 276.68 4.66547 275.769 5.05904C274.857 5.45261 274.132 6.01189 273.614 6.73689C273.097 7.48261 272.744 8.35261 272.558 9.40904C272.392 10.4448 272.454 11.3148 272.744 12.019C273.034 12.7233 273.552 13.2619 274.339 13.6348C275.127 14.0076 276.162 14.194 277.467 14.194H284.572L283.827 18.5855H275.997C273.759 18.5855 271.916 18.2126 270.507 17.4669C269.099 16.7212 268.104 15.6648 267.545 14.2769C266.986 12.889 266.841 11.2733 267.131 9.40904C267.462 7.54475 268.125 5.90832 269.14 4.49975C270.155 3.09118 271.502 2.01404 273.159 1.22689C274.816 0.439752 276.763 0.0668945 278.979 0.0668945H289.958L285.152 29.274Z" fill="#363949"/>
</svg>
