<svg width="127" height="15" viewBox="0 0 127 15" fill="none" xmlns="http://www.w3.org/2000/svg">
<path d="M0.420455 12L2.35227 0.363636H4.46023L3.64205 5.28977H9.03409L9.85227 0.363636H11.9659L10.0341 12H7.92045L8.73864 7.05682H3.34659L2.52841 12H0.420455ZM13.3551 12.1591L13.6562 10.3864H14.321C14.6203 10.3864 14.8741 10.3428 15.0824 10.2557C15.2907 10.1686 15.4669 10.0436 15.6108 9.88068C15.7547 9.7178 15.8854 9.52841 16.0028 9.3125L16.2244 8.92045L13.4801 0.363636H15.6847L17.5483 6.59091L21.0824 0.363636H23.2585L17.6733 9.85227C17.4195 10.2614 17.143 10.642 16.8438 10.9943C16.5445 11.3428 16.1828 11.625 15.7585 11.8409C15.3343 12.053 14.8116 12.1591 14.1903 12.1591H13.3551ZM24.7017 2.13068L24.9972 0.363636H34.2812L33.9858 2.13068H30.3892L28.7528 12H26.6619L28.2983 2.13068H24.7017ZM34.1392 12L36.071 0.363636H40.4347C41.3286 0.363636 42.0521 0.530303 42.6051 0.863636C43.1581 1.19318 43.5426 1.64962 43.7585 2.23295C43.9744 2.8125 44.0199 3.47348 43.8949 4.21591C43.7737 4.96212 43.5066 5.625 43.0938 6.20455C42.6847 6.78409 42.1449 7.24053 41.4744 7.57386C40.804 7.90341 40.0199 8.06818 39.1222 8.06818H36.2301L36.5199 6.33523H39.1278C39.6506 6.33523 40.0938 6.24432 40.4574 6.0625C40.8248 5.88068 41.1146 5.63068 41.3267 5.3125C41.5388 4.99432 41.679 4.62879 41.7472 4.21591C41.8116 3.80303 41.7907 3.43939 41.6847 3.125C41.5786 2.81061 41.3722 2.56629 41.0653 2.39205C40.7623 2.21402 40.3475 2.125 39.821 2.125H37.8892L36.2472 12H34.1392ZM46.3523 0.363636H48.4432L47.1364 8.29545H47.2386L54.0227 0.363636H55.9148L53.983 12H51.875L53.1932 4.07386H53.0966L46.2898 12H44.4205L46.3523 0.363636ZM67.348 10.2386L66.4389 14.75H64.3935L64.848 12H64.0298L64.331 10.2386H67.348ZM56.2798 12L58.2116 0.363636H60.2344L58.598 10.25H63.8253L65.4616 0.363636H67.5014L65.5696 12H56.2798ZM70.696 0.363636H72.7869L71.4801 8.29545H71.5824L78.3665 0.363636H80.2585L78.3267 12H76.2188L77.5369 4.07386H77.4403L70.6335 12H68.7642L70.696 0.363636ZM91.9645 6.31818C91.7599 7.55303 91.3565 8.60606 90.7543 9.47727C90.1558 10.3447 89.4247 11.0095 88.5611 11.4716C87.7012 11.9299 86.7751 12.1591 85.7827 12.1591C84.741 12.1591 83.8471 11.9167 83.1009 11.4318C82.3546 10.9432 81.8168 10.2443 81.4872 9.33523C81.1615 8.42614 81.1046 7.33523 81.3168 6.0625C81.5213 4.83144 81.9228 3.77841 82.5213 2.90341C83.1198 2.02841 83.8527 1.35985 84.7202 0.897727C85.5876 0.435606 86.5232 0.204545 87.527 0.204545C88.5611 0.204545 89.4474 0.448863 90.1861 0.9375C90.9285 1.42235 91.4626 2.12121 91.7884 3.03409C92.1179 3.94697 92.1766 5.04167 91.9645 6.31818ZM89.8906 6.0625C90.0308 5.20265 90.0175 4.47727 89.8509 3.88636C89.688 3.29545 89.3982 2.85038 88.9815 2.55114C88.5649 2.24811 88.0516 2.09659 87.4418 2.09659C86.7827 2.09659 86.1728 2.26136 85.6122 2.59091C85.0554 2.91667 84.5819 3.39394 84.1918 4.02273C83.8054 4.65152 83.5402 5.41667 83.3963 6.31818C83.2448 7.18182 83.2543 7.9072 83.4247 8.49432C83.5952 9.08144 83.8906 9.52462 84.3111 9.82386C84.7315 10.1193 85.2448 10.267 85.8509 10.267C86.5062 10.267 87.1122 10.1042 87.669 9.77841C88.2259 9.45265 88.6974 8.97727 89.0838 8.35227C89.474 7.72727 89.7429 6.96402 89.8906 6.0625ZM92.2585 12L92.5597 10.25L92.8892 10.233C93.34 10.2064 93.7206 10.0455 94.0312 9.75C94.3456 9.45455 94.6203 8.97917 94.8551 8.32386C95.09 7.66856 95.3172 6.78977 95.5369 5.6875L96.6165 0.363636H104.241L102.31 12H100.247L101.895 2.09659H98.2983L97.4062 6.34091C97.1411 7.61364 96.8267 8.66856 96.4631 9.50568C96.0994 10.3428 95.6278 10.9678 95.0483 11.3807C94.4725 11.7936 93.732 12 92.8267 12H92.2585ZM115.949 6.31818C115.744 7.55303 115.341 8.60606 114.739 9.47727C114.14 10.3447 113.409 11.0095 112.545 11.4716C111.686 11.9299 110.759 12.1591 109.767 12.1591C108.725 12.1591 107.831 11.9167 107.085 11.4318C106.339 10.9432 105.801 10.2443 105.472 9.33523C105.146 8.42614 105.089 7.33523 105.301 6.0625C105.506 4.83144 105.907 3.77841 106.506 2.90341C107.104 2.02841 107.837 1.35985 108.705 0.897727C109.572 0.435606 110.508 0.204545 111.511 0.204545C112.545 0.204545 113.432 0.448863 114.17 0.9375C114.913 1.42235 115.447 2.12121 115.773 3.03409C116.102 3.94697 116.161 5.04167 115.949 6.31818ZM113.875 6.0625C114.015 5.20265 114.002 4.47727 113.835 3.88636C113.672 3.29545 113.383 2.85038 112.966 2.55114C112.549 2.24811 112.036 2.09659 111.426 2.09659C110.767 2.09659 110.157 2.26136 109.597 2.59091C109.04 2.91667 108.566 3.39394 108.176 4.02273C107.79 4.65152 107.525 5.41667 107.381 6.31818C107.229 7.18182 107.239 7.9072 107.409 8.49432C107.58 9.08144 107.875 9.52462 108.295 9.82386C108.716 10.1193 109.229 10.267 109.835 10.267C110.491 10.267 111.097 10.1042 111.653 9.77841C112.21 9.45265 112.682 8.97727 113.068 8.35227C113.458 7.72727 113.727 6.96402 113.875 6.0625ZM126.413 0.363636L126.118 2.13068H120.743L119.107 12H116.999L118.93 0.363636H126.413Z" fill="#19C152"/>
</svg>
