<?xml version="1.0" encoding="utf-8"?>
<!-- Generator: Adobe Illustrator 26.1.0, SVG Export Plug-In . SVG Version: 6.00 Build 0)  -->
<svg version="1.1" id="Layer_1" xmlns="http://www.w3.org/2000/svg" xmlns:xlink="http://www.w3.org/1999/xlink" x="0px" y="0px"
	 viewBox="0 0 140 24" style="enable-background:new 0 0 140 24;" xml:space="preserve">
<style type="text/css">
	.st0{fill:none;}
	.st1{fill:#19C152;}
	.st2{fill:#363949;}
</style>
<rect class="st0" width="140" height="24"/>
<g>
	<path class="st1" d="M0,18.96L2.34,4.85H4.9l-0.99,5.97h6.54l0.99-5.97H14l-2.34,14.11H9.09l0.99-5.99H3.55l-0.99,5.99H0z"/>
	<path class="st1" d="M15.68,19.15L16.05,17h0.81c0.36,0,0.67-0.05,0.92-0.16c0.25-0.11,0.47-0.26,0.64-0.45
		c0.17-0.2,0.33-0.43,0.48-0.69l0.27-0.48L15.83,4.85h2.67l2.27,7.55l4.29-7.55h2.63l-6.77,11.51c-0.31,0.5-0.64,0.96-1.01,1.38
		c-0.37,0.42-0.8,0.77-1.32,1.03c-0.51,0.26-1.15,0.39-1.9,0.39H15.68z"/>
	<path class="st1" d="M28.55,6.99l0.36-2.14h11.26l-0.36,2.14h-4.36l-1.98,11.97h-2.54l1.98-11.97H28.55z"/>
	<path class="st1" d="M39.99,18.96l2.34-14.11h5.29c1.08,0,1.96,0.2,2.63,0.6c0.67,0.4,1.14,0.96,1.4,1.66
		c0.26,0.71,0.32,1.51,0.17,2.41c-0.15,0.91-0.47,1.71-0.97,2.41c-0.5,0.7-1.15,1.26-1.96,1.66c-0.81,0.4-1.76,0.6-2.86,0.6h-3.51
		l0.35-2.1h3.16c0.63,0,1.17-0.11,1.62-0.33c0.44-0.22,0.79-0.52,1.05-0.91c0.26-0.39,0.43-0.83,0.51-1.33
		c0.08-0.51,0.06-0.95-0.07-1.33c-0.13-0.38-0.38-0.67-0.75-0.89c-0.37-0.21-0.87-0.32-1.51-0.32h-2.34l-2,11.97H39.99z"/>
	<path class="st1" d="M54.8,4.85h2.54l-1.59,9.62h0.13l8.23-9.62h2.29l-2.34,14.11H61.5l1.6-9.61h-0.12l-8.25,9.61h-2.27L54.8,4.85z
		"/>
	<path class="st2" d="M69.17,4.85h3.13l2.5,10.22h0.17l5.88-10.22h3.13l-2.34,14.11h-2.45l1.61-9.69h-0.13l-5.5,9.65h-1.83
		l-2.29-9.67h-0.13l-1.63,9.71h-2.45L69.17,4.85z"/>
	<path class="st2" d="M86.23,18.96H83.5l7.31-14.11h3.16l2.63,14.11h-2.73L91.97,7.74h-0.11L86.23,18.96z M87.24,13.43h7.44
		l-0.35,2.05h-7.44L87.24,13.43z"/>
	<path class="st2" d="M98.45,18.96l2.34-14.11h2.56l-0.99,5.97h6.54l0.99-5.97h2.56l-2.34,14.11h-2.56l0.99-5.99H102l-0.99,5.99
		H98.45z"/>
	<path class="st2" d="M115.23,4.85h2.54l-1.59,9.62h0.13l8.23-9.62h2.29l-2.34,14.11h-2.56l1.6-9.61h-0.12l-8.25,9.61h-2.27
		L115.23,4.85z"/>
	<path class="st2" d="M131.43,12.56h2.79l-4.49,6.39h-2.85L131.43,12.56z M137.66,18.96h-2.56l1.98-11.97h-2.34
		c-0.63,0-1.17,0.09-1.61,0.28c-0.44,0.19-0.79,0.46-1.04,0.81c-0.25,0.36-0.42,0.78-0.51,1.29c-0.08,0.5-0.05,0.92,0.09,1.26
		c0.14,0.34,0.39,0.6,0.77,0.78c0.38,0.18,0.88,0.27,1.51,0.27h3.43l-0.36,2.12h-3.78c-1.08,0-1.97-0.18-2.65-0.54
		c-0.68-0.36-1.16-0.87-1.43-1.54s-0.34-1.45-0.2-2.35c0.16-0.9,0.48-1.69,0.97-2.37c0.49-0.68,1.14-1.2,1.94-1.58
		c0.8-0.38,1.74-0.56,2.81-0.56h5.3L137.66,18.96z"/>
</g>
</svg>
