<svg width="117" height="24" viewBox="0 0 117 24" fill="none" xmlns="http://www.w3.org/2000/svg">
<g clip-path="url(#clip0_5631_14592)">
<path d="M0 17.8195L1.96 6.01953H4.1L3.27 11.0095H8.73L9.56 6.01953H11.7L9.74 17.8195H7.6L8.43 12.8095H2.97L2.14 17.8195H0Z" fill="#19C152"/>
<path d="M13.0996 17.9795L13.4096 16.1795H14.0796C14.3796 16.1795 14.6396 16.1395 14.8496 16.0495C15.0596 15.9595 15.2396 15.8295 15.3896 15.6695C15.5396 15.4995 15.6696 15.3095 15.7896 15.0895L16.0096 14.6895L13.2196 6.01953H15.4496L17.3396 12.3295L20.9196 6.01953H23.1196L17.4696 15.6395C17.2096 16.0495 16.9296 16.4395 16.6296 16.7895C16.3196 17.1395 15.9596 17.4295 15.5296 17.6495C15.0996 17.8695 14.5696 17.9795 13.9396 17.9795H13.0996Z" fill="#19C152"/>
<path d="M23.8604 7.80953L24.1604 6.01953H33.5704L33.2704 7.80953H29.6304L27.9704 17.8095H25.8504L27.5104 7.80953H23.8604Z" fill="#19C152"/>
<path d="M33.4199 17.8195L35.3799 6.02954H39.7999C40.6999 6.02954 41.4299 6.19954 41.9999 6.52954C42.5599 6.86954 42.9499 7.32954 43.1699 7.91954C43.3899 8.50954 43.4399 9.17954 43.3099 9.92954C43.1899 10.6895 42.9199 11.3595 42.4999 11.9495C42.0799 12.5395 41.5399 12.9995 40.8599 13.3295C40.1799 13.6695 39.3899 13.8295 38.4699 13.8295H35.5399L35.8299 12.0695H38.4699C38.9999 12.0695 39.4499 11.9795 39.8199 11.7895C40.1899 11.6095 40.4799 11.3495 40.6999 11.0295C40.9199 10.7095 41.0599 10.3395 41.1199 9.91954C41.1899 9.49954 41.1699 9.12954 41.0599 8.80954C40.9499 8.48954 40.7399 8.24954 40.4299 8.06954C40.1199 7.88954 39.6999 7.79954 39.1699 7.79954H37.2099L35.5399 17.8095H33.4199V17.8195Z" fill="#19C152"/>
<path d="M45.7996 6.01953H47.9196L46.5896 14.0595H46.6996L53.5796 6.01953H55.4996L53.5396 17.8095H51.3996L52.7396 9.77953H52.6396L45.7396 17.8095H43.8496L45.7996 6.01953Z" fill="#19C152"/>
<path d="M57.8096 6.01953H60.4196L62.5096 14.5595H62.6496L67.5596 6.01953H70.1696L68.2096 17.8095H66.1596L67.5096 9.70953H67.3996L62.8096 17.7795H61.2796L59.3696 9.69953H59.2596L57.8996 17.8195H55.8496L57.8096 6.01953Z" fill="#363949"/>
<path d="M72.0603 17.8193H69.7803L75.8903 6.0293H78.5303L80.7303 17.8193H78.4503L76.8703 8.4493H76.7803L72.0603 17.8193ZM72.9103 13.1893H79.1303L78.8403 14.9093H72.6203L72.9103 13.1893Z" fill="#363949"/>
<path d="M82.2803 17.8193L84.2403 6.0293H86.3803L85.5503 11.0193H91.0103L91.8403 6.0293H93.9803L92.0203 17.8193H89.8803L90.7103 12.8093H85.2503L84.4203 17.8193H82.2803Z" fill="#363949"/>
<path d="M96.2996 6.01953H98.4196L97.0896 14.0595H97.1996L104.08 6.01953H106L104.04 17.8095H101.9L103.24 9.77953H103.14L96.2396 17.8095H94.3496L96.2996 6.01953Z" fill="#363949"/>
<path d="M109.84 12.4695H112.17L108.42 17.8095H106.04L109.84 12.4695ZM115.05 17.8195H112.91L114.57 7.80953H112.61C112.08 7.80953 111.63 7.88953 111.27 8.03953C110.9 8.19953 110.61 8.41953 110.4 8.71953C110.19 9.01953 110.05 9.37953 109.97 9.78953C109.9 10.2095 109.93 10.5595 110.04 10.8495C110.15 11.1395 110.37 11.3495 110.69 11.4995C111.01 11.6495 111.43 11.7195 111.95 11.7195H114.82L114.52 13.4895H111.36C110.45 13.4895 109.72 13.3395 109.15 13.0395C108.58 12.7395 108.18 12.3095 107.95 11.7595C107.72 11.2095 107.67 10.5495 107.79 9.78953C107.92 9.03953 108.19 8.37953 108.6 7.80953C109.01 7.23953 109.55 6.79953 110.22 6.48953C110.89 6.17953 111.67 6.01953 112.57 6.01953H117L115.05 17.8195Z" fill="#363949"/>
</g>
<defs>
<clipPath id="clip0_5631_14592">
<rect width="117" height="24" fill="white"/>
</clipPath>
</defs>
</svg>
