<svg width="24" height="24" viewBox="0 0 24 24" fill="none" xmlns="http://www.w3.org/2000/svg">
<path d="M11.4671 12.5042V12.2972C11.4671 11.6192 11.8861 11.2522 12.3061 10.9702C12.7161 10.6942 13.1271 10.3342 13.1271 9.67023C13.1271 8.75323 12.3841 8.01123 11.4681 8.01123C10.5521 8.01123 9.80811 8.75223 9.80811 9.66923" stroke="#363949" stroke-width="1.5" stroke-linecap="round" stroke-linejoin="round"/>
<path d="M11.4658 14.8432C11.3828 14.8432 11.3158 14.9102 11.3168 14.9932C11.3168 15.0762 11.3838 15.1432 11.4668 15.1432C11.5498 15.1432 11.6168 15.0762 11.6168 14.9932C11.6168 14.9102 11.5498 14.8432 11.4658 14.8432" stroke="#363949" stroke-width="1.5" stroke-linecap="round" stroke-linejoin="round"/>
<path fill-rule="evenodd" clip-rule="evenodd" d="M15.8628 19.3158C14.5618 20.0458 13.0638 20.4668 11.4668 20.4668C6.4958 20.4668 2.4668 16.4378 2.4668 11.4668C2.4668 6.4958 6.4958 2.4668 11.4668 2.4668C16.4378 2.4668 20.4668 6.4958 20.4668 11.4668C20.4668 13.0648 20.0458 14.5628 19.3158 15.8628L20.4668 20.4668L15.8628 19.3158Z" stroke="#363949" stroke-width="1.5882" stroke-linecap="round" stroke-linejoin="round"/>
</svg>
