<svg width="85" height="84" viewBox="0 0 85 84" fill="none" xmlns="http://www.w3.org/2000/svg">
<rect x="0.5" width="84" height="84" rx="42" fill="#EDFAF1"/>
<path fill-rule="evenodd" clip-rule="evenodd" d="M40.0836 23.383C31.1362 23.383 23.883 30.6362 23.883 39.5836C23.883 48.531 31.1362 55.7843 40.0836 55.7843C44.5296 55.7843 48.5573 53.9933 51.4847 51.0935C51.502 51.0747 51.5198 51.0562 51.538 51.038C51.5562 51.0198 51.5747 51.002 51.5935 50.9847C54.4933 48.0573 56.2843 44.0296 56.2843 39.5836C56.2843 30.6362 49.031 23.383 40.0836 23.383ZM55.5576 52.3353C58.4168 48.8697 60.1343 44.4272 60.1343 39.5836C60.1343 28.5099 51.1573 19.533 40.0836 19.533C29.0099 19.533 20.033 28.5099 20.033 39.5836C20.033 50.6573 29.0099 59.6343 40.0836 59.6343C44.9272 59.6343 49.3697 57.9168 52.8353 55.0576L61.6806 63.9029C62.4323 64.6547 63.6512 64.6547 64.4029 63.9029C65.1547 63.1512 65.1547 61.9323 64.4029 61.1806L55.5576 52.3353Z" fill="#19C152"/>
</svg>
