<svg width="29" height="28" viewBox="0 0 29 28" fill="none" xmlns="http://www.w3.org/2000/svg">
<g clip-path="url(#clip0_4849_10952)">
<path d="M14.5 0C10.7878 0 7.22437 1.47591 4.60156 4.10047C1.97604 6.72607 0.500727 10.2869 0.5 14C0.5 17.7115 1.97656 21.275 4.60156 23.8995C7.22437 26.5241 10.7878 28 14.5 28C18.2122 28 21.7756 26.5241 24.3984 23.8995C27.0234 21.275 28.5 17.7115 28.5 14C28.5 10.2885 27.0234 6.72503 24.3984 4.10047C21.7756 1.47591 18.2122 0 14.5 0Z" fill="url(#paint0_linear_4849_10952)"/>
<path d="M6.83699 13.8521C10.9189 12.0741 13.6401 10.9018 15.0007 10.3355C18.8901 8.71827 19.6973 8.43739 20.2245 8.42788C20.3404 8.42602 20.5985 8.45467 20.767 8.59085C20.907 8.70569 20.9464 8.861 20.966 8.97005C20.9835 9.07899 21.0076 9.32727 20.9879 9.52108C20.7779 11.7348 19.8657 17.1069 19.402 19.5864C19.2073 20.6356 18.8201 20.9873 18.4461 21.0216C17.6323 21.0965 17.0154 20.4844 16.2279 19.9684C14.9964 19.1605 14.3007 18.6578 13.1042 17.8697C11.7217 16.9588 12.6186 16.4581 13.4061 15.64C13.6117 15.4258 17.1948 12.1675 17.2626 11.872C17.2714 11.835 17.2801 11.6972 17.197 11.6246C17.1161 11.5517 16.9957 11.5767 16.9082 11.5964C16.7836 11.6244 14.817 12.9255 11.002 15.4995C10.4442 15.8832 9.93886 16.0702 9.48386 16.0604C8.98511 16.0497 8.02261 15.7778 7.3073 15.5455C6.4323 15.2604 5.73449 15.1097 5.79574 14.6256C5.82636 14.3736 6.17418 14.1157 6.83699 13.8521Z" fill="white"/>
</g>
<defs>
<linearGradient id="paint0_linear_4849_10952" x1="1400.5" y1="0" x2="1400.5" y2="2800" gradientUnits="userSpaceOnUse">
<stop stop-color="#2AABEE"/>
<stop offset="1" stop-color="#229ED9"/>
</linearGradient>
<clipPath id="clip0_4849_10952">
<rect width="28" height="28" fill="white" transform="translate(0.5)"/>
</clipPath>
</defs>
</svg>
