<svg width="29" height="28" viewBox="0 0 29 28" fill="none" xmlns="http://www.w3.org/2000/svg">
<path fill-rule="evenodd" clip-rule="evenodd" d="M15.0913 28H13.9255C7.59521 28 4.4312 28 2.4656 26.0344C0.499999 24.0688 0.5 20.9048 0.5 14.5914V13.4087C0.5 7.09407 0.5 3.9312 2.4656 1.96561C4.4312 5.63264e-06 7.59521 0 13.9255 0H15.0913C21.4205 0 24.6024 5.63264e-06 26.5512 1.96561C28.5 3.93121 28.5 7.0963 28.5 13.4087V14.7505C28.5001 20.9581 28.5002 24.0854 26.5512 26.0344C24.5856 28 21.4205 28 15.0913 28ZM5.23132 8.52868C5.38029 15.8076 9.21177 20.1879 15.5252 20.1879H15.8915V16.0237C18.1897 16.2567 19.9056 17.9725 20.6056 20.1879H23.9196C23.0203 16.8738 20.6884 15.0415 19.2392 14.3415C20.6884 13.4757 22.7369 11.3769 23.2196 8.52868H20.2057C19.5718 10.8437 17.6902 12.9426 15.8915 13.142V8.52868H12.8261V16.6072C10.9612 16.1447 8.52862 13.8756 8.42892 8.52868H5.23132Z" fill="#0077FF"/>
</svg>
