<svg width="29" height="28" viewBox="0 0 29 28" fill="none" xmlns="http://www.w3.org/2000/svg">
<g clip-path="url(#clip0_4849_10946)">
<path d="M1.20114 13.8324C1.20049 16.185 1.81518 18.4821 2.98402 20.5067L1.08936 27.4245L8.1688 25.5682C10.1269 26.6342 12.3208 27.1927 14.5502 27.1929H14.5561C21.9158 27.1929 27.9068 21.204 27.91 13.843C27.9114 10.276 26.5236 6.92185 24.002 4.39838C21.481 1.87512 18.128 0.484782 14.5555 0.483154C7.19488 0.483154 1.20429 6.47168 1.20125 13.8324" fill="url(#paint0_linear_4849_10946)"/>
<path d="M0.724522 13.8281C0.723763 16.2653 1.36049 18.6445 2.571 20.7417L0.608398 27.9074L7.94169 25.9846C9.96224 27.0863 12.2372 27.6671 14.5521 27.668H14.558C22.1819 27.668 28.3881 21.4637 28.3913 13.8392C28.3926 10.144 26.9549 6.66932 24.3433 4.05544C21.7314 1.44189 18.2585 0.00151938 14.558 0C6.93292 0 0.727561 6.20341 0.724522 13.8281ZM5.09176 20.3805L4.81795 19.9459C3.66691 18.1157 3.05938 16.0007 3.06024 13.829C3.06263 7.49152 8.22027 2.3355 14.5624 2.3355C17.6337 2.33681 20.5201 3.53408 22.6911 5.70636C24.8619 7.87885 26.0565 10.7668 26.0557 13.8383C26.0529 20.1757 20.8952 25.3324 14.558 25.3324H14.5535C12.4901 25.3313 10.4664 24.7772 8.70148 23.73L8.28148 23.4809L3.92976 24.6219L5.09176 20.3805Z" fill="url(#paint1_linear_4849_10946)"/>
<path d="M11.1004 8.0471C10.8415 7.47158 10.569 7.45997 10.3227 7.44988C10.1211 7.44119 9.89058 7.44184 9.66028 7.44184C9.42977 7.44184 9.05524 7.52856 8.73867 7.87422C8.42177 8.2202 7.52881 9.05629 7.52881 10.7568C7.52881 12.4574 8.76743 14.1009 8.9401 14.3317C9.11298 14.5621 11.3313 18.1635 14.8445 19.5489C17.7643 20.7003 18.3585 20.4713 18.9922 20.4135C19.626 20.356 21.0373 19.5777 21.3252 18.7706C21.6134 17.9635 21.6134 17.2718 21.527 17.1272C21.4406 16.9832 21.2101 16.8967 20.8644 16.724C20.5186 16.5511 18.8193 15.7149 18.5025 15.5995C18.1856 15.4842 17.9552 15.4267 17.7247 15.7728C17.4942 16.1184 16.8323 16.8967 16.6305 17.1272C16.429 17.3583 16.2273 17.3871 15.8817 17.2142C15.5358 17.0407 14.4227 16.6762 13.102 15.4988C12.0745 14.5826 11.3808 13.4512 11.1791 13.1051C10.9775 12.7596 11.1575 12.5722 11.3308 12.4C11.4861 12.2451 11.6766 11.9964 11.8496 11.7947C12.0219 11.5928 12.0795 11.4488 12.1947 11.2183C12.3101 10.9875 12.2523 10.7857 12.1661 10.6128C12.0795 10.4399 11.4078 8.7305 11.1004 8.0471Z" fill="white"/>
</g>
<defs>
<linearGradient id="paint0_linear_4849_10946" x1="1342.12" y1="2694.62" x2="1342.12" y2="0.483154" gradientUnits="userSpaceOnUse">
<stop stop-color="#1FAF38"/>
<stop offset="1" stop-color="#60D669"/>
</linearGradient>
<linearGradient id="paint1_linear_4849_10946" x1="1389.76" y1="2790.74" x2="1389.76" y2="0" gradientUnits="userSpaceOnUse">
<stop stop-color="#F9F9F9"/>
<stop offset="1" stop-color="white"/>
</linearGradient>
<clipPath id="clip0_4849_10946">
<rect width="27.7829" height="28" fill="white" transform="translate(0.608398)"/>
</clipPath>
</defs>
</svg>
