<svg width="48" height="48" viewBox="0 0 48 48" fill="none" xmlns="http://www.w3.org/2000/svg">
<path fill-rule="evenodd" clip-rule="evenodd" d="M13.1416 8.71582C8.83538 8.71582 6.12326 13.3557 8.23482 17.1082L19.0949 36.4123C21.2481 40.2417 26.7571 40.2393 28.9034 36.4139L39.7641 17.1087C41.8764 13.3516 39.1654 8.71582 34.8576 8.71582L13.1416 8.71582ZM5.62026 18.5793C2.38396 12.8278 6.53983 5.71582 13.1416 5.71582L34.8576 5.71582C41.4618 5.71582 45.6147 12.824 42.3791 18.579L31.5197 37.8818C28.2261 43.7523 19.7789 43.7496 16.4801 37.883L5.62026 18.5793C5.62023 18.5792 5.62028 18.5793 5.62026 18.5793Z" fill="#ADE9C2"/>
<path fill-rule="evenodd" clip-rule="evenodd" d="M23.998 14C24.8265 14 25.498 14.6716 25.498 15.5V22.042C25.498 22.8704 24.8265 23.542 23.998 23.542C23.1696 23.542 22.498 22.8704 22.498 22.042V15.5C22.498 14.6716 23.1696 14 23.998 14Z" fill="#ADE9C2"/>
<path fill-rule="evenodd" clip-rule="evenodd" d="M22.174 29.6008C22.16 28.5695 22.9996 27.7598 23.9939 27.7598C25.0164 27.7598 25.8179 28.5895 25.8179 29.5838C25.8179 30.5658 25.0285 31.4078 23.9979 31.4078C22.9972 31.4078 22.1832 30.5994 22.174 29.6008ZM25.1736 29.5567L25.1739 29.578C25.1739 29.5744 25.1738 29.5709 25.1738 29.5673C25.1738 29.5638 25.1737 29.5602 25.1736 29.5567Z" fill="#ADE9C2"/>
</svg>
