<svg width="48" height="48" viewBox="0 0 48 48" fill="none" xmlns="http://www.w3.org/2000/svg">
<path d="M10 39L10 12.4C10 10.16 10 9.04 10.436 8.184C10.82 7.43 11.43 6.82 12.184 6.436C13.04 6 14.16 6 16.4 6L34.8 6C35.92 6 36.48 6 36.91 6.218C37.2856 6.41008 37.5908 6.716 37.782 7.092C38 7.52 38 8.08 38 9.2V32.8C38 33.92 38 34.48 37.78 34.908C37.5895 35.2839 37.285 35.5898 36.91 35.782C36.48 36 35.92 36 34.804 36H14.5C13.3065 36 12.1619 36.4741 11.318 37.318C10.4741 38.1619 10 39.3065 10 40.5C10 41.328 10.672 42 11.5 42H32.804C33.922 42 34.484 42 34.91 41.782C35.2857 41.5901 35.591 41.2842 35.782 40.908C36 40.48 36 39.92 36 38.8V36" stroke="#ADE9C2" stroke-width="3" stroke-linecap="round" stroke-linejoin="round"/>
</svg>
