<svg width="48" height="48" viewBox="0 0 48 48" fill="none" xmlns="http://www.w3.org/2000/svg">
<path fill-rule="evenodd" clip-rule="evenodd" d="M40.5243 20.1077C39.5301 19.1134 37.918 19.1134 36.9238 20.1077C35.9295 21.102 35.9295 22.714 36.9238 23.7083C37.918 24.7026 39.5301 24.7026 40.5243 23.7083C41.5186 22.714 41.5186 21.102 40.5243 20.1077ZM42.6439 17.9847C40.478 15.8205 36.9677 15.8211 34.8024 17.9864C32.6366 20.1522 32.6366 23.6638 34.8024 25.8296C36.9683 27.9954 40.4798 27.9954 42.6457 25.8296C44.8115 23.6638 44.8115 20.1522 42.6457 17.9864L42.6439 17.9847Z" fill="#ADE9C2"/>
<path fill-rule="evenodd" clip-rule="evenodd" d="M27.3445 12.8854C25.4973 11.0382 22.5025 11.0382 20.6553 12.8854C18.8081 14.7326 18.8081 17.7274 20.6553 19.5746C22.5025 21.4218 25.4974 21.4218 27.3445 19.5746C29.1917 17.7274 29.1917 14.7326 27.3445 12.8854ZM29.4651 10.7633C26.4463 7.74532 21.5525 7.74556 18.534 10.7641C15.5152 13.7828 15.5152 18.6772 18.534 21.6959C21.5527 24.7147 26.4471 24.7147 29.4659 21.6959C32.4846 18.6772 32.4839 13.7821 29.4651 10.7633Z" fill="#ADE9C2"/>
<path fill-rule="evenodd" clip-rule="evenodd" d="M11.0763 20.1077C10.082 19.1134 8.47 19.1134 7.47572 20.1077C6.48145 21.102 6.48144 22.714 7.47572 23.7083C8.46999 24.7026 10.082 24.7026 11.0763 23.7083C12.0706 22.714 12.0706 21.102 11.0763 20.1077ZM13.1959 17.9847C11.0299 15.8205 7.51968 15.8211 5.3544 17.9864C3.18855 20.1522 3.18855 23.6638 5.3544 25.8296C7.52025 27.9954 11.0318 27.9954 13.1976 25.8296C15.3635 23.6638 15.3635 20.1522 13.1976 17.9864L13.1959 17.9847Z" fill="#ADE9C2"/>
<path fill-rule="evenodd" clip-rule="evenodd" d="M37.898 30.808C37.898 29.9796 38.5696 29.308 39.398 29.308H41C44.5904 29.308 47.5 32.2176 47.5 35.808V38C47.5 38.8284 46.8284 39.5 46 39.5C45.1716 39.5 44.5 38.8284 44.5 38V35.808C44.5 33.8744 42.9336 32.308 41 32.308H39.398C38.5696 32.308 37.898 31.6364 37.898 30.808Z" fill="#ADE9C2"/>
<path fill-rule="evenodd" clip-rule="evenodd" d="M7 32.308C5.06643 32.308 3.5 33.8744 3.5 35.808L3.5 38C3.5 38.8284 2.82843 39.5 2 39.5C1.17157 39.5 0.5 38.8284 0.5 38L0.5 35.808C0.5 32.2176 3.40957 29.308 7 29.308H8.602C9.43043 29.308 10.102 29.9796 10.102 30.808C10.102 31.6364 9.43043 32.308 8.602 32.308H7Z" fill="#ADE9C2"/>
<path fill-rule="evenodd" clip-rule="evenodd" d="M11.82 34.798C11.82 30.1036 15.6256 26.298 20.32 26.298H27.678C32.3724 26.298 36.178 30.1036 36.178 34.798V38C36.178 38.8284 35.5064 39.5 34.678 39.5C33.8496 39.5 33.178 38.8284 33.178 38V34.798C33.178 31.7604 30.7156 29.298 27.678 29.298H20.32C17.2824 29.298 14.82 31.7604 14.82 34.798V38C14.82 38.8284 14.1484 39.5 13.32 39.5C12.4916 39.5 11.82 38.8284 11.82 38V34.798Z" fill="#ADE9C2"/>
</svg>
