<svg width="48" height="48" viewBox="0 0 48 48" fill="none" xmlns="http://www.w3.org/2000/svg">
<path fill-rule="evenodd" clip-rule="evenodd" d="M16.6 9.5C11.3076 9.5 7.5 14.5508 7.5 19.52C7.5 21.937 8.45007 24.3332 10.0084 26.6275C11.5653 28.9199 13.6732 31.0263 15.8396 32.8296C18.0002 34.6281 20.1774 36.0908 21.8346 37.1035C22.6622 37.6092 23.3536 37.9987 23.8404 38.2582C23.8968 38.2883 23.95 38.3164 24 38.3425C24.05 38.3164 24.1032 38.2883 24.1596 38.2582C24.6464 37.9987 25.3378 37.6092 26.1654 37.1035C27.8226 36.0908 29.9998 34.6281 32.1604 32.8296C34.3268 31.0263 36.4347 28.9199 37.9916 26.6275C39.5499 24.3332 40.5 21.937 40.5 19.52C40.5 14.5508 36.6924 9.5 31.4 9.5C28.324 9.5 26.3265 11.0192 25.1359 12.3997C24.8509 12.7301 24.4363 12.92 24 12.92C23.5637 12.92 23.1491 12.7301 22.8641 12.3997C21.6735 11.0192 19.676 9.5 16.6 9.5ZM4.5 19.52C4.5 13.3692 9.21241 6.5 16.6 6.5C19.9299 6.5 22.3554 7.83055 24 9.28806C25.6446 7.83055 28.0701 6.5 31.4 6.5C38.7876 6.5 43.5 13.3692 43.5 19.52C43.5 22.733 42.2401 25.7118 40.4734 28.3131C38.7053 30.9164 36.3732 33.2262 34.0796 35.1354C31.7802 37.0494 29.4774 38.5954 27.7296 39.6634C26.8547 40.198 26.1124 40.6168 25.5711 40.9054C25.3016 41.0491 25.0746 41.1644 24.9016 41.2471C24.8171 41.2875 24.7321 41.3265 24.6551 41.3585C24.6184 41.3737 24.5649 41.3952 24.5045 41.4154C24.4748 41.4254 24.426 41.441 24.366 41.4556C24.3277 41.465 24.184 41.5 24 41.5C23.816 41.5 23.6733 41.4652 23.6349 41.4559C23.5749 41.4412 23.5252 41.4254 23.4955 41.4154C23.4351 41.3952 23.3816 41.3737 23.3449 41.3585C23.2679 41.3265 23.1829 41.2875 23.0984 41.2471C22.9254 41.1644 22.6984 41.0491 22.4289 40.9054C21.8876 40.6168 21.1453 40.198 20.2704 39.6634C18.5226 38.5954 16.2198 37.0494 13.9204 35.1354C11.6268 33.2262 9.29475 30.9164 7.52664 28.3131C5.75993 25.7118 4.5 22.733 4.5 19.52Z" fill="#ADE9C2"/>
</svg>
