<svg width="48" height="48" viewBox="0 0 48 48" fill="none" xmlns="http://www.w3.org/2000/svg">
<path fill-rule="evenodd" clip-rule="evenodd" d="M20.7467 8.52466C22.077 5.82756 25.9253 5.82772 27.2552 8.52513L30.9162 15.9476L39.1036 17.138C42.0827 17.571 43.2685 21.2295 41.1149 23.3286L35.1877 29.1006L36.5863 37.2549C37.0944 40.2183 33.9846 42.478 31.3227 41.0806L23.9999 37.232L16.6784 41.0799C14.0134 42.4823 10.9058 40.2156 11.4135 37.255L12.8121 29.1006L6.88538 23.3291C4.7305 21.2288 5.9206 17.5709 8.89594 17.1381L17.0837 15.9475L20.7467 8.52466ZM24.7656 34.2454C24.5401 34.1119 24.2781 34.0365 24.0019 34.0365H23.9979C23.7216 34.0365 23.4596 34.1119 23.2341 34.2454L15.282 38.4247C14.8231 38.6662 14.282 38.2773 14.3703 37.762L15.9023 28.83C15.9858 28.3432 15.8243 27.8464 15.4704 27.5018L8.97885 21.1803C8.60642 20.8166 8.81135 20.182 9.32772 20.1068L18.2957 18.8028C18.7842 18.7318 19.2065 18.4249 19.425 17.9822L23.437 9.85225C23.667 9.38581 24.3345 9.38534 24.5645 9.85178L28.5746 17.982C28.793 18.4248 29.2154 18.7318 29.704 18.8028L38.672 20.1068C39.1886 20.1819 39.395 20.8149 39.0214 21.1798M39.0214 21.1798L32.5294 27.5018C32.1755 27.8464 32.014 28.3432 32.0975 28.83L33.6295 37.7619C33.7173 38.2744 33.1794 38.6667 32.7174 38.4245L24.7656 34.2454" fill="#ADE9C2"/>
</svg>
