<svg width="48" height="48" viewBox="0 0 48 48" fill="none" xmlns="http://www.w3.org/2000/svg">
<path fill-rule="evenodd" clip-rule="evenodd" d="M6.5 38.5C6.5 32.9772 10.9772 28.5 16.5 28.5H31.5C37.0228 28.5 41.5 32.9772 41.5 38.5V40C41.5 40.8284 40.8284 41.5 40 41.5C39.1716 41.5 38.5 40.8284 38.5 40V38.5C38.5 34.634 35.366 31.5 31.5 31.5H16.5C12.634 31.5 9.5 34.634 9.5 38.5V40C9.5 40.8284 8.82843 41.5 8 41.5C7.17157 41.5 6.5 40.8284 6.5 40V38.5Z" fill="#ADE9C2"/>
<path fill-rule="evenodd" clip-rule="evenodd" d="M24 7.5C20.4101 7.5 17.5 10.4101 17.5 14C17.5 17.5899 20.4101 20.5 24 20.5C27.5899 20.5 30.5 17.5899 30.5 14C30.5 10.4101 27.5899 7.5 24 7.5ZM14.5 14C14.5 8.75329 18.7533 4.5 24 4.5C29.2467 4.5 33.5 8.75329 33.5 14C33.5 19.2467 29.2467 23.5 24 23.5C18.7533 23.5 14.5 19.2467 14.5 14Z" fill="#ADE9C2"/>
</svg>
