<?xml version="1.0" standalone="no"?>
<!DOCTYPE svg PUBLIC "-//W3C//DTD SVG 20010904//EN"
 "http://www.w3.org/TR/2001/REC-SVG-20010904/DTD/svg10.dtd">
<svg version="1.0" xmlns="http://www.w3.org/2000/svg"
 width="928.000000pt" height="928.000000pt" viewBox="0 0 928.000000 928.000000"
 preserveAspectRatio="xMidYMid meet">
<metadata>
Created by potrace 1.14, written by Peter Selinger 2001-2017
</metadata>
<g transform="translate(0.000000,928.000000) scale(0.100000,-0.100000)"
fill="#000000" stroke="none">
<path d="M2425 8774 c-209 -25 -431 -81 -630 -161 -60 -24 -111 -46 -113 -48
-2 -2 27 -20 66 -39 240 -121 474 -414 707 -884 114 -229 192 -418 222 -531
34 -131 43 -347 19 -476 -85 -457 -421 -841 -804 -915 -40 -8 -108 -11 -190
-7 -148 6 -232 27 -368 91 -343 162 -591 472 -670 836 -43 196 -8 788 66 1120
10 46 17 86 15 88 -6 7 -148 -183 -235 -315 -223 -338 -382 -735 -459 -1143
-61 -328 -61 -703 0 -1030 103 -547 376 -1127 790 -1680 l94 -125 7 160 c5
108 13 183 26 230 14 51 281 758 356 946 5 12 -3 20 -33 31 -65 26 -76 53 -76
194 0 108 2 126 21 151 47 64 32 63 639 63 607 0 592 1 639 -63 19 -25 21 -43
21 -151 0 -141 -11 -168 -76 -194 -22 -8 -38 -20 -36 -26 208 -556 339 -912
349 -951 10 -40 13 -256 13 -1030 l0 -980 -22 -45 c-13 -24 -19 -47 -15 -51
47 -44 725 -514 790 -548 l22 -12 -26 58 c-44 100 -112 297 -153 440 -121 428
-153 807 -87 1026 35 119 75 202 137 292 68 99 205 228 307 289 102 61 256
114 372 129 l89 11 -38 45 c-110 134 -164 318 -146 504 10 114 20 121 144 114
264 -15 510 -181 613 -415 l21 -47 23 67 c33 100 82 185 144 252 63 68 157
133 207 142 47 9 75 -17 71 -65 -3 -32 -9 -39 -63 -69 -173 -96 -267 -285
-282 -566 -6 -115 -6 -119 13 -112 357 143 504 170 709 127 299 -62 560 -261
694 -530 116 -232 136 -444 76 -796 -24 -141 -91 -426 -115 -489 -6 -16 -8
-31 -6 -34 6 -5 89 53 297 209 687 516 1260 1052 1697 1587 l92 114 -62 48
c-35 26 -106 85 -158 132 l-95 85 -250 -5 c-224 -4 -447 6 -552 24 l-33 6 0
-109 c0 -172 -15 -180 -218 -113 -151 50 -218 79 -308 135 -112 70 -203 182
-204 251 0 17 -22 30 -118 73 -501 219 -973 615 -1277 1072 -86 129 -145 238
-145 270 0 41 28 57 151 85 209 47 361 65 594 71 316 8 530 -19 827 -103 l127
-36 47 36 c182 139 439 150 709 31 89 -40 242 -132 249 -150 18 -48 8 -62
-129 -177 -74 -62 -135 -115 -134 -118 0 -3 35 -30 77 -60 216 -154 518 -444
705 -678 54 -67 101 -122 105 -122 4 0 16 7 27 16 58 44 315 94 481 94 l85 0
78 160 c354 720 435 1408 251 2132 -100 392 -307 809 -571 1148 -40 52 -128
151 -194 219 -445 458 -979 728 -1575 796 -450 51 -909 -15 -1305 -188 -118
-51 -262 -128 -296 -158 l-24 -21 25 7 c14 4 47 13 75 21 58 16 171 18 235 3
131 -30 271 -138 333 -257 45 -86 61 -181 47 -279 -5 -38 -10 -73 -10 -80 0
-6 24 -19 53 -29 69 -22 121 -59 190 -133 177 -192 183 -475 15 -667 -30 -34
-31 -37 -16 -62 69 -121 71 -307 3 -447 -89 -186 -327 -306 -522 -264 l-69 15
-43 -48 c-28 -31 -68 -60 -118 -85 -70 -35 -84 -38 -178 -41 -164 -6 -280 32
-388 129 l-58 52 -73 -34 -73 -34 -169 -338 c-107 -215 -179 -347 -196 -362
-35 -30 -92 -49 -127 -42 -42 9 -623 312 -653 341 -34 33 -44 82 -29 142 6 25
85 192 175 372 162 324 163 327 152 366 l-11 40 -86 17 c-106 21 -171 53 -247
124 -117 108 -171 229 -172 381 0 50 5 105 11 122 10 28 8 32 -40 77 -63 59
-103 122 -131 205 -19 56 -21 81 -18 175 4 103 7 115 42 185 115 228 160 266
380 318 25 6 32 16 51 72 29 87 67 158 105 199 17 18 30 34 28 36 -8 6 -172
65 -233 83 -123 37 -286 70 -420 86 -161 20 -463 19 -630 0z m4581 -763 c196
-76 378 -230 460 -392 24 -47 44 -64 44 -35 0 7 19 51 42 97 32 65 61 104 128
171 108 110 119 111 184 28 55 -70 127 -202 151 -280 10 -30 19 -56 20 -58 1
-1 16 5 33 15 29 17 31 17 52 -2 63 -57 160 -224 196 -337 17 -57 18 -58 40
-43 42 27 58 19 116 -62 123 -172 178 -326 178 -498 0 -116 -16 -189 -65 -293
-37 -78 -69 -126 -124 -185 -31 -32 -34 -40 -24 -57 7 -10 103 -132 213 -270
149 -187 200 -259 200 -279 0 -59 -59 -70 -106 -18 -17 17 -111 133 -209 257
-97 124 -183 231 -189 237 -9 10 -28 5 -89 -26 -214 -108 -449 -109 -647 -5
-94 49 -195 130 -267 212 -67 76 -78 109 -47 143 14 16 14 19 -13 35 -107 65
-177 124 -255 213 -51 58 -60 91 -31 123 9 10 14 20 12 21 -2 2 -38 25 -79 52
-78 49 -233 199 -245 235 -13 42 4 68 78 117 82 55 185 97 280 113 l64 11 -65
62 c-171 164 -262 374 -262 604 0 127 7 138 89 130 31 -2 92 -19 137 -36z"/>
<path d="M6897 7868 c25 -283 206 -525 467 -623 99 -37 100 -37 92 38 -30 287
-266 564 -539 632 -24 6 -24 5 -20 -47z"/>
<path d="M7725 7733 c-118 -147 -156 -313 -113 -493 20 -83 125 -290 148 -290
4 0 10 35 14 78 11 139 56 268 128 368 31 44 32 46 21 97 -6 29 -21 77 -32
108 -24 63 -93 181 -109 187 -6 2 -32 -23 -57 -55z"/>
<path d="M8033 7365 c-152 -170 -178 -400 -72 -634 33 -73 87 -161 99 -161 4
0 10 38 14 85 12 145 51 259 121 355 19 26 35 57 35 68 0 55 -73 234 -128 315
l-19 28 -50 -56z"/>
<path d="M7015 7117 c-54 -14 -148 -56 -179 -79 -18 -14 -15 -18 43 -74 72
-70 209 -157 249 -157 15 0 59 13 97 28 57 23 91 29 183 33 67 3 137 0 173 -7
34 -7 64 -9 67 -6 11 11 -148 156 -210 193 -93 55 -162 75 -273 78 -59 2 -121
-2 -150 -9z"/>
<path d="M8331 6993 c-81 -95 -141 -250 -141 -365 0 -103 81 -329 149 -417
l18 -24 47 59 c141 178 171 383 89 594 -26 67 -102 200 -115 200 -3 0 -25 -21
-47 -47z"/>
<path d="M7375 6754 c-106 -23 -255 -83 -255 -104 0 -12 112 -114 162 -148 26
-18 71 -43 99 -56 l51 -24 51 23 c112 51 265 67 387 40 85 -18 96 -7 45 46
-152 156 -389 254 -540 223z"/>
<path d="M7627 6369 c-49 -10 -145 -49 -185 -75 l-23 -15 21 -26 c41 -53 144
-133 221 -173 128 -66 248 -84 383 -55 68 14 206 71 206 85 0 16 -149 147
-203 179 -105 62 -171 83 -276 87 -53 2 -118 -1 -144 -7z"/>
<path d="M3801 8495 c-55 -51 -99 -143 -121 -247 -14 -72 -35 -88 -110 -88
-85 0 -159 -26 -200 -69 -19 -20 -57 -80 -85 -132 -50 -94 -50 -94 -50 -189 0
-75 4 -104 21 -141 27 -57 74 -111 141 -161 61 -44 63 -56 32 -138 -47 -124
-5 -283 103 -390 56 -56 109 -84 186 -101 47 -10 61 -8 133 15 121 39 210 110
259 206 30 59 56 68 132 44 98 -30 189 -24 278 17 67 31 74 32 98 18 15 -8 30
-26 34 -39 29 -108 42 -142 68 -187 18 -32 51 -68 85 -93 63 -47 67 -63 35
-148 -27 -72 -27 -173 2 -249 30 -81 131 -182 208 -209 82 -28 250 -27 305 3
42 22 97 76 135 131 20 30 27 33 59 29 20 -3 61 -13 91 -22 149 -45 339 43
410 190 18 37 25 71 28 135 5 102 -7 152 -53 219 -48 69 -46 87 21 149 37 35
66 75 87 120 28 59 32 76 31 148 -2 99 -15 142 -67 217 -55 78 -115 120 -212
148 -122 34 -132 49 -104 149 29 101 26 201 -10 275 -50 106 -160 186 -287
208 -79 14 -171 -8 -254 -59 -60 -37 -84 -39 -115 -8 -8 9 -15 31 -15 50 0 19
-4 34 -9 34 -29 0 -268 -208 -373 -325 -40 -44 -75 -80 -78 -80 -3 0 -36 34
-74 75 -167 186 -405 372 -638 499 l-77 42 -50 -46z"/>
<path d="M1420 8427 c-174 -107 -395 -278 -468 -361 -70 -80 -152 -446 -181
-806 -38 -465 -20 -632 91 -855 157 -316 471 -546 800 -586 317 -38 635 159
816 507 91 177 128 346 119 552 -6 156 -26 236 -109 431 -206 489 -461 881
-681 1047 -81 61 -191 113 -253 119 -46 5 -55 1 -134 -48z m342 -945 c82 -27
146 -68 214 -138 267 -270 301 -769 70 -1031 -98 -111 -243 -166 -380 -144
-310 51 -522 378 -503 774 13 274 145 477 352 543 60 19 183 17 247 -4z"/>
<path d="M1522 7374 c-102 -38 -207 -181 -237 -321 -26 -123 -13 -313 29 -431
48 -133 149 -258 249 -306 29 -15 78 -32 110 -38 119 -25 246 34 324 151 67
98 88 180 88 336 0 150 -14 216 -74 341 -49 102 -136 198 -223 244 -54 29 -75
34 -143 37 -54 2 -94 -2 -123 -13z m106 -60 c41 -28 29 -63 -42 -127 -105 -93
-154 -218 -140 -359 8 -78 -2 -98 -47 -98 -38 0 -56 30 -64 110 -17 168 75
369 212 459 54 36 52 36 81 15z"/>
<path d="M4470 6964 c-25 -7 -71 -13 -104 -13 -44 -1 -57 -4 -53 -14 3 -8 15
-63 27 -123 12 -60 27 -112 32 -115 6 -4 65 18 133 49 l123 55 -39 74 c-22 41
-39 80 -39 88 0 17 -18 17 -80 -1z"/>
<path d="M4128 6845 c-49 -45 -139 -99 -200 -118 -15 -5 -15 -10 -2 -53 8 -26
14 -58 14 -71 0 -12 -77 -176 -170 -363 -94 -187 -171 -349 -173 -361 -2 -17
40 -42 287 -169 234 -121 292 -147 304 -138 8 7 91 167 185 356 l170 344 76
35 c42 19 78 36 80 38 1 2 -5 34 -14 71 -9 37 -17 110 -18 163 l-1 97 -128
-58 c-71 -32 -141 -58 -156 -58 -15 0 -50 11 -79 24 -58 27 -54 18 -93 206
-13 58 -23 106 -24 107 0 0 -27 -23 -58 -52z"/>
<path d="M5585 5459 c-192 -10 -495 -58 -495 -78 0 -13 108 -181 167 -261 131
-175 350 -407 376 -397 22 8 134 142 188 224 53 81 100 196 119 286 12 60 19
211 10 220 -10 9 -239 13 -365 6z m98 -71 c21 -25 22 -57 1 -86 -13 -19 -24
-22 -57 -20 -52 4 -77 39 -62 85 19 53 81 64 118 21z"/>
<path d="M6907 5460 c-39 -10 -142 -59 -135 -65 1 -1 54 -26 116 -53 62 -28
170 -83 238 -122 69 -40 131 -69 137 -67 11 5 161 129 196 162 11 11 -1 21
-75 58 -132 66 -211 88 -334 93 -58 2 -122 -1 -143 -6z"/>
<path d="M6077 5334 c-12 -228 -109 -442 -284 -625 l-73 -76 28 -25 c42 -39
208 -159 297 -215 372 -232 777 -370 1260 -429 190 -24 584 -24 790 0 82 9
151 19 154 21 5 6 -108 163 -199 275 -436 538 -977 920 -1554 1095 -116 35
-266 68 -362 81 l-51 6 -6 -108z"/>
<path d="M1332 5118 l3 -93 54 0 c55 -1 81 -18 81 -55 0 -9 -88 -245 -195
-524 -107 -278 -195 -513 -195 -521 0 -12 68 -14 488 -9 268 2 623 7 788 10
l302 6 -8 27 c-8 28 -305 826 -345 929 -42 105 -30 133 56 136 l54 1 3 93 3
92 -546 0 -546 0 3 -92z"/>
<path d="M8655 4189 c-49 -5 -124 -16 -165 -25 -74 -16 -160 -50 -160 -63 0
-3 21 -37 45 -75 74 -113 59 -145 -75 -164 -46 -7 -86 -14 -88 -17 -9 -9 194
-175 213 -175 24 1 362 510 347 524 -3 3 -10 5 -16 5 -6 -1 -51 -5 -101 -10z"/>
<path d="M4140 4001 c0 -212 102 -382 284 -471 78 -39 214 -80 263 -80 20 0
23 5 23 38 -1 198 -140 418 -320 505 -78 38 -174 67 -222 67 -27 0 -28 -1 -28
-59z"/>
<path d="M6671 3926 c62 -58 172 -117 312 -165 l87 -30 0 69 c0 64 -2 70 -22
75 -13 3 -59 12 -103 21 -43 9 -133 31 -198 50 -65 19 -122 34 -125 34 -4 -1
18 -25 49 -54z"/>
<path d="M1383 3803 l-323 -3 0 -203 1 -202 54 -60 55 -60 0 191 c0 172 2 193
18 207 23 21 41 21 70 1 22 -15 22 -18 22 -272 l0 -257 164 -170 c180 -187
433 -426 656 -617 193 -166 532 -438 547 -438 30 0 33 84 33 983 l0 907 -487
-2 c-269 -2 -633 -4 -810 -5z"/>
<path d="M4055 3373 c-314 -67 -569 -320 -646 -640 -74 -308 60 -969 296
-1459 l63 -130 169 -101 c222 -133 397 -231 565 -315 l138 -69 92 44 c259 125
719 396 1149 679 l197 129 46 142 c58 178 99 341 133 527 22 118 27 176 27
315 1 149 -2 180 -22 250 -80 276 -292 507 -549 596 -217 75 -374 64 -658 -47
-194 -76 -234 -78 -380 -18 -238 99 -453 133 -620 97z m-171 -234 c46 -36 33
-80 -34 -114 -100 -51 -183 -178 -221 -340 -29 -124 -38 -139 -78 -143 -41 -4
-71 21 -71 58 0 53 50 223 87 298 47 94 141 197 214 235 64 32 69 33 103 6z"/>
</g>
</svg>
