<svg width="375" height="812" viewBox="0 0 375 812" fill="none" xmlns="http://www.w3.org/2000/svg">
<g clip-path="url(#clip0_3651_8740)">
<rect width="375" height="812" fill="#EDFAF1"/>
<path d="M324.306 103.541C350.823 126.244 383.49 132.575 400.461 120.891C425.733 103.492 397.273 52.5493 370.755 29.8466C344.238 7.14385 313.008 0.339823 300.077 34.6522C292.696 54.2355 297.788 80.8386 324.306 103.541Z" fill="#19C152" fill-opacity="0.3"/>
<path d="M421 448.008V812H-97C-69.1161 702.745 1.77455 664.606 29.398 647.696C34.1461 644.786 42.1529 640.483 47.3801 637.743C49.8508 636.442 49.4915 639.05 52.0715 637.771C55.3784 636.136 58.7736 634.507 62.2569 632.883C64.2444 631.952 66.2628 631.021 68.3119 630.092C69.1859 629.694 70.0501 629.296 70.9045 628.898C73.8164 627.535 76.6093 626.167 79.2831 624.794C86.5673 621.093 93.6138 616.935 100.381 612.343C108.207 607.051 115.492 600.986 122.126 594.239C123.361 592.977 125.004 592.008 125.689 590.448C203.715 412.709 372.5 449.944 421 448.008Z" fill="#19C152" fill-opacity="0.3"/>
<path d="M-32.7294 672.667C-32.7294 672.667 9.78368 669.19 24.9351 712.387C39.5608 754.046 74.7127 797.06 134.475 785.492L94.9571 667.103C89.8202 663.415 84.893 659.444 80.1985 655.207C43.5725 622.17 -32.7294 672.667 -32.7294 672.667Z" fill="#4B9F8A"/>
<path d="M113.53 728.794C113.53 728.794 94.2113 734.557 74.0537 700.856C53.896 667.154 17.5142 666.964 17.5142 666.964" stroke="#3B7D6C" stroke-width="1.00973" stroke-miterlimit="10" stroke-linecap="round"/>
<path d="M287.215 615.329C287.215 615.329 288.99 592.178 305.418 589.774C321.845 587.37 333.722 576.288 333.722 576.288C333.722 576.288 340.14 588.264 327.402 599.107C314.664 609.95 333.502 632.32 314.293 654.814" stroke="#3B7D6C" stroke-width="1.23265" stroke-miterlimit="10" stroke-linecap="round"/>
<path d="M323.422 593.322C323.422 593.322 320.409 601.656 307.461 605.122C294.512 608.588 298.603 629.467 298.603 629.467" stroke="#3B7D6C" stroke-width="1.23265" stroke-miterlimit="10" stroke-linecap="round"/>
<path d="M299.633 651.911C299.633 651.911 313.101 633.15 298.437 616.403C283.772 599.655 285.661 582.878 299.27 571.076C312.879 559.275 290.726 542.184 290.726 542.184C290.726 542.184 293.03 553.778 275.486 559.876C257.941 565.974 245.855 582.234 255.398 597.563C264.94 612.893 243.93 636.484 243.93 636.484L299.633 651.911Z" fill="#4B9F8A"/>
<path d="M290.305 561.602C290.305 561.602 290.422 565.693 276.114 574.487C261.806 583.281 271.724 599.364 281.493 615.985C291.262 632.607 272.859 644.905 272.859 644.905" stroke="#3B7D6C" stroke-width="1.23265" stroke-miterlimit="10" stroke-linecap="round"/>
<path d="M313.134 741.52C313.134 741.52 307.273 711.63 327.199 702.839C347.126 694.048 358.261 675.88 358.261 675.88C358.261 675.88 370.568 688.773 358.261 706.942C345.953 725.11 377.601 746.794 361.191 781.958" stroke="#3B7D6C" stroke-width="1.61703" stroke-miterlimit="10" stroke-linecap="round"/>
<path d="M351.204 701.021C351.204 701.021 350.312 712.612 335.155 721.527C319.999 730.443 332.481 755.407 332.481 755.407" stroke="#3B7D6C" stroke-width="1.61703" stroke-miterlimit="10" stroke-linecap="round"/>
<mask id="mask0_3651_8740" style="mask-type:luminance" maskUnits="userSpaceOnUse" x="73" y="551" width="228" height="233">
<path d="M239.403 783.953L300.894 725.521L135.116 551.064L73.6241 609.496L239.403 783.953Z" fill="white"/>
</mask>
<g mask="url(#mask0_3651_8740)">
<path d="M162.17 670.434C162.17 670.434 168.29 656.605 157.268 650.018C146.246 643.431 132.735 633.681 134.42 619.553C136.104 605.424 120.273 599.754 120.273 599.754C120.273 599.754 123.903 617.382 114.453 626.457C105.002 635.533 112.993 650.242 112.993 650.242" stroke="#3B7D6C" stroke-width="1.14175" stroke-miterlimit="10" stroke-linecap="round"/>
<path d="M126.15 614.204C126.15 614.204 128.113 618.664 123.95 629.601C118.234 644.622 137.264 650.338 131.833 670.643" stroke="#3B7D6C" stroke-width="1.14175" stroke-miterlimit="10" stroke-linecap="round"/>
<path d="M236.963 757.469C236.963 757.469 248.193 735.899 220.954 722.009C193.715 708.119 191.877 679.31 198.873 656.445C205.868 633.579 168.033 610.428 168.033 610.428C168.033 610.428 178.284 628.382 162.422 643.905C146.56 659.427 134.588 684.937 154.813 709.647C171.85 730.462 160.803 783.01 176.982 802.778L236.963 757.469Z" fill="#4B9F8A"/>
<path d="M180.424 635.235C180.424 635.235 183.6 646.24 172.923 662.605C162.246 678.969 160.264 705.41 178.388 723.169C196.512 740.928 195.037 777.121 195.037 777.121" stroke="#3B7D6C" stroke-width="1.14175" stroke-miterlimit="10" stroke-linecap="round"/>
</g>
<path d="M105.797 654.958C105.323 655.432 99.819 642.791 99.819 642.791L98.8897 625.386C98.8176 623.969 98.3999 622.591 97.6732 621.372C96.9464 620.154 95.9325 619.131 94.72 618.394C93.1064 617.42 88.4543 616.839 85.7604 616.494C85.7604 616.494 77.2225 584.16 71.5289 586.22C66.7814 587.938 71.5289 611.723 71.5289 611.723C71.5289 611.723 62.9782 611.669 60.5891 619.348C60.5891 619.348 54.4457 621.055 53.8446 629.593C52.5246 630.381 51.4803 631.557 50.8548 632.962C50.2292 634.366 50.053 635.929 50.3501 637.437C51.5447 644.434 54.927 648.762 59.3946 648.017C59.3946 648.017 62.7799 658.261 68.9228 659.377L75.8104 675.945C75.8104 675.945 106.17 654.585 105.797 654.958Z" fill="#F59C7D"/>
<path d="M65.429 668.594C65.429 668.594 91.0595 773.606 144.017 784.719L301.097 788.01C306.295 788.042 311.436 786.918 316.146 784.719C320.857 782.52 325.02 779.302 328.333 775.296C331.646 771.29 334.028 766.598 335.304 761.558C336.581 756.519 336.721 751.259 335.714 746.158L320.406 668.594C318.442 658.56 313.731 649.268 306.798 641.752C299.865 634.237 290.983 628.794 281.139 626.028C273.937 624.022 266.628 622.417 259.247 621.222C238.193 617.829 216.747 617.641 195.637 620.667C190.54 621.389 185.573 622.836 180.887 624.965C168.379 630.678 158.44 640.836 153.001 653.466L141.358 680.405L111.287 644.448C111.287 644.448 80.4668 650.286 65.429 668.594Z" fill="white"/>
<path d="M179.971 625.29L203.694 689.699L210.157 707.242L220.346 690.454L262.294 621.358C240.175 617.793 217.644 617.597 195.467 620.775C190.113 621.533 184.895 623.054 179.971 625.29Z" fill="#FFF8E0"/>
<path d="M85.6987 616.664C85.6987 616.664 67.5212 619.694 68.9507 625.662C69.965 629.896 78.3643 631.739 82.0455 632.284C82.1726 632.302 82.2922 632.355 82.3906 632.438C82.4889 632.52 82.562 632.629 82.6015 632.751C82.6411 632.873 82.6454 633.004 82.6141 633.128C82.5828 633.253 82.517 633.366 82.4244 633.455C80.5234 635.294 77.1233 640.009 77.9951 649.723" stroke="#402A45" stroke-width="0.840512" stroke-miterlimit="10" stroke-linecap="round"/>
<path d="M60.5892 619.348C60.4185 629.758 67.0376 640.197 70.6575 640.167C75.7179 640.126 74.8163 630.58 74.8163 630.58" stroke="#402A45" stroke-width="0.840512" stroke-miterlimit="10" stroke-linecap="round"/>
<path d="M53.8445 629.593C53.8445 629.593 58.5412 646.311 64.8552 645.969C71.1692 645.628 70.6573 640.167 70.6573 640.167" stroke="#402A45" stroke-width="0.840512" stroke-miterlimit="10" stroke-linecap="round"/>
<path d="M71.5288 611.723C71.5288 611.723 73.6624 617.155 73.5805 620.185" stroke="#402A45" stroke-width="0.840512" stroke-miterlimit="10" stroke-linecap="round"/>
<path d="M58.6902 648.053C59.5451 648.127 60.3959 647.869 61.0663 647.334C61.7366 646.798 62.1751 646.025 62.2909 645.174" stroke="#402A45" stroke-width="0.840512" stroke-miterlimit="10" stroke-linecap="round"/>
<path d="M236.966 589.992L240.323 619.008L220.44 630.432C218.951 631.287 217.218 631.619 215.518 631.374C213.818 631.129 212.25 630.321 211.063 629.08L202.911 620.553L201.152 607.505L226.578 588.96L236.966 589.992Z" fill="#F59C7D"/>
<path d="M184.56 565.12C187.054 568.462 190.345 571.126 194.133 572.868C195.372 573.438 196.692 573.98 198.08 574.5C213.579 580.34 236.926 583.256 236.926 583.256C236.926 583.256 244.914 562.029 225.807 554.001C225.025 553.666 224.196 553.359 223.32 553.079C219.942 551.986 216.478 551.179 212.965 550.665C204.512 549.435 197.447 550.136 191.593 550.362C191.448 550.366 191.304 550.376 191.164 550.389C184.008 550.977 180.161 559.303 184.56 565.12Z" fill="#4D4D4D"/>
<path d="M189.191 569.28C188.748 569.834 186.588 606.67 201.26 612.113C201.718 612.283 202.177 612.439 202.635 612.581C216.525 616.892 230.726 606.621 231.762 592.114L231.787 591.761C231.787 591.761 240.932 593.478 243.383 587.502C245.307 582.81 243.042 578.449 238.454 578.449C237.31 578.429 236.181 578.708 235.178 579.258C234.174 579.808 233.332 580.61 232.734 581.585C232.734 581.585 225.165 580.318 227.528 566.677C227.528 566.677 205.283 549.165 189.191 569.28Z" fill="#F59C7D"/>
<path d="M233.068 578.968L232.629 584.782C232.585 585.361 232.331 585.903 231.915 586.307C231.499 586.711 230.95 586.948 230.37 586.975C229.993 586.994 229.618 586.922 229.274 586.765C228.931 586.608 228.631 586.371 228.399 586.074C226.101 583.106 219.922 573.653 225.605 563.894L232.172 565.834L233.068 578.968Z" fill="#4D4D4D"/>
<path d="M215.162 572.797C223.664 572.797 230.556 568.155 230.556 562.43C230.556 556.704 223.664 552.062 215.162 552.062C206.661 552.062 199.769 556.704 199.769 562.43C199.769 568.155 206.661 572.797 215.162 572.797Z" fill="#4D4D4D"/>
<path d="M173.535 558.259C173.535 567.372 182.892 574.753 194.427 574.753C195.649 574.754 196.87 574.67 198.08 574.5C207.88 573.14 215.32 566.386 215.32 558.259C215.32 558.128 215.315 557.992 215.311 557.857C215.225 555.533 214.371 553.056 212.965 550.665C208.897 543.749 200.173 537.516 191.729 537.516C189.847 537.508 187.978 537.834 186.21 538.479C178.096 541.448 173.535 550.719 173.535 558.259Z" fill="#4D4D4D"/>
<path d="M197.747 596.949C197.747 601.355 202.092 604.937 207.443 604.937C212.809 604.937 217.138 601.355 217.138 596.949C217.137 596.393 217.065 595.84 216.925 595.303C213.784 596.476 209.425 597.208 204.607 597.208C202.316 597.215 200.027 597.041 197.763 596.69C197.75 596.776 197.745 596.862 197.747 596.949Z" fill="white"/>
<path d="M240.052 585.355C240.052 585.923 239.884 586.479 239.568 586.951C239.253 587.423 238.804 587.792 238.279 588.009C237.754 588.226 237.177 588.283 236.619 588.173C236.062 588.062 235.55 587.788 235.149 587.386C234.747 586.985 234.473 586.473 234.362 585.916C234.251 585.358 234.308 584.781 234.526 584.256C234.743 583.731 235.111 583.282 235.584 582.967C236.056 582.651 236.612 582.482 237.18 582.482C237.557 582.482 237.931 582.557 238.279 582.701C238.628 582.845 238.944 583.057 239.211 583.324C239.478 583.591 239.689 583.907 239.834 584.256C239.978 584.604 240.052 584.978 240.052 585.355Z" fill="#ED8B67"/>
<path d="M201.26 612.114C201.26 612.114 217.446 620.655 230.954 604.294" stroke="#402A45" stroke-width="0.840512" stroke-miterlimit="10" stroke-linecap="round"/>
<path d="M215.222 633.173L227.373 649.35L251.236 627.101" stroke="#402A45" stroke-width="0.840512" stroke-miterlimit="10" stroke-linecap="round"/>
<path d="M212.218 636.774L201.254 649.672L189.001 624.843" stroke="#402A45" stroke-width="0.840512" stroke-miterlimit="10" stroke-linecap="round"/>
<path d="M223.435 644.153L213.443 655.294L206.243 643.531L215.033 633.003L223.435 644.153Z" fill="#402A45"/>
<path d="M203.694 689.698L210.158 707.241L220.346 690.453L216.477 646.449L212.395 646.742L203.694 689.698Z" fill="#402A45"/>
<path d="M199.257 666.473L234.025 749.491C234.241 750.007 234.325 750.568 234.269 751.125C234.212 751.681 234.018 752.215 233.704 752.677C233.389 753.14 232.964 753.516 232.467 753.772C231.97 754.029 231.417 754.157 230.857 754.145L164.365 752.76C163.721 752.747 163.094 752.548 162.56 752.189C162.026 751.83 161.606 751.324 161.351 750.733L127.605 672.517C127.391 672.019 127.3 671.478 127.34 670.937C127.38 670.397 127.55 669.875 127.836 669.415C128.121 668.955 128.514 668.571 128.981 668.295C129.447 668.02 129.973 667.861 130.514 667.833L195.984 664.417C196.675 664.381 197.36 664.559 197.946 664.927C198.532 665.295 198.989 665.835 199.257 666.473Z" fill="#FFC700"/>
<path d="M186.524 710.853C182.628 709.84 163.045 701.665 158.507 698.903C151.049 694.363 149.755 711.033 166.628 714.585C167.257 714.981 152.588 714.363 145.901 709.905C142.876 707.888 131.19 716.147 144.727 722.98C144.727 722.98 136.296 727.844 148.294 735.951C148.294 735.951 143.43 742.113 154.455 747.301C154.455 747.301 150.805 752.257 158.347 755.084C169.117 759.12 197.908 756.056 197.908 756.056L203.427 715.251L186.524 710.853Z" fill="#F59C7D"/>
<path d="M213.391 582.865C213.651 583.794 214.261 584.435 214.753 584.297C215.245 584.159 215.432 583.294 215.172 582.365C214.911 581.436 214.301 580.795 213.809 580.933C213.318 581.071 213.13 581.936 213.391 582.865Z" fill="#402A45"/>
<path d="M196.576 583.911C196.837 584.841 197.447 585.482 197.939 585.344C198.43 585.206 198.618 584.341 198.357 583.412C198.097 582.483 197.487 581.842 196.995 581.98C196.503 582.118 196.316 582.982 196.576 583.911Z" fill="#402A45"/>
<path d="M276.344 668.677C276.344 668.677 275.119 687.365 277.57 722.904C277.57 722.904 245.401 712.794 200.365 702.99" stroke="#402A45" stroke-width="0.840512" stroke-miterlimit="10" stroke-linecap="round"/>
<path d="M277.57 626.548L253.758 654.063L264.341 660.149L219.96 713.49" stroke="#C7C5E6" stroke-width="0.840512" stroke-miterlimit="10" stroke-linecap="round"/>
<path d="M167.75 634.69L183.272 652.738L173.235 656.179L181.172 674.729" stroke="#C7C5E6" stroke-width="0.840512" stroke-miterlimit="10" stroke-linecap="round"/>
<path d="M152.908 670.927L174.195 670.148C174.396 670.141 174.592 670.084 174.767 669.984C174.942 669.883 175.089 669.741 175.196 669.571C175.303 669.4 175.367 669.206 175.383 669.005C175.398 668.804 175.364 668.602 175.283 668.418L173.557 664.46C173.458 664.232 173.292 664.04 173.082 663.908C172.872 663.775 172.627 663.71 172.378 663.719L151.092 664.498C150.891 664.505 150.694 664.562 150.519 664.662C150.345 664.763 150.198 664.905 150.09 665.075C149.983 665.246 149.919 665.44 149.904 665.641C149.889 665.842 149.923 666.044 150.003 666.228L151.729 670.186C151.828 670.414 151.994 670.606 152.204 670.738C152.415 670.871 152.66 670.936 152.908 670.927Z" fill="#402A45"/>
<path d="M193.028 756.133C193.028 756.133 192.895 761.356 193.912 769.83" stroke="#C7C5E6" stroke-width="0.840512" stroke-miterlimit="10" stroke-linecap="round"/>
<path d="M294.043 736.256C294.043 736.256 284.825 726.5 277.57 722.903" stroke="#C7C5E6" stroke-width="0.840512" stroke-miterlimit="10" stroke-linecap="round"/>
<path d="M219.295 577.62C219.295 577.62 217.414 574.848 211.811 575.344" stroke="#402A45" stroke-width="0.840512" stroke-miterlimit="10" stroke-linecap="round"/>
<path d="M198.433 576.537C197.275 576.521 196.127 576.758 195.07 577.233C194.013 577.707 193.073 578.407 192.315 579.284" stroke="#402A45" stroke-width="0.840512" stroke-miterlimit="10" stroke-linecap="round"/>
<path d="M144.728 722.979C144.728 722.979 148.359 724.847 154.528 725.172" stroke="#402A45" stroke-width="0.840512" stroke-miterlimit="10" stroke-linecap="round"/>
<path d="M157.125 737.185C157.125 737.185 151.477 737.313 148.294 735.951" stroke="#402A45" stroke-width="0.840512" stroke-miterlimit="10" stroke-linecap="round"/>
<path d="M160.696 748.224C160.696 748.224 156.007 748.324 154.456 747.3" stroke="#402A45" stroke-width="0.840512" stroke-miterlimit="10" stroke-linecap="round"/>
<path d="M165.281 714.508L171.163 715.086" stroke="#402A45" stroke-width="0.840512" stroke-miterlimit="10" stroke-linecap="round"/>
<path d="M186.209 538.479V538.506C186.209 542.967 188.054 547.085 191.164 550.389C195.63 555.14 202.713 558.209 210.686 558.209C212.235 558.21 213.78 558.092 215.311 557.857C219.037 557.305 222.609 555.992 225.807 554.001C225.025 553.667 224.196 553.359 223.32 553.079C219.942 551.987 216.478 551.179 212.965 550.665C208.896 543.749 200.172 537.516 191.729 537.516C189.846 537.508 187.978 537.834 186.209 538.479Z" fill="#4D4D4D"/>
<path d="M222.432 591.197C225.91 587.718 225.91 582.079 222.432 578.6C218.954 575.122 213.314 575.122 209.836 578.6C206.358 582.079 206.358 587.718 209.836 591.197C213.314 594.675 218.954 594.675 222.432 591.197Z" stroke="white" stroke-width="0.840512" stroke-miterlimit="10"/>
<path d="M199.979 591.197C203.458 587.718 203.458 582.079 199.979 578.6C196.501 575.122 190.862 575.122 187.383 578.6C183.905 582.079 183.905 587.718 187.383 591.197C190.862 594.675 196.501 594.675 199.979 591.197Z" stroke="white" stroke-width="0.840512" stroke-miterlimit="10"/>
<path d="M238.455 578.45C238.455 578.45 234.371 577.784 225.041 584.898" stroke="white" stroke-width="0.840512" stroke-miterlimit="10"/>
<path d="M207.126 584.15L202.517 584.241" stroke="white" stroke-width="0.840512" stroke-miterlimit="10"/>
<path d="M0.10376 787.753C0.10376 787.996 0.116317 788.236 0.13733 788.471H378.011C378.032 788.236 378.044 787.996 378.044 787.753C378.045 786.766 377.851 785.789 377.474 784.878C377.097 783.966 376.544 783.138 375.846 782.441C375.149 781.743 374.321 781.19 373.409 780.813C372.498 780.436 371.521 780.242 370.534 780.243H7.61373C6.62749 780.243 5.65091 780.437 4.73973 780.814C3.82856 781.192 3.00065 781.745 2.30327 782.442C1.6059 783.14 1.05272 783.967 0.675327 784.879C0.297933 785.79 0.103712 786.766 0.10376 787.753Z" fill="#402A45"/>
<path d="M337.445 528.772C344.485 530.096 346.382 531.994 347.707 539.034C347.734 539.181 347.812 539.314 347.926 539.409C348.041 539.505 348.186 539.557 348.335 539.557C348.484 539.557 348.629 539.505 348.744 539.409C348.859 539.314 348.936 539.181 348.963 539.034C350.288 531.994 352.185 530.096 359.226 528.772C359.372 528.745 359.505 528.667 359.601 528.552C359.696 528.438 359.749 528.293 359.749 528.144C359.749 527.994 359.696 527.85 359.601 527.735C359.505 527.62 359.372 527.543 359.226 527.516C352.185 526.191 350.288 524.293 348.963 517.253C348.936 517.106 348.859 516.973 348.744 516.878C348.629 516.782 348.484 516.73 348.335 516.73C348.186 516.73 348.041 516.782 347.926 516.878C347.812 516.973 347.734 517.106 347.707 517.253C346.382 524.293 344.485 526.191 337.445 527.516C337.298 527.543 337.165 527.62 337.069 527.735C336.974 527.85 336.921 527.994 336.921 528.144C336.921 528.293 336.974 528.438 337.069 528.552C337.165 528.667 337.298 528.745 337.445 528.772Z" fill="white"/>
<path d="M321.944 513.64C323.961 513.64 325.597 512.004 325.597 509.986C325.597 507.969 323.961 506.333 321.944 506.333C319.926 506.333 318.29 507.969 318.29 509.986C318.29 512.004 319.926 513.64 321.944 513.64Z" fill="white"/>
<path d="M280.923 730.677C280.923 730.677 247.187 710.81 199.956 702.938C199.956 702.938 192.834 733.676 193.208 759.916L264.43 778.283C264.43 778.283 282.423 750.544 280.923 730.677Z" fill="white"/>
<path d="M249.018 780.39C278.546 783.215 292.995 761.068 291.076 744.872C290.574 740.623 288.942 736.785 286.163 733.914C272.785 720.097 254.159 733.8 254.159 733.8C247.35 730.29 241.577 728.656 236.799 728.447C208.123 727.194 215.147 777.15 249.018 780.39Z" fill="#EB551F"/>
<path d="M254.157 733.798C254.157 733.798 254.774 714.164 267.048 705.924" stroke="#402A45" stroke-width="0.840512" stroke-miterlimit="10" stroke-linecap="round"/>
<path d="M239.367 706.173C239.367 706.173 255.035 707.672 254.252 727.648C254.252 727.648 237.017 724.402 239.367 706.173Z" fill="#19C152"/>
<path d="M236.799 728.447C237.798 741.148 251.917 751.215 269.186 751.215C277.623 751.215 285.307 748.808 291.076 744.872C290.575 740.623 288.942 736.785 286.163 733.914C272.785 720.097 254.159 733.8 254.159 733.8C247.35 730.29 241.577 728.656 236.799 728.447Z" fill="#FF5C22"/>
</g>
<defs>
<clipPath id="clip0_3651_8740">
<rect width="375" height="812" fill="white"/>
</clipPath>
</defs>
</svg>
