<svg width="1920" height="1080" viewBox="0 0 1920 1080" fill="none" xmlns="http://www.w3.org/2000/svg">
<g clip-path="url(#clip0_3642_8621)">
<rect width="1920" height="1080" fill="#EDFAF1"/>
<g clip-path="url(#clip1_3642_8621)">
<path d="M1920 255.497V1082H808C863.822 956.194 984.012 837.258 1137.07 809.201C1434.96 754.546 1352.43 572.193 1525.61 382.599C1636.7 260.989 1810.01 248.668 1920 255.497Z" fill="#19C152" fill-opacity="0.3"/>
<path d="M1360.67 208.943C1360.67 208.943 1441.37 214.321 1416.09 175.36C1396.55 145.242 1338.56 175.528 1360.67 208.943Z" fill="#19C152"/>
<path d="M1354 225.184C1354 225.184 1357.96 199.462 1393.93 185.057" stroke="#3B7D6C" stroke-width="2.50231" stroke-miterlimit="10" stroke-linecap="round"/>
<path d="M969.782 934.099C993.767 938.612 1000.23 945.077 1004.75 969.062C1004.84 969.562 1005.1 970.014 1005.49 970.34C1005.88 970.666 1006.38 970.844 1006.88 970.844C1007.39 970.844 1007.89 970.666 1008.28 970.34C1008.67 970.014 1008.93 969.562 1009.02 969.062C1013.54 945.077 1020 938.612 1043.99 934.099C1044.49 934.007 1044.94 933.742 1045.27 933.351C1045.59 932.961 1045.77 932.468 1045.77 931.959C1045.77 931.45 1045.59 930.958 1045.27 930.567C1044.94 930.176 1044.49 929.911 1043.99 929.819C1020 925.306 1013.54 918.841 1009.02 894.857C1008.93 894.356 1008.67 893.904 1008.28 893.578C1007.89 893.253 1007.39 893.074 1006.88 893.074C1006.38 893.074 1005.88 893.253 1005.49 893.578C1005.1 893.904 1004.84 894.356 1004.75 894.857C1000.23 918.841 993.767 925.306 969.782 929.819C969.282 929.911 968.83 930.176 968.504 930.567C968.178 930.958 968 931.45 968 931.959C968 932.468 968.178 932.961 968.504 933.351C968.83 933.742 969.282 934.007 969.782 934.099Z" fill="white"/>
<path d="M1112.12 851.398C1112.12 853.059 1111.63 854.683 1110.7 856.064C1109.78 857.445 1108.47 858.522 1106.94 859.157C1105.4 859.793 1103.71 859.959 1102.08 859.635C1100.45 859.311 1098.96 858.511 1097.78 857.337C1096.61 856.162 1095.81 854.666 1095.48 853.037C1095.16 851.408 1095.33 849.719 1095.96 848.184C1096.6 846.65 1097.67 845.338 1099.06 844.415C1100.44 843.493 1102.06 843 1103.72 843C1105.95 843 1108.09 843.885 1109.66 845.46C1111.24 847.035 1112.12 849.171 1112.12 851.398Z" fill="white"/>
<mask id="mask0_3642_8621" style="mask-type:luminance" maskUnits="userSpaceOnUse" x="1112" y="120" width="825" height="962">
<path d="M1937 120H1112V1082H1937V120Z" fill="white"/>
</mask>
<g mask="url(#mask0_3642_8621)">
<path d="M1963.35 1148.25C1963.35 1148.25 2001.21 1070.83 1939.75 1016.86C1878.29 962.885 1875.89 899.41 1918.04 847.792C1960.19 796.174 1871.81 745.172 1871.81 745.172C1871.81 745.172 1886.35 786.992 1827.05 819.63C1767.75 852.268 1733.46 919.605 1775.87 971.208C1818.27 1022.81 1756.13 1122.48 1756.13 1122.48L1963.35 1148.25Z" fill="#4B9F8A"/>
<path d="M1880.88 817.64C1880.88 817.64 1883.53 832.791 1837.25 873.62C1790.97 914.449 1835.12 968.641 1879.04 1024.92C1922.96 1081.2 1863.97 1137.39 1863.97 1137.39" stroke="#3B7D6C" stroke-width="2.50231" stroke-miterlimit="10" stroke-linecap="round"/>
<path d="M1230.91 1087.87C1220.89 1081.24 1184.58 1071.37 1172.26 1030.88C1158.43 985.404 1150.71 980.843 1150.71 980.843C1150.71 980.843 1232.37 1027.91 1276.04 1018.58C1326.65 1007.77 1396.01 1028.98 1387.8 1094.17" stroke="#3B7D6C" stroke-width="2.50231" stroke-miterlimit="10" stroke-linecap="round"/>
<path d="M1290.75 1102.86C1290.75 1102.86 1293.1 1069.96 1245.79 1061.89C1183.1 1051.2 1227.35 1029.33 1152.99 981.792" stroke="#3B7D6C" stroke-width="2.50231" stroke-miterlimit="10" stroke-linecap="round"/>
<path d="M1362.87 1204.33C1362.87 1204.33 1315.3 1191.94 1330.75 1129.74C1346.2 1067.54 1345.61 1030.16 1261.29 1003.66C1215.13 989.145 1233.06 891.027 1233.06 891.027C1233.06 891.027 1246.46 932.169 1291.1 928.842C1335.74 925.515 1405.31 937.01 1415.57 1003.25C1424.22 1059.06 1503.25 1120.1 1511.46 1173.1L1362.87 1204.33Z" fill="#4B9F8A"/>
<path d="M1253.94 945.081C1253.94 945.081 1266.31 965.412 1305.28 971.414C1344.26 977.417 1386.83 1011.14 1389.41 1064.39C1391.98 1117.65 1448.59 1165.75 1448.59 1165.75" stroke="#3B7D6C" stroke-width="3.84971" stroke-miterlimit="10" stroke-linecap="round"/>
</g>
<path d="M1739.39 676.331C1745.53 670.189 1749.71 662.363 1751.41 653.843C1753.1 645.323 1752.23 636.492 1748.91 628.467C1745.59 620.441 1739.96 613.582 1732.73 608.756C1725.51 603.929 1717.02 601.354 1708.33 601.354C1699.65 601.354 1691.15 603.929 1683.93 608.756C1676.71 613.582 1671.08 620.441 1667.76 628.467C1664.43 636.492 1663.56 645.323 1665.26 653.843C1666.95 662.363 1671.13 670.189 1677.28 676.331C1685.51 684.567 1696.68 689.194 1708.33 689.194C1719.98 689.194 1731.15 684.567 1739.39 676.331Z" fill="#FFF975"/>
<mask id="mask1_3642_8621" style="mask-type:luminance" maskUnits="userSpaceOnUse" x="990" y="123" width="910" height="960">
<path d="M990.673 123.677V1082.43H1896.02L1899.16 123.677H990.673Z" fill="white"/>
</mask>
<g mask="url(#mask1_3642_8621)">
<path d="M1306.16 802.522C1306.16 802.522 1302.92 857.75 1325.6 907.287C1345.45 950.661 1389.82 978.875 1438.98 981.108L1768.15 996.057C1779.3 996.563 1790.43 994.674 1800.74 990.528C1811.04 986.381 1820.25 980.079 1827.71 972.08C1835.17 964.08 1840.7 954.582 1843.88 944.274C1847.06 933.966 1847.82 923.105 1846.11 912.478L1820.07 750.861C1816.73 729.955 1807.44 710.35 1793.22 694.23C1779.01 678.11 1760.42 666.107 1739.54 659.558C1724.26 654.803 1708.72 650.869 1692.99 647.774C1648.11 638.98 1602.1 636.78 1556.54 641.248C1545.54 642.31 1534.76 644.882 1524.51 648.886C1497.17 659.637 1474.95 679.793 1462.17 705.439L1434.83 760.137L1374.08 763.449C1374.08 763.449 1340.03 765.951 1306.16 802.522Z" fill="white"/>
<path d="M1749.7 660.167L1695.27 718.098L1717.82 732.324L1616.2 844.784" stroke="#C7C5E6" stroke-width="2.50231" stroke-miterlimit="10" stroke-linecap="round"/>
<path d="M1504 668L1536.27 708.778L1514.05 715.392L1529.72 756.588" stroke="#C7C5E6" stroke-width="2.50231" stroke-miterlimit="10" stroke-linecap="round"/>
<path d="M1744.93 909.935C1744.93 909.935 1673.07 863.562 1570.69 842.164C1570.69 842.164 1552.4 908.616 1550.87 965.92L1704.68 1012.37C1704.68 1012.37 1746.43 953.431 1744.93 909.935Z" fill="white"/>
<path d="M1288.26 811.057C1290.98 877.605 1345.32 929.427 1409.62 926.794C1473.92 924.16 1523.84 868.076 1521.12 801.537L1288.26 811.057Z" fill="#FFC700"/>
<path d="M1518.73 818.173C1518.73 818.173 1488.5 831.384 1407.76 834.194C1327.03 837.003 1295.63 828.628 1295.63 828.628" stroke="#402A45" stroke-width="1.76145" stroke-miterlimit="10" stroke-linecap="round"/>
<path d="M1288 811.013C1288.12 813.884 1296.91 816.165 1311.68 817.68C1319.6 818.508 1329.29 819.116 1340.18 819.442C1348.7 819.724 1358 819.856 1367.89 819.803C1379.59 819.803 1392.11 819.486 1405.12 818.922C1422.73 818.2 1439.47 817.09 1454.44 815.699C1494.07 812.044 1521.38 806.53 1521.16 801.431C1520.94 796.146 1491.7 792.861 1450.11 792.624C1437.55 792.544 1423.84 792.747 1409.48 793.275C1407.72 793.275 1405.89 793.399 1404.06 793.469C1402.42 793.54 1400.77 793.601 1399.14 793.698C1391 794.059 1383.08 794.508 1375.48 795.037C1369.84 795.424 1364.36 795.829 1359.08 796.287C1334.51 798.436 1314.26 801.281 1301.73 804.337C1292.9 806.609 1287.91 808.864 1288 811.013Z" fill="#402A45"/>
<path d="M1379.4 813.303C1413.06 815.135 1428.45 789.312 1425.52 771.028C1424.89 766.396 1422.74 762.102 1419.42 758.812C1403.57 743.752 1383.08 760.169 1383.08 760.169C1375.15 756.505 1368.55 754.884 1363.12 754.884C1330.5 754.796 1340.79 811.189 1379.4 813.303Z" fill="#EB551F"/>
<path d="M1383.08 760.151C1383.08 760.151 1382.86 737.834 1396.42 727.899" stroke="#402A45" stroke-width="1.76145" stroke-miterlimit="10" stroke-linecap="round"/>
<path d="M1365 729.476C1365 729.476 1382.86 730.444 1382.9 753.167C1382.9 753.167 1363.18 750.243 1365 729.476Z" fill="#19C152"/>
<path d="M1363.12 754.884C1364.88 769.258 1381.34 780.038 1400.99 779.236C1410.57 778.84 1419.19 775.713 1425.55 771.01C1424.92 766.378 1422.78 762.084 1419.46 758.795C1403.61 743.734 1383.11 760.151 1383.11 760.151C1375.18 756.487 1368.55 754.902 1363.12 754.884Z" fill="#FF5C22"/>
<mask id="mask2_3642_8621" style="mask-type:luminance" maskUnits="userSpaceOnUse" x="1380" y="639" width="148" height="180">
<path d="M1484.91 812.29C1484.91 812.29 1448.44 817.399 1422.97 818.103C1397.5 818.808 1332.26 631.591 1444.81 639.227C1557.35 646.863 1539.46 774.093 1484.91 812.29Z" fill="white"/>
</mask>
<g mask="url(#mask2_3642_8621)">
<path d="M1502.67 709.774C1504.26 710.797 1505.6 712.156 1506.61 713.756C1507.62 715.355 1508.26 717.155 1508.5 719.03C1508.74 720.905 1508.56 722.81 1507.99 724.61C1507.41 726.41 1506.45 728.061 1505.16 729.449C1497.1 738.468 1484.1 751.881 1478.74 750.904C1471.98 749.662 1485.14 698.5 1502.67 709.774Z" fill="#4B9F8A"/>
<path d="M1429.16 717.92C1427.67 719.07 1426.44 720.534 1425.56 722.21C1424.69 723.885 1424.19 725.731 1424.11 727.619C1424.03 729.506 1424.36 731.39 1425.08 733.136C1425.8 734.882 1426.89 736.45 1428.28 737.728C1437.09 746.06 1451.11 758.372 1456.33 756.963C1463.01 755.166 1445.7 705.255 1429.16 717.92Z" fill="#4B9F8A"/>
<path d="M1467.86 693.744C1467.86 693.744 1479.82 730.594 1468.97 735.191C1458.13 739.789 1427.58 679.239 1446.24 668.494C1458.85 661.289 1467.86 693.744 1467.86 693.744Z" fill="#4B9F8A"/>
<path d="M1456.9 698.28C1456.9 698.28 1479.07 744.73 1463.84 776.418" stroke="#3B7D6C" stroke-width="1.76145" stroke-miterlimit="10" stroke-linecap="round"/>
<path d="M1434.92 729.59C1434.92 729.59 1471.33 753.114 1456.05 784.794" stroke="#3B7D6C" stroke-width="1.76145" stroke-miterlimit="10" stroke-linecap="round"/>
<path d="M1494.58 729.379C1494.58 729.379 1474.03 745.531 1468.41 775.731" stroke="#3B7D6C" stroke-width="1.76145" stroke-miterlimit="10" stroke-linecap="round"/>
<path d="M1436.18 879.375C1448.21 869.969 1465.89 835.436 1465.89 835.436C1465.89 835.436 1488.9 784.6 1475.95 772.851C1471.82 769.099 1465.98 766.07 1459.71 766.924C1446.37 768.774 1431.03 788.229 1425.75 855.728C1423.72 881.568 1428.93 885.056 1436.18 879.375Z" fill="#F7845B"/>
<path d="M1436.18 879.375C1427.64 833.639 1451.59 782.495 1459.71 766.924C1446.37 768.774 1431.03 788.229 1425.75 855.728C1423.72 881.568 1428.93 885.056 1436.18 879.375Z" fill="#F2754E"/>
<path d="M1474.42 785.419C1466.95 780.815 1458.42 778.221 1449.65 777.889" stroke="#402A45" stroke-width="1.76145" stroke-miterlimit="10" stroke-linecap="round"/>
<path d="M1471.3 809.005C1467.67 807.492 1463.87 806.41 1459.99 805.782" stroke="#402A45" stroke-width="1.76145" stroke-miterlimit="10" stroke-linecap="round"/>
<path d="M1434.33 811.814C1440.13 812.05 1445.8 813.656 1450.86 816.5" stroke="#402A45" stroke-width="1.76145" stroke-miterlimit="10" stroke-linecap="round"/>
</g>
<path d="M1301.74 804.408C1304.18 808.723 1307.74 812.986 1311.68 817.716C1319.6 818.543 1329.29 819.151 1340.18 819.477C1348.7 819.759 1358 819.891 1367.89 819.838C1371.72 812.452 1374.71 804.662 1376.8 796.613L1375.49 795.09C1369.43 788.238 1343.44 760.213 1315.1 751.053C1314.65 750.909 1314.17 750.868 1313.7 750.932C1313.23 750.996 1312.78 751.165 1312.39 751.424C1311.99 751.684 1311.66 752.029 1311.41 752.434C1311.16 752.839 1311.01 753.294 1310.96 753.766L1309.33 769.901L1296.87 762.987C1296.58 762.825 1296.25 762.735 1295.92 762.725C1295.58 762.715 1295.25 762.785 1294.95 762.93C1294.65 763.075 1294.39 763.291 1294.19 763.558C1293.99 763.825 1293.85 764.137 1293.8 764.467C1292.72 770.667 1291.52 786.353 1301.74 804.408Z" fill="#C7C5E6"/>
<path d="M1328.92 770.746C1329.01 772.842 1330.21 774.498 1331.56 774.445C1332.92 774.392 1334.04 772.64 1333.95 770.535C1333.86 768.43 1332.65 766.774 1331.25 766.836C1329.85 766.897 1328.83 768.641 1328.92 770.746Z" fill="#402A45"/>
<path d="M1347.49 769.135C1347.49 769.135 1345.2 806.495 1305.01 807.297" stroke="#402A45" stroke-width="1.76145" stroke-miterlimit="10" stroke-linecap="round"/>
<path d="M1340.19 819.503C1358.78 820.102 1381.12 819.979 1405.11 819.001C1422.73 818.279 1439.46 817.161 1454.43 815.778C1453.55 807.985 1452.11 800.267 1450.11 792.685C1444.37 772.014 1432.67 755.492 1409.46 793.346C1408.04 795.688 1406.56 798.225 1405.06 800.99C1403.23 798.472 1401.26 796.061 1399.15 793.768C1390.67 784.406 1374.31 770.112 1358.54 777.369C1358.54 777.369 1350.05 782.064 1359.09 796.367C1360.93 799.203 1362.99 801.889 1365.26 804.399C1365.26 804.399 1346.46 806.53 1340.19 819.503Z" fill="#4B9F8A"/>
<path d="M1427.47 786.441L1415.51 812.088" stroke="#3B7D6C" stroke-width="1.76145" stroke-miterlimit="10" stroke-linecap="round"/>
<path d="M1370.6 791.162C1370.6 791.162 1389.71 796.772 1400.54 814.695" stroke="#3B7D6C" stroke-width="1.76145" stroke-miterlimit="10" stroke-linecap="round"/>
<path d="M1740 774C1740 774 1735.96 814.864 1737.99 893C1737.99 893 1664.56 906.033 1574 880.5" stroke="#402A45" stroke-width="2.50231" stroke-miterlimit="10" stroke-linecap="round"/>
<path d="M1774.76 924.613C1774.76 924.613 1755.52 902.498 1740 894" stroke="#C7C5E6" stroke-width="2.50231" stroke-miterlimit="10" stroke-linecap="round"/>
<path d="M1275.49 786.557C1267.49 783.018 1256.41 796.897 1265.96 804.54C1275.52 812.183 1297.49 819.348 1298.44 812.66C1299.4 805.973 1293.96 794.726 1275.49 786.557Z" fill="#F59C7D"/>
<path d="M1275.49 807.341C1267.49 803.802 1256.41 817.68 1265.96 825.323C1275.52 832.966 1297.49 840.131 1298.44 833.444C1299.4 826.756 1293.96 815.509 1275.49 807.341Z" fill="#F59C7D"/>
<path d="M1282.51 827.285C1274.51 823.746 1263.43 837.624 1272.98 845.267C1282.54 852.91 1304.51 860.076 1305.47 853.388C1306.42 846.7 1300.98 835.453 1282.51 827.285Z" fill="#F59C7D"/>
<path d="M1287.93 814.984C1287.93 814.984 1275.78 810.508 1269.07 805.714" stroke="#402A45" stroke-width="2.50231" stroke-miterlimit="10" stroke-linecap="round"/>
<path d="M1294.38 836.79C1294.38 836.79 1281.61 834.67 1274.12 831.218" stroke="#402A45" stroke-width="2.50231" stroke-miterlimit="10" stroke-linecap="round"/>
<path d="M1805.81 976.299L1819 1192L1489.33 1184.56L1482 967L1805.81 976.299Z" fill="white"/>
<path d="M1806 987.706C1806 987.706 1740.67 1037.44 1545 958.5" stroke="#C7C5E6" stroke-width="2.50231" stroke-miterlimit="10" stroke-linecap="round"/>
<path d="M1445 976V905" stroke="#402A45" stroke-width="2.50231" stroke-miterlimit="10" stroke-linecap="round"/>
<path d="M1543.03 868.836C1536.5 865.486 1504.9 843.163 1497.92 836.447C1486.45 825.407 1477.53 854.557 1506.14 867.576C1507.11 868.529 1473.19 863.491 1440.74 852.303C1423.97 846.521 1423.51 866.413 1456.17 877.644C1456.17 877.644 1406.66 852.29 1425.85 878.466C1430.09 884.236 1440.86 891.93 1465.04 898.315C1465.04 898.315 1453.94 907.347 1471.5 920.956C1471.5 920.956 1463.03 928.326 1475.33 936.35C1492.89 947.808 1545.34 953.789 1545.34 953.789L1571.36 883.372L1543.03 868.836Z" fill="#F59C7D"/>
<path d="M1503.78 866.906L1514.02 870.271" stroke="#402A45" stroke-width="1.75577" stroke-miterlimit="10" stroke-linecap="round"/>
<path d="M1472.9 898.694C1472.9 898.694 1443.41 891.911 1428.37 885.718C1413.33 879.525 1417.76 896.335 1448.13 909.605C1448.13 909.605 1434.27 903.707 1429.85 906.656C1425.43 909.605 1454.03 933.197 1490.3 942.929C1526.58 952.66 1472.9 898.694 1472.9 898.694Z" fill="#F59C7D"/>
<path d="M1440.8 870.743C1453.12 876.719 1466.03 881.364 1479.33 884.599" stroke="#402A45" stroke-width="1.75577" stroke-miterlimit="10" stroke-linecap="round"/>
<path d="M1438.78 888.994C1438.78 888.994 1457.7 897.444 1473.59 901.161" stroke="#402A45" stroke-width="1.75577" stroke-miterlimit="10" stroke-linecap="round"/>
<path d="M1444.18 906.907C1444.18 906.907 1457.7 914.343 1469.19 916.708" stroke="#402A45" stroke-width="1.75577" stroke-miterlimit="10" stroke-linecap="round"/>
</g>
<path d="M1669.74 661.011C1680.68 627.911 1659.35 591.091 1622.11 578.781C1584.87 566.471 1545.81 583.331 1534.87 616.431C1523.93 649.531 1545.25 686.341 1582.49 698.651C1619.73 710.961 1658.79 694.081 1669.74 661.011Z" fill="#FFF975"/>
<path d="M1680.85 533.581C1677.08 544.995 1669.82 554.938 1660.1 562.011C1657.49 563.914 1654.72 565.587 1651.82 567.011C1640.53 572.62 1627.71 574.366 1615.34 571.98C1602.96 569.594 1591.71 563.208 1583.32 553.804C1574.92 544.4 1569.85 532.499 1568.88 519.932C1567.91 507.365 1571.1 494.828 1577.95 484.248C1584.8 473.669 1594.94 465.633 1606.81 461.377C1618.67 457.121 1631.6 456.881 1643.62 460.694C1655.63 464.506 1666.06 472.16 1673.3 482.478C1680.54 492.796 1684.19 505.206 1683.69 517.801C1683.64 519.77 1683.46 521.734 1683.16 523.681C1683.15 523.889 1683.12 524.096 1683.08 524.301C1682.59 527.45 1681.84 530.554 1680.85 533.581Z" fill="#FFF975"/>
<path d="M1709.71 527.831C1709.22 529.324 1708.59 530.77 1707.84 532.151C1704.82 537.765 1699.93 542.146 1694.02 544.532C1688.11 546.917 1681.55 547.158 1675.48 545.211L1675.29 545.151C1672.84 544.348 1670.52 543.192 1668.4 541.721C1667.78 541.319 1667.2 540.878 1666.64 540.401C1662.87 537.353 1659.99 533.341 1658.32 528.791C1657.86 527.587 1657.49 526.35 1657.22 525.091C1656.16 520.321 1656.42 515.355 1657.97 510.721C1658.27 509.841 1658.62 508.961 1658.97 508.081C1659.75 506.374 1660.7 504.752 1661.81 503.241C1662.02 502.931 1662.25 502.637 1662.5 502.361C1666.48 497.336 1672.1 493.874 1678.38 492.583C1684.65 491.291 1691.19 492.253 1696.83 495.299C1702.46 498.346 1706.85 503.282 1709.21 509.24C1711.57 515.199 1711.76 521.799 1709.74 527.881L1709.71 527.831Z" fill="#FFF975"/>
<path d="M1703.74 625.611C1713.1 620.899 1720.86 613.516 1726.02 604.396C1731.19 595.276 1733.54 584.828 1732.77 574.375C1732 563.921 1728.15 553.93 1721.7 545.666C1715.25 537.401 1706.5 531.235 1696.54 527.945C1686.59 524.656 1675.89 524.392 1665.78 527.187C1655.68 529.981 1646.63 535.709 1639.78 543.645C1632.94 551.582 1628.6 561.371 1627.31 571.774C1626.03 582.177 1627.86 592.728 1632.57 602.091C1635.7 608.309 1640.02 613.849 1645.29 618.396C1650.56 622.943 1656.67 626.408 1663.28 628.592C1669.89 630.776 1676.86 631.637 1683.81 631.125C1690.75 630.614 1697.52 628.74 1703.74 625.611Z" fill="#FFF975"/>
<path d="M1528 647.279L1574.02 794.029L1586.56 834L1610.29 797.253L1705 650C1657.05 639.968 1610.9 633.468 1562.22 638.565C1550.47 639.776 1538.94 642.711 1528 647.279Z" fill="#FDF1EE"/>
<path d="M1770.65 451.216C1751.41 454.836 1746.23 460.02 1742.61 479.257C1742.53 479.658 1742.32 480.021 1742.01 480.282C1741.69 480.543 1741.3 480.686 1740.89 480.686C1740.48 480.686 1740.09 480.543 1739.77 480.282C1739.46 480.021 1739.25 479.658 1739.17 479.257C1735.55 460.02 1730.37 454.836 1711.13 451.216C1710.73 451.142 1710.37 450.93 1710.11 450.617C1709.85 450.303 1709.7 449.908 1709.7 449.5C1709.7 449.092 1709.85 448.697 1710.11 448.383C1710.37 448.07 1710.73 447.857 1711.13 447.784C1730.37 444.164 1735.55 438.979 1739.17 419.743C1739.25 419.342 1739.46 418.979 1739.77 418.718C1740.09 418.456 1740.48 418.313 1740.89 418.313C1741.3 418.313 1741.69 418.456 1742.01 418.718C1742.32 418.979 1742.53 419.342 1742.61 419.743C1746.23 438.979 1751.41 444.164 1770.65 447.784C1771.05 447.857 1771.41 448.07 1771.67 448.383C1771.93 448.697 1772.08 449.092 1772.08 449.5C1772.08 449.908 1771.93 450.303 1771.67 450.617C1771.41 450.93 1771.05 451.142 1770.65 451.216Z" fill="white"/>
<path d="M1799.26 412.091C1804.13 412.091 1808.08 408.14 1808.08 403.266C1808.08 398.392 1804.13 394.441 1799.26 394.441C1794.39 394.441 1790.43 398.392 1790.43 403.266C1790.43 408.14 1794.39 412.091 1799.26 412.091Z" fill="white"/>
<path d="M1668.79 593.721L1650.29 653.671L1610.06 663.781C1603.9 665.331 1598.3 661.781 1596.59 655.101L1586.59 648.191L1598.81 605.801L1653.47 585.071L1668.79 593.721Z" fill="#F59C7D"/>
<path d="M1591.14 516.011C1585.75 520.601 1553.26 585.191 1578.09 608.011C1578.87 608.721 1579.65 609.401 1580.44 610.071C1604.61 629.971 1641.34 621.161 1655.21 593.071L1655.55 592.381C1655.55 592.381 1672.37 603.281 1682.13 593.381C1689.8 585.601 1688.85 575.071 1679.71 571.311C1677.44 570.331 1674.95 569.962 1672.5 570.239C1670.04 570.516 1667.7 571.43 1665.71 572.891C1665.71 572.891 1651.62 564.181 1667.47 538.891C1667.56 538.951 1633.33 480.011 1591.14 516.011Z" fill="#F59C7D"/>
<path d="M1676.97 532.931C1681.65 521.521 1671.7 506.641 1654.76 499.701C1637.82 492.761 1620.3 496.371 1615.62 507.781C1610.94 519.191 1620.97 534.071 1637.87 541.011C1654.77 547.951 1672.33 544.341 1676.97 532.931Z" fill="#FFF975"/>
<path d="M1583.48 574.951C1579.89 583.751 1585.61 594.411 1596.28 598.781C1606.95 603.151 1618.53 599.561 1622.12 590.781C1622.55 589.672 1622.85 588.513 1623 587.331C1615.78 587.101 1606.5 584.991 1596.9 581.061C1592.33 579.206 1587.91 576.989 1583.69 574.431C1583.61 574.6 1583.54 574.773 1583.48 574.951Z" fill="white"/>
<path d="M1677.25 586.401C1676.79 587.528 1676 588.492 1674.99 589.171C1674.23 589.677 1673.37 590.009 1672.47 590.143C1671.57 590.277 1670.65 590.211 1669.78 589.948C1668.91 589.685 1668.1 589.232 1667.43 588.622C1666.75 588.013 1666.22 587.261 1665.87 586.421C1665.4 585.3 1665.27 584.063 1665.51 582.871C1665.68 581.977 1666.05 581.132 1666.58 580.397C1667.12 579.663 1667.81 579.056 1668.61 578.622C1669.41 578.188 1670.3 577.936 1671.21 577.886C1672.12 577.836 1673.03 577.987 1673.87 578.331C1674.62 578.633 1675.3 579.085 1675.87 579.661C1676.45 580.229 1676.91 580.909 1677.23 581.659C1677.54 582.41 1677.7 583.217 1677.7 584.031C1677.71 584.843 1677.56 585.651 1677.25 586.401Z" fill="#ED8B67"/>
<path d="M1595.17 619.191C1606.54 624.191 1623.17 626.681 1643.65 615.671" stroke="#402A45" stroke-width="1.76" stroke-miterlimit="10" stroke-linecap="round"/>
<path d="M1623.85 566.681C1623.6 568.741 1624.3 570.521 1625.39 570.681C1626.48 570.841 1627.56 569.231 1627.8 567.161C1628.04 565.091 1627.35 563.321 1626.26 563.161C1625.17 563.001 1624.08 564.611 1623.85 566.681Z" fill="#402A45"/>
<path d="M1589.48 555.011C1589.24 557.071 1589.94 558.851 1591.03 559.011C1592.12 559.171 1593.2 557.561 1593.44 555.481C1593.68 553.401 1592.99 551.641 1591.89 551.481C1590.79 551.321 1589.73 553.011 1589.48 555.011Z" fill="#402A45"/>
<path d="M1642.22 554.011C1642.22 554.011 1640.74 547.011 1629.17 543.361" stroke="#402A45" stroke-width="1.76" stroke-miterlimit="10" stroke-linecap="round"/>
<path d="M1601.53 534.871C1599.23 533.892 1596.75 533.428 1594.25 533.511C1591.76 533.594 1589.31 534.222 1587.09 535.351" stroke="#402A45" stroke-width="1.76" stroke-miterlimit="10" stroke-linecap="round"/>
<path d="M1676.5 644.5C1666.78 656.965 1634.56 692.493 1608.03 690.962C1583.29 689.46 1567.5 653.156 1563 638.5C1570.66 636.636 1580.65 637.148 1588.5 636.5C1595.07 635.952 1601.22 639.173 1607.43 639.011H1607.82C1609.84 639.011 1611.85 639.011 1613.85 639.092C1615.64 639.092 1617.41 639.153 1619.19 639.203C1621.93 639.285 1624.63 639.386 1627.3 639.508C1629.39 639.596 1631.46 639.707 1633.5 639.842C1639.61 640.208 1645.58 640.688 1651.43 641.283C1652.17 641.354 1653.78 640.909 1654.5 641C1661.47 641.994 1670.06 642.958 1676.5 644.5Z" fill="#F59C7D"/>
</g>
<path d="M379.797 549.369C379.797 549.369 459.432 563.488 425.549 595.254C399.357 619.81 367.273 578.601 379.797 549.369Z" fill="#19C152"/>
<path d="M377.211 532C377.211 532 374.894 557.922 406.36 580.528" stroke="#3B7D6C" stroke-width="2.50231" stroke-miterlimit="10" stroke-linecap="round"/>
</g>
<defs>
<clipPath id="clip0_3642_8621">
<rect width="1920" height="1080" fill="white"/>
</clipPath>
<clipPath id="clip1_3642_8621">
<rect width="1148" height="962" fill="white" transform="translate(772 120)"/>
</clipPath>
</defs>
</svg>
