<svg width="375" height="812" viewBox="0 0 375 812" fill="none" xmlns="http://www.w3.org/2000/svg">
<g clip-path="url(#clip0_3693_47045)">
<rect width="375" height="812" fill="#EDFAF1"/>
<g clip-path="url(#clip1_3693_47045)">
<path d="M374.599 476.072V812H-77.3682C-54.6796 760.866 -5.8288 712.526 56.3801 701.122C177.458 678.908 143.912 604.791 214.302 527.732C259.453 478.304 329.893 473.296 374.599 476.072Z" fill="#19C152" fill-opacity="0.3"/>
<path d="M60.7121 573.673C60.7121 573.673 93.5114 575.859 83.2356 560.023C75.2923 547.782 51.7265 560.092 60.7121 573.673Z" fill="#19C152"/>
<path d="M58 580.274C58 580.274 59.611 569.82 74.2295 563.965" stroke="#3B7D6C" stroke-width="1.01705" stroke-miterlimit="10" stroke-linecap="round"/>
<path d="M-11.6125 751.886C-1.86396 753.721 0.763574 756.348 2.59795 766.097C2.63533 766.3 2.74279 766.484 2.90169 766.616C3.06058 766.749 3.26084 766.821 3.46763 766.821C3.67443 766.821 3.87468 766.749 4.03357 766.616C4.19246 766.484 4.29998 766.3 4.33736 766.097C6.17173 756.348 8.79929 753.721 18.5477 751.886C18.7511 751.849 18.935 751.741 19.0674 751.582C19.1997 751.424 19.2722 751.223 19.2722 751.016C19.2722 750.81 19.1997 750.609 19.0674 750.451C18.935 750.292 18.7511 750.184 18.5477 750.147C8.79929 748.312 6.17173 745.685 4.33736 735.936C4.29998 735.733 4.19246 735.549 4.03357 735.417C3.87468 735.284 3.67443 735.212 3.46763 735.212C3.26084 735.212 3.06058 735.284 2.90169 735.417C2.74279 735.549 2.63533 735.733 2.59795 735.936C0.763574 745.685 -1.86396 748.312 -11.6125 750.147C-11.8159 750.184 -11.9997 750.292 -12.1321 750.451C-12.2644 750.609 -12.3369 750.81 -12.3369 751.016C-12.3369 751.223 -12.2644 751.424 -12.1321 751.582C-11.9997 751.741 -11.8159 751.849 -11.6125 751.886Z" fill="white"/>
<path d="M46.2398 718.273C46.2398 718.948 46.0396 719.608 45.6645 720.17C45.2894 720.731 44.7563 721.169 44.1326 721.427C43.5089 721.685 42.8225 721.753 42.1604 721.621C41.4982 721.49 40.89 721.164 40.4126 720.687C39.9352 720.21 39.6101 719.601 39.4784 718.939C39.3467 718.277 39.4143 717.591 39.6727 716.967C39.931 716.343 40.3685 715.81 40.9299 715.435C41.4912 715.06 42.1512 714.86 42.8263 714.86C43.7316 714.86 44.5998 715.219 45.24 715.86C45.8801 716.5 46.2398 717.368 46.2398 718.273Z" fill="white"/>
<mask id="mask0_3693_47045" style="mask-type:luminance" maskUnits="userSpaceOnUse" x="46" y="421" width="336" height="391">
<path d="M381.508 421H46.1912V812H381.508V421Z" fill="white"/>
</mask>
<g mask="url(#mask0_3693_47045)">
<path d="M392.22 838.928C392.22 838.928 407.606 807.46 382.625 785.523C357.644 763.586 356.671 737.787 373.801 716.807C390.932 695.827 355.012 675.098 355.012 675.098C355.012 675.098 360.921 692.095 336.818 705.361C312.715 718.626 298.781 745.995 316.017 766.969C333.253 787.943 307.994 828.455 307.994 828.455L392.22 838.928Z" fill="#4B9F8A"/>
<path d="M358.699 704.552C358.699 704.552 359.774 710.71 340.964 727.305C322.153 743.9 340.101 765.926 357.952 788.801C375.803 811.676 351.827 834.513 351.827 834.513" stroke="#3B7D6C" stroke-width="1.01705" stroke-miterlimit="10" stroke-linecap="round"/>
<path d="M94.5224 814.384C90.4483 811.689 75.6899 807.681 70.6831 791.221C65.061 772.739 61.9233 770.885 61.9233 770.885C61.9233 770.885 95.1141 790.014 112.863 786.223C133.434 781.83 161.625 790.452 158.287 816.948" stroke="#3B7D6C" stroke-width="1.01705" stroke-miterlimit="10" stroke-linecap="round"/>
<path d="M118.842 820.477C118.842 820.477 119.797 807.105 100.571 803.827C75.0878 799.482 93.0742 790.594 62.8496 771.271" stroke="#3B7D6C" stroke-width="1.01705" stroke-miterlimit="10" stroke-linecap="round"/>
<path d="M148.157 861.721C148.157 861.721 128.82 856.686 135.1 831.404C141.379 806.122 141.141 790.929 106.87 780.158C88.1071 774.26 95.3946 734.38 95.3946 734.38C95.3946 734.38 100.84 751.102 118.984 749.75C137.127 748.398 165.405 753.07 169.576 779.994C173.09 802.675 205.215 827.487 208.551 849.027L148.157 861.721Z" fill="#4B9F8A"/>
<path d="M103.882 756.35C103.882 756.35 108.908 764.613 124.751 767.053C140.594 769.493 157.894 783.199 158.942 804.844C159.989 826.489 182.998 846.041 182.998 846.041" stroke="#3B7D6C" stroke-width="1.5647" stroke-miterlimit="10" stroke-linecap="round"/>
</g>
<path d="M301.19 647.118C303.686 644.621 305.387 641.44 306.076 637.978C306.764 634.515 306.411 630.926 305.06 627.664C303.709 624.402 301.421 621.614 298.485 619.652C295.55 617.691 292.098 616.644 288.568 616.644C285.037 616.644 281.586 617.691 278.65 619.652C275.714 621.614 273.426 624.402 272.075 627.664C270.724 630.926 270.371 634.515 271.06 637.978C271.749 641.44 273.449 644.621 275.945 647.118C279.293 650.465 283.833 652.346 288.568 652.346C293.302 652.346 297.842 650.465 301.19 647.118Z" fill="#FFF975"/>
<mask id="mask1_3693_47045" style="mask-type:luminance" maskUnits="userSpaceOnUse" x="-4" y="422" width="371" height="391">
<path d="M-3.12134 422.495V812.174H364.854L366.127 422.495H-3.12134Z" fill="white"/>
</mask>
<g mask="url(#mask1_3693_47045)">
<path d="M125.106 698.407C125.106 698.407 123.791 720.855 133.007 740.989C141.075 758.618 159.11 770.085 179.089 770.993L312.881 777.069C317.414 777.274 321.937 776.507 326.124 774.821C330.311 773.136 334.056 770.575 337.089 767.323C340.122 764.072 342.366 760.212 343.659 756.022C344.952 751.832 345.262 747.418 344.566 743.099L333.981 677.41C332.626 668.913 328.849 660.945 323.071 654.393C317.293 647.841 309.74 642.962 301.253 640.301C295.043 638.368 288.726 636.769 282.331 635.511C264.09 631.937 245.392 631.043 226.872 632.859C222.402 633.29 218.018 634.336 213.855 635.963C202.742 640.333 193.711 648.525 188.518 658.949L177.402 681.18L152.712 682.527C152.712 682.527 138.875 683.544 125.106 698.407Z" fill="white"/>
<path d="M305.38 640.548L283.258 664.094L292.425 669.876L251.12 715.585" stroke="#C7C5E6" stroke-width="1.01705" stroke-miterlimit="10" stroke-linecap="round"/>
<path d="M205.517 643.732L218.632 660.306L209.604 662.994L215.972 679.738" stroke="#C7C5E6" stroke-width="1.01705" stroke-miterlimit="10" stroke-linecap="round"/>
<path d="M303.443 742.065C303.443 742.065 274.236 723.217 232.622 714.52C232.622 714.52 225.189 741.529 224.569 764.82L287.084 783.698C287.084 783.698 304.052 759.744 303.443 742.065Z" fill="white"/>
<path d="M117.83 701.877C118.936 728.925 141.022 749.988 167.157 748.917C193.293 747.847 213.582 725.052 212.476 698.007L117.83 701.877Z" fill="#FFC700"/>
<path d="M211.506 704.769C211.506 704.769 199.217 710.138 166.402 711.28C133.587 712.422 120.826 709.018 120.826 709.018" stroke="#402A45" stroke-width="0.715934" stroke-miterlimit="10" stroke-linecap="round"/>
<path d="M117.726 701.859C117.772 703.026 121.348 703.953 127.348 704.569C130.57 704.905 134.507 705.152 138.935 705.285C142.397 705.399 146.177 705.453 150.197 705.431C154.951 705.431 160.041 705.302 165.328 705.073C172.488 704.78 179.289 704.329 185.374 703.763C201.483 702.278 212.58 700.037 212.49 697.964C212.405 695.816 200.52 694.481 183.613 694.384C178.509 694.352 172.935 694.435 167.1 694.649C166.384 694.649 165.64 694.699 164.899 694.728C164.229 694.757 163.56 694.782 162.898 694.821C159.59 694.968 156.372 695.15 153.283 695.365C150.988 695.523 148.762 695.687 146.617 695.874C136.63 696.747 128.397 697.903 123.307 699.145C119.716 700.069 117.69 700.985 117.726 701.859Z" fill="#402A45"/>
<path d="M154.876 702.789C168.557 703.534 174.811 693.038 173.619 685.607C173.362 683.724 172.492 681.979 171.142 680.642C164.698 674.521 156.368 681.193 156.368 681.193C153.147 679.704 150.466 679.045 148.257 679.045C134.998 679.009 139.182 701.93 154.876 702.789Z" fill="#EB551F"/>
<path d="M156.368 681.186C156.368 681.186 156.283 672.116 161.792 668.078" stroke="#402A45" stroke-width="0.715934" stroke-miterlimit="10" stroke-linecap="round"/>
<path d="M149.023 668.718C149.023 668.718 156.283 669.112 156.297 678.348C156.297 678.348 148.282 677.159 149.023 668.718Z" fill="#19C152"/>
<path d="M148.257 679.045C148.973 684.887 155.663 689.269 163.649 688.943C167.544 688.782 171.045 687.511 173.633 685.6C173.377 683.717 172.506 681.972 171.156 680.635C164.713 674.513 156.383 681.186 156.383 681.186C153.161 679.697 150.465 679.052 148.257 679.045Z" fill="#FF5C22"/>
<mask id="mask2_3693_47045" style="mask-type:luminance" maskUnits="userSpaceOnUse" x="155" y="631" width="61" height="74">
<path d="M197.757 702.378C197.757 702.378 182.937 704.454 172.584 704.74C162.232 705.027 135.714 628.934 181.458 632.037C227.203 635.141 219.929 686.853 197.757 702.378Z" fill="white"/>
</mask>
<g mask="url(#mask2_3693_47045)">
<path d="M204.977 660.711C205.623 661.127 206.17 661.679 206.579 662.329C206.989 662.979 207.251 663.711 207.347 664.473C207.444 665.235 207.372 666.009 207.138 666.741C206.903 667.472 206.512 668.144 205.99 668.708C202.714 672.373 197.427 677.825 195.251 677.428C192.502 676.923 197.853 656.129 204.977 660.711Z" fill="#4B9F8A"/>
<path d="M175.101 664.022C174.491 664.489 173.992 665.084 173.637 665.765C173.282 666.446 173.08 667.196 173.046 667.964C173.012 668.731 173.146 669.496 173.439 670.206C173.732 670.916 174.177 671.553 174.743 672.072C178.322 675.459 184.021 680.463 186.144 679.89C188.857 679.16 181.823 658.874 175.101 664.022Z" fill="#4B9F8A"/>
<path d="M190.83 654.196C190.83 654.196 195.688 669.173 191.281 671.042C186.874 672.91 174.457 648.3 182.042 643.933C187.164 641.005 190.83 654.196 190.83 654.196Z" fill="#4B9F8A"/>
<path d="M186.373 656.039C186.373 656.039 195.383 674.918 189.194 687.798" stroke="#3B7D6C" stroke-width="0.715934" stroke-miterlimit="10" stroke-linecap="round"/>
<path d="M177.438 668.765C177.438 668.765 192.237 678.326 186.03 691.202" stroke="#3B7D6C" stroke-width="0.715934" stroke-miterlimit="10" stroke-linecap="round"/>
<path d="M201.687 668.679C201.687 668.679 193.336 675.244 191.052 687.519" stroke="#3B7D6C" stroke-width="0.715934" stroke-miterlimit="10" stroke-linecap="round"/>
<path d="M177.954 729.644C182.84 725.821 190.028 711.785 190.028 711.785C190.028 711.785 199.378 691.123 194.116 686.348C192.437 684.823 190.064 683.592 187.515 683.939C182.092 684.691 175.86 692.598 173.712 720.033C172.889 730.536 175.004 731.953 177.954 729.644Z" fill="#F7845B"/>
<path d="M177.954 729.644C174.482 711.055 184.215 690.268 187.515 683.939C182.092 684.691 175.86 692.598 173.712 720.033C172.889 730.536 175.004 731.953 177.954 729.644Z" fill="#F2754E"/>
<path d="M193.493 691.457C190.458 689.585 186.99 688.531 183.427 688.396" stroke="#402A45" stroke-width="0.715934" stroke-miterlimit="10" stroke-linecap="round"/>
<path d="M192.226 701.043C190.75 700.428 189.208 699.988 187.63 699.733" stroke="#402A45" stroke-width="0.715934" stroke-miterlimit="10" stroke-linecap="round"/>
<path d="M177.202 702.185C179.56 702.28 181.861 702.933 183.918 704.089" stroke="#402A45" stroke-width="0.715934" stroke-miterlimit="10" stroke-linecap="round"/>
</g>
<path d="M123.31 699.174C124.302 700.928 125.748 702.661 127.348 704.583C130.57 704.92 134.507 705.167 138.935 705.299C142.397 705.414 146.177 705.467 150.197 705.446C151.752 702.444 152.967 699.278 153.82 696.006L153.286 695.387C150.824 692.602 140.26 681.211 128.741 677.489C128.557 677.43 128.363 677.413 128.172 677.439C127.981 677.466 127.798 677.534 127.637 677.639C127.476 677.745 127.34 677.885 127.24 678.05C127.14 678.215 127.078 678.399 127.058 678.591L126.396 685.149L121.331 682.339C121.212 682.273 121.079 682.236 120.943 682.232C120.807 682.228 120.673 682.257 120.55 682.316C120.428 682.375 120.321 682.462 120.24 682.571C120.158 682.68 120.104 682.806 120.081 682.94C119.645 685.461 119.154 691.836 123.31 699.174Z" fill="#C7C5E6"/>
<path d="M134.357 685.493C134.393 686.345 134.88 687.018 135.431 686.996C135.982 686.975 136.437 686.262 136.401 685.407C136.365 684.551 135.875 683.878 135.306 683.903C134.737 683.928 134.321 684.637 134.357 685.493Z" fill="#402A45"/>
<path d="M141.903 684.838C141.903 684.838 140.976 700.023 124.638 700.349" stroke="#402A45" stroke-width="0.715934" stroke-miterlimit="10" stroke-linecap="round"/>
<path d="M138.939 705.309C146.492 705.553 155.574 705.503 165.325 705.105C172.484 704.812 179.285 704.357 185.371 703.795C185.014 700.628 184.426 697.491 183.613 694.409C181.279 686.008 176.526 679.292 167.093 694.678C166.517 695.63 165.915 696.661 165.303 697.785C164.559 696.761 163.757 695.781 162.901 694.85C159.454 691.044 152.807 685.235 146.395 688.184C146.395 688.184 142.945 690.092 146.621 695.906C147.369 697.059 148.206 698.15 149.127 699.17C149.127 699.17 141.484 700.037 138.939 705.309Z" fill="#4B9F8A"/>
<path d="M174.414 691.872L169.552 702.296" stroke="#3B7D6C" stroke-width="0.715934" stroke-miterlimit="10" stroke-linecap="round"/>
<path d="M151.296 693.79C151.296 693.79 159.064 696.071 163.467 703.355" stroke="#3B7D6C" stroke-width="0.715934" stroke-miterlimit="10" stroke-linecap="round"/>
<path d="M301.439 686.815C301.439 686.815 299.798 703.423 300.62 735.182C300.62 735.182 270.776 740.479 233.969 730.101" stroke="#402A45" stroke-width="1.01705" stroke-miterlimit="10" stroke-linecap="round"/>
<path d="M315.567 748.031C315.567 748.031 307.745 739.043 301.438 735.588" stroke="#C7C5E6" stroke-width="1.01705" stroke-miterlimit="10" stroke-linecap="round"/>
<path d="M112.641 691.919C109.388 690.481 104.885 696.121 108.768 699.228C112.651 702.334 121.582 705.247 121.97 702.528C122.359 699.81 120.149 695.239 112.641 691.919Z" fill="#F59C7D"/>
<path d="M112.641 700.366C109.388 698.928 104.885 704.569 108.768 707.675C112.651 710.782 121.582 713.694 121.97 710.976C122.359 708.258 120.149 703.686 112.641 700.366Z" fill="#F59C7D"/>
<path d="M115.495 708.472C112.242 707.034 107.739 712.675 111.622 715.781C115.505 718.887 124.436 721.8 124.825 719.082C125.213 716.363 123.003 711.792 115.495 708.472Z" fill="#F59C7D"/>
<path d="M117.697 703.473C117.697 703.473 112.76 701.654 110.031 699.705" stroke="#402A45" stroke-width="1.01705" stroke-miterlimit="10" stroke-linecap="round"/>
<path d="M120.32 712.336C120.32 712.336 115.13 711.474 112.085 710.071" stroke="#402A45" stroke-width="1.01705" stroke-miterlimit="10" stroke-linecap="round"/>
<path d="M328.188 769.038L333.548 856.709L199.554 853.686L196.576 765.259L328.188 769.038Z" fill="white"/>
<path d="M328.264 773.675C328.264 773.675 301.711 793.891 222.182 761.804" stroke="#C7C5E6" stroke-width="1.01705" stroke-miterlimit="10" stroke-linecap="round"/>
<path d="M181.537 768.917V740.059" stroke="#402A45" stroke-width="1.01705" stroke-miterlimit="10" stroke-linecap="round"/>
<path d="M221.381 725.361C218.727 723.999 205.883 714.926 203.047 712.196C198.386 707.709 194.76 719.557 206.389 724.849C206.78 725.236 192.997 723.188 179.806 718.641C172.988 716.291 172.805 724.376 186.075 728.941C186.075 728.941 165.954 718.635 173.756 729.275C175.476 731.62 179.853 734.747 189.682 737.342C189.682 737.342 185.17 741.013 192.306 746.545C192.306 746.545 188.866 749.54 193.865 752.801C201.002 757.458 222.319 759.889 222.319 759.889L232.896 731.269L221.381 725.361Z" fill="#F59C7D"/>
<path d="M205.427 724.576L209.588 725.944" stroke="#402A45" stroke-width="0.713623" stroke-miterlimit="10" stroke-linecap="round"/>
<path d="M192.879 737.496C192.879 737.496 180.893 734.739 174.78 732.222C168.667 729.705 170.465 736.537 182.811 741.931C182.811 741.931 177.177 739.534 175.379 740.732C173.581 741.931 185.208 751.52 199.95 755.475C214.693 759.431 192.879 737.496 192.879 737.496Z" fill="#F59C7D"/>
<path d="M179.832 726.136C184.837 728.565 190.086 730.453 195.492 731.768" stroke="#402A45" stroke-width="0.713623" stroke-miterlimit="10" stroke-linecap="round"/>
<path d="M179.008 733.554C179.008 733.554 186.7 736.988 193.157 738.499" stroke="#402A45" stroke-width="0.713623" stroke-miterlimit="10" stroke-linecap="round"/>
<path d="M181.206 740.834C181.206 740.834 186.7 743.857 191.371 744.818" stroke="#402A45" stroke-width="0.713623" stroke-miterlimit="10" stroke-linecap="round"/>
</g>
<path d="M272.881 640.891C277.328 627.437 268.658 612.472 253.522 607.469C238.386 602.465 222.51 609.318 218.064 622.771C213.617 636.225 222.283 651.186 237.419 656.189C252.555 661.193 268.43 654.332 272.881 640.891Z" fill="#FFF975"/>
<path d="M277.397 589.098C275.863 593.737 272.914 597.779 268.963 600.653C267.902 601.427 266.776 602.107 265.597 602.685C261.01 604.965 255.8 605.675 250.77 604.705C245.739 603.735 241.167 601.14 237.756 597.317C234.344 593.495 232.283 588.658 231.889 583.55C231.495 578.443 232.79 573.347 235.575 569.047C238.36 564.747 242.48 561.481 247.303 559.751C252.125 558.021 257.382 557.924 262.265 559.473C267.148 561.023 271.387 564.134 274.329 568.327C277.272 572.521 278.755 577.565 278.551 582.684C278.53 583.485 278.458 584.283 278.335 585.074C278.331 585.159 278.32 585.243 278.303 585.326C278.105 586.606 277.802 587.868 277.397 589.098Z" fill="#FFF975"/>
<path d="M289.126 586.761C288.926 587.368 288.672 587.955 288.366 588.517C287.14 590.799 285.153 592.579 282.75 593.549C280.347 594.518 277.681 594.616 275.214 593.825L275.137 593.8C274.141 593.474 273.197 593.004 272.336 592.406C272.087 592.243 271.848 592.064 271.621 591.87C270.088 590.631 268.92 589 268.239 587.151C268.052 586.662 267.903 586.159 267.792 585.647C267.364 583.708 267.469 581.69 268.097 579.806C268.219 579.449 268.361 579.091 268.503 578.733C268.82 578.04 269.206 577.381 269.658 576.766C269.743 576.641 269.836 576.521 269.938 576.409C271.555 574.366 273.84 572.959 276.392 572.434C278.944 571.909 281.599 572.3 283.891 573.539C286.183 574.777 287.965 576.783 288.925 579.205C289.885 581.626 289.96 584.309 289.139 586.781L289.126 586.761Z" fill="#FFF975"/>
<path d="M286.7 626.503C290.506 624.588 293.658 621.587 295.758 617.88C297.859 614.173 298.813 609.927 298.5 605.678C298.187 601.429 296.621 597.368 294 594.009C291.379 590.65 287.821 588.144 283.776 586.807C279.73 585.47 275.379 585.363 271.273 586.499C267.167 587.635 263.49 589.963 260.706 593.188C257.923 596.414 256.159 600.393 255.637 604.621C255.115 608.849 255.858 613.138 257.773 616.943C259.045 619.471 260.802 621.722 262.944 623.571C265.086 625.419 267.571 626.827 270.257 627.714C272.943 628.602 275.778 628.952 278.599 628.744C281.42 628.536 284.173 627.775 286.7 626.503Z" fill="#FFF975"/>
<path d="M215.272 635.31L233.976 694.956L239.073 711.202L248.719 696.266L287.213 636.416C267.724 632.339 248.966 629.696 229.18 631.768C224.404 632.261 219.72 633.453 215.272 635.31Z" fill="#FDF1EE"/>
<path d="M313.895 555.621C306.076 557.092 303.969 559.2 302.498 567.018C302.468 567.181 302.382 567.329 302.254 567.435C302.127 567.541 301.966 567.599 301.8 567.599C301.634 567.599 301.474 567.541 301.346 567.435C301.219 567.329 301.133 567.181 301.103 567.018C299.631 559.2 297.524 557.092 289.706 555.621C289.543 555.591 289.395 555.505 289.289 555.378C289.183 555.25 289.125 555.089 289.125 554.924C289.125 554.758 289.183 554.597 289.289 554.47C289.395 554.342 289.543 554.256 289.706 554.226C297.524 552.755 299.631 550.647 301.103 542.829C301.133 542.666 301.219 542.518 301.346 542.412C301.474 542.306 301.634 542.248 301.8 542.248C301.966 542.248 302.127 542.306 302.254 542.412C302.382 542.518 302.468 542.666 302.498 542.829C303.969 550.647 306.076 552.755 313.895 554.226C314.058 554.256 314.205 554.342 314.312 554.47C314.418 554.597 314.476 554.758 314.476 554.924C314.476 555.089 314.418 555.25 314.312 555.378C314.205 555.505 314.058 555.591 313.895 555.621Z" fill="white"/>
<path d="M325.524 539.719C327.505 539.719 329.111 538.113 329.111 536.132C329.111 534.151 327.505 532.545 325.524 532.545C323.543 532.545 321.937 534.151 321.937 536.132C321.937 538.113 323.543 539.719 325.524 539.719Z" fill="white"/>
<path d="M272.495 613.541L264.976 637.908L248.624 642.017C246.121 642.647 243.844 641.204 243.149 638.489L239.085 635.68L244.052 618.451L266.268 610.025L272.495 613.541Z" fill="#F59C7D"/>
<path d="M240.934 581.957C238.744 583.822 225.538 610.075 235.63 619.35C235.947 619.638 236.264 619.915 236.585 620.187C246.409 628.275 261.338 624.694 266.975 613.277L267.113 612.997C267.113 612.997 273.95 617.427 277.917 613.403C281.034 610.241 280.648 605.961 276.933 604.433C276.011 604.035 275.001 603.885 274.003 603.998C273.005 604.11 272.053 604.482 271.243 605.075C271.243 605.075 265.516 601.535 271.958 591.256C271.995 591.281 258.082 567.325 240.934 581.957Z" fill="#F59C7D"/>
<path d="M275.82 588.833C277.722 584.196 273.678 578.148 266.792 575.327C259.907 572.507 252.786 573.974 250.884 578.611C248.982 583.249 253.059 589.297 259.928 592.118C266.796 594.938 273.934 593.471 275.82 588.833Z" fill="#FFF975"/>
<path d="M237.821 605.912C236.362 609.489 238.687 613.821 243.023 615.598C247.36 617.374 252.067 615.915 253.526 612.346C253.703 611.895 253.824 611.424 253.884 610.944C250.949 610.85 247.177 609.993 243.275 608.395C241.417 607.642 239.621 606.74 237.906 605.701C237.874 605.769 237.845 605.84 237.821 605.912Z" fill="white"/>
<path d="M275.933 610.566C275.746 611.024 275.426 611.416 275.015 611.692C274.707 611.898 274.358 612.033 273.992 612.087C273.626 612.142 273.252 612.115 272.898 612.008C272.543 611.901 272.217 611.717 271.942 611.469C271.667 611.221 271.451 610.916 271.308 610.574C271.116 610.119 271.065 609.616 271.162 609.131C271.231 608.768 271.38 608.425 271.599 608.126C271.817 607.828 272.099 607.581 272.424 607.405C272.749 607.228 273.109 607.126 273.478 607.105C273.848 607.085 274.217 607.147 274.56 607.286C274.865 607.409 275.141 607.593 275.372 607.827C275.609 608.058 275.797 608.334 275.925 608.639C276.053 608.944 276.118 609.272 276.116 609.603C276.123 609.933 276.061 610.261 275.933 610.566Z" fill="#ED8B67"/>
<path d="M242.572 623.894C247.194 625.926 253.953 626.938 262.277 622.463" stroke="#402A45" stroke-width="0.715343" stroke-miterlimit="10" stroke-linecap="round"/>
<path d="M254.229 602.551C254.127 603.389 254.412 604.112 254.855 604.177C255.298 604.242 255.737 603.588 255.835 602.746C255.932 601.905 255.652 601.186 255.209 601.121C254.766 601.056 254.323 601.71 254.229 602.551Z" fill="#402A45"/>
<path d="M240.26 597.808C240.162 598.645 240.447 599.369 240.89 599.434C241.333 599.499 241.772 598.845 241.869 597.999C241.967 597.154 241.686 596.438 241.239 596.373C240.792 596.308 240.361 596.995 240.26 597.808Z" fill="#402A45"/>
<path d="M261.695 597.401C261.695 597.401 261.094 594.556 256.391 593.073" stroke="#402A45" stroke-width="0.715343" stroke-miterlimit="10" stroke-linecap="round"/>
<path d="M245.157 589.622C244.224 589.224 243.215 589.036 242.201 589.069C241.187 589.103 240.193 589.358 239.288 589.817" stroke="#402A45" stroke-width="0.715343" stroke-miterlimit="10" stroke-linecap="round"/>
<path d="M275.63 634.18C271.678 639.247 258.585 653.687 247.799 653.065C237.745 652.454 231.328 637.699 229.498 631.742C232.612 630.984 236.673 631.192 239.862 630.929C242.532 630.706 245.033 632.015 247.558 631.949H247.715C248.535 631.949 249.352 631.949 250.165 631.982C250.894 631.982 251.614 632.007 252.335 632.028C253.448 632.061 254.548 632.102 255.634 632.151C256.483 632.187 257.322 632.232 258.153 632.287C260.635 632.436 263.064 632.631 265.44 632.873C265.74 632.902 266.395 632.721 266.688 632.758C269.52 633.162 273.011 633.554 275.63 634.18Z" fill="#F59C7D"/>
</g>
</g>
<defs>
<clipPath id="clip0_3693_47045">
<rect width="375" height="812" fill="white"/>
</clipPath>
<clipPath id="clip1_3693_47045">
<rect width="467" height="380" fill="white" transform="translate(-92 432)"/>
</clipPath>
</defs>
</svg>
