<svg width="1920" height="1080" viewBox="0 0 1920 1080" fill="none" xmlns="http://www.w3.org/2000/svg">
<g clip-path="url(#clip0_3579_3904)">
<rect width="1920" height="1080" fill="#EDFAF1"/>
<path d="M1272.77 382.162C1272.77 382.162 1267.14 315.17 1299.88 335.622C1325.2 351.431 1300.86 400.056 1272.77 382.162Z" fill="#19C152"/>
<path d="M1259.37 387.941C1259.37 387.941 1280.69 384.277 1292.14 354.177" stroke="#3B7D6C" stroke-width="2" stroke-miterlimit="10" stroke-linecap="round"/>
<path d="M320.677 855.417C320.677 855.417 264.972 868.024 279.381 891.719C290.519 910.035 333.33 875.651 320.677 855.417Z" fill="#19C152"/>
<path d="M326.646 842C326.646 842 321.788 861.891 295.589 879.97" stroke="#3B7D6C" stroke-width="2" stroke-miterlimit="10" stroke-linecap="round"/>
<path d="M1961.77 220.741V1080.22H729C795.36 822.239 964.07 732.185 1029.81 692.255C1041.11 685.385 1060.17 675.223 1072.61 668.753C1078.49 665.683 1077.63 671.839 1083.77 668.819C1091.64 664.959 1099.72 661.113 1108.01 657.279C1112.74 655.079 1117.54 652.883 1122.42 650.689C1124.5 649.749 1126.56 648.809 1128.59 647.869C1135.52 644.649 1142.17 641.419 1148.53 638.179C1165.87 629.44 1182.64 619.62 1198.74 608.779C1217.37 596.282 1234.7 581.961 1250.49 566.029C1253.43 563.049 1257.34 560.763 1258.97 557.079C1444.66 137.39 1846.35 225.313 1961.77 220.741Z" fill="#19C152" fill-opacity="0.3"/>
<path d="M881.932 755.354C881.932 755.354 983.092 747.08 1019.15 849.868C1053.95 948.996 1137.59 1051.35 1279.79 1023.82L1185.76 742.113C1173.54 733.339 1161.82 723.889 1150.64 713.809C1063.49 635.197 881.932 755.354 881.932 755.354Z" fill="#4B9F8A"/>
<path d="M1229.96 888.907C1229.96 888.907 1183.99 902.621 1136.02 822.428C1088.06 742.236 1001.49 741.783 1001.49 741.783" stroke="#3B7D6C" stroke-width="2.40264" stroke-miterlimit="10" stroke-linecap="round"/>
<path d="M1643.24 618.921C1643.24 618.921 1647.46 563.834 1686.55 558.113C1725.64 552.392 1753.9 526.023 1753.9 526.023C1753.9 526.023 1769.18 554.52 1738.87 580.322C1708.56 606.123 1753.38 659.35 1707.67 712.876" stroke="#3B7D6C" stroke-width="2.9331" stroke-miterlimit="10" stroke-linecap="round"/>
<path d="M1729.4 566.556C1729.4 566.556 1722.23 586.385 1691.41 594.633C1660.6 602.881 1670.34 652.563 1670.34 652.563" stroke="#3B7D6C" stroke-width="2.9331" stroke-miterlimit="10" stroke-linecap="round"/>
<path d="M1672.79 705.965C1672.79 705.965 1704.84 661.325 1669.94 621.474C1635.05 581.622 1639.54 541.701 1671.92 513.62C1704.31 485.539 1651.59 444.87 1651.59 444.87C1651.59 444.87 1657.08 472.459 1615.33 486.97C1573.58 501.48 1544.82 540.17 1567.53 576.646C1590.24 613.122 1540.24 669.258 1540.24 669.258L1672.79 705.965Z" fill="#4B9F8A"/>
<path d="M1650.59 491.077C1650.59 491.077 1650.87 500.812 1616.83 521.737C1582.78 542.662 1606.38 580.931 1629.62 620.482C1652.87 660.032 1609.08 689.297 1609.08 689.297" stroke="#3B7D6C" stroke-width="2.9331" stroke-miterlimit="10" stroke-linecap="round"/>
<path d="M1704.91 919.19C1704.91 919.19 1690.97 848.068 1738.38 827.149C1785.8 806.231 1812.29 763 1812.29 763C1812.29 763 1841.58 793.68 1812.29 836.911C1783.01 880.142 1858.31 931.741 1819.27 1015.41" stroke="#3B7D6C" stroke-width="3.84772" stroke-miterlimit="10" stroke-linecap="round"/>
<path d="M1795.5 822.824C1795.5 822.824 1793.38 850.403 1757.31 871.618C1721.25 892.833 1750.95 952.234 1750.95 952.234" stroke="#3B7D6C" stroke-width="3.84772" stroke-miterlimit="10" stroke-linecap="round"/>
<mask id="mask0_3579_3904" style="mask-type:luminance" maskUnits="userSpaceOnUse" x="1135" y="465" width="541" height="556">
<path d="M1529.47 1020.16L1675.79 881.119L1281.32 466L1135 605.04L1529.47 1020.16Z" fill="white"/>
</mask>
<g mask="url(#mask0_3579_3904)">
<path d="M1345.7 750.041C1345.7 750.041 1360.26 717.136 1334.03 701.461C1307.8 685.787 1275.66 662.588 1279.66 628.97C1283.67 595.351 1246 581.859 1246 581.859C1246 581.859 1254.64 623.804 1232.15 645.4C1209.67 666.996 1228.68 701.995 1228.68 701.995" stroke="#3B7D6C" stroke-width="2.71679" stroke-miterlimit="10" stroke-linecap="round"/>
<path d="M1259.99 616.243C1259.99 616.243 1264.66 626.857 1254.75 652.882C1241.15 688.624 1286.43 702.224 1273.51 750.541" stroke="#3B7D6C" stroke-width="2.71679" stroke-miterlimit="10" stroke-linecap="round"/>
<path d="M1523.67 957.142C1523.67 957.142 1550.39 905.816 1485.57 872.765C1420.76 839.714 1416.38 771.163 1433.03 716.755C1449.67 662.346 1359.65 607.258 1359.65 607.258C1359.65 607.258 1384.04 649.98 1346.3 686.915C1308.55 723.851 1280.06 784.553 1328.19 843.35C1368.73 892.88 1342.44 1017.92 1380.94 1064.95L1523.67 957.142Z" fill="#4B9F8A"/>
<path d="M1389.13 666.285C1389.13 666.285 1396.69 692.473 1371.28 731.412C1345.88 770.351 1341.16 833.266 1384.29 875.525C1427.41 917.783 1423.9 1003.9 1423.9 1003.9" stroke="#3B7D6C" stroke-width="2.71679" stroke-miterlimit="10" stroke-linecap="round"/>
</g>
<path d="M1211.56 713.215C1210.43 714.344 1197.33 684.265 1197.33 684.265L1195.12 642.848C1194.95 639.476 1193.95 636.198 1192.23 633.298C1190.5 630.399 1188.08 627.966 1185.2 626.213C1181.36 623.893 1170.29 622.512 1163.88 621.69C1163.88 621.69 1143.56 544.752 1130.01 549.654C1118.72 553.742 1130.01 610.338 1130.01 610.338C1130.01 610.338 1109.67 610.209 1103.98 628.482C1103.98 628.482 1089.37 632.543 1087.94 652.86C1084.79 654.735 1082.31 657.534 1080.82 660.875C1079.33 664.216 1078.91 667.936 1079.62 671.524C1082.46 688.173 1090.51 698.472 1101.14 696.7C1101.14 696.7 1109.2 721.074 1123.81 723.732L1140.2 763.154C1140.2 763.154 1212.44 712.329 1211.56 713.215Z" fill="#F59C7D"/>
<path d="M1115.5 745.663C1115.5 745.663 1176.49 995.537 1302.5 1021.98L1676.27 1029.81C1688.64 1029.89 1700.87 1027.22 1712.08 1021.98C1723.29 1016.75 1733.2 1009.09 1741.08 999.559C1748.97 990.028 1754.63 978.862 1757.67 966.871C1760.71 954.88 1761.04 942.363 1758.64 930.227L1722.22 745.663C1717.54 721.786 1706.33 699.676 1689.84 681.793C1673.34 663.91 1652.21 650.957 1628.78 644.376C1611.64 639.602 1594.25 635.785 1576.69 632.94C1526.59 624.866 1475.56 624.421 1425.33 631.619C1413.2 633.337 1401.38 636.782 1390.23 641.847C1360.47 655.441 1336.82 679.612 1323.88 709.665L1296.17 773.767L1224.62 688.206C1224.62 688.206 1151.28 702.099 1115.5 745.663Z" fill="white"/>
<path d="M1388.05 642.62L1444.5 795.881L1459.88 837.624L1484.13 797.677L1583.94 633.263C1531.31 624.781 1477.7 624.313 1424.93 631.875C1412.19 633.68 1399.77 637.299 1388.05 642.62Z" fill="#FFF8E0"/>
<path d="M1163.73 622.096C1163.73 622.096 1120.48 629.305 1123.88 643.506C1126.29 653.583 1146.28 657.968 1155.04 659.265C1155.34 659.307 1155.63 659.434 1155.86 659.63C1156.09 659.826 1156.27 660.085 1156.36 660.375C1156.46 660.666 1156.47 660.977 1156.39 661.273C1156.32 661.57 1156.16 661.839 1155.94 662.05C1151.42 666.426 1143.33 677.646 1145.4 700.761" stroke="#402A45" stroke-width="2" stroke-miterlimit="10" stroke-linecap="round"/>
<path d="M1103.98 628.482C1103.58 653.252 1119.33 678.091 1127.94 678.021C1139.98 677.923 1137.84 655.209 1137.84 655.209" stroke="#402A45" stroke-width="2" stroke-miterlimit="10" stroke-linecap="round"/>
<path d="M1087.94 652.86C1087.94 652.86 1099.11 692.639 1114.14 691.827C1129.16 691.015 1127.94 678.021 1127.94 678.021" stroke="#402A45" stroke-width="2" stroke-miterlimit="10" stroke-linecap="round"/>
<path d="M1130.01 610.338C1130.01 610.338 1135.09 623.265 1134.9 630.474" stroke="#402A45" stroke-width="2" stroke-miterlimit="10" stroke-linecap="round"/>
<path d="M1099.47 696.785C1101.5 696.962 1103.52 696.349 1105.12 695.074C1106.71 693.799 1107.76 691.959 1108.03 689.936" stroke="#402A45" stroke-width="2" stroke-miterlimit="10" stroke-linecap="round"/>
<path d="M1523.67 558.631L1531.66 627.673L1484.35 654.857C1480.8 656.893 1476.68 657.682 1472.64 657.099C1468.59 656.516 1464.86 654.594 1462.04 651.64L1442.64 631.35L1438.45 600.302L1498.96 556.175L1523.67 558.631Z" fill="#F59C7D"/>
<path d="M1398.97 499.447C1404.91 507.399 1412.74 513.737 1421.75 517.883C1424.7 519.238 1427.84 520.529 1431.14 521.766C1468.02 535.662 1523.58 542.6 1523.58 542.6C1523.58 542.6 1542.58 492.09 1497.12 472.988C1495.26 472.192 1493.29 471.46 1491.2 470.794C1483.16 468.195 1474.92 466.274 1466.56 465.05C1446.45 462.124 1429.64 463.792 1415.71 464.329C1415.36 464.34 1415.02 464.362 1414.69 464.394C1397.66 465.792 1388.51 485.604 1398.97 499.447Z" fill="#4D4D4D"/>
<path d="M1409.99 509.346C1408.94 510.665 1403.8 598.315 1438.71 611.267C1439.8 611.671 1440.89 612.043 1441.98 612.38C1475.03 622.638 1508.82 598.2 1511.29 563.68L1511.35 562.84C1511.35 562.84 1533.11 566.925 1538.94 552.705C1543.52 541.541 1538.13 531.165 1527.21 531.165C1524.49 531.117 1521.81 531.78 1519.42 533.089C1517.03 534.398 1515.03 536.307 1513.6 538.627C1513.6 538.627 1495.59 535.612 1501.21 503.152C1501.21 503.152 1448.28 461.483 1409.99 509.346Z" fill="#F59C7D"/>
<path d="M1514.4 532.397L1513.35 546.231C1513.25 547.607 1512.64 548.898 1511.65 549.859C1510.66 550.82 1509.36 551.385 1507.98 551.448C1507.08 551.493 1506.19 551.322 1505.37 550.949C1504.55 550.576 1503.84 550.012 1503.29 549.304C1497.82 542.242 1483.12 519.749 1496.64 496.526L1512.27 501.143L1514.4 532.397Z" fill="#4D4D4D"/>
<path d="M1471.79 517.712C1492.02 517.712 1508.42 506.668 1508.42 493.044C1508.42 479.42 1492.02 468.375 1471.79 468.375C1451.56 468.375 1435.16 479.42 1435.16 493.044C1435.16 506.668 1451.56 517.712 1471.79 517.712Z" fill="#4D4D4D"/>
<path d="M1372.74 483.12C1372.74 504.804 1395 522.368 1422.45 522.368C1425.36 522.371 1428.26 522.169 1431.14 521.766C1454.46 518.528 1472.17 502.459 1472.17 483.12C1472.17 482.808 1472.15 482.485 1472.14 482.162C1471.94 476.634 1469.91 470.74 1466.56 465.05C1456.88 448.593 1436.12 433.761 1416.03 433.761C1411.55 433.743 1407.11 434.519 1402.9 436.052C1383.59 443.119 1372.74 465.179 1372.74 483.12Z" fill="#4D4D4D"/>
<path d="M1430.35 575.183C1430.35 585.666 1440.69 594.191 1453.42 594.191C1466.19 594.191 1476.49 585.666 1476.49 575.183C1476.49 573.861 1476.32 572.545 1475.98 571.266C1468.51 574.058 1458.14 575.8 1446.68 575.8C1441.22 575.815 1435.78 575.403 1430.39 574.566C1430.36 574.77 1430.35 574.976 1430.35 575.183Z" fill="white"/>
<path d="M1531.02 547.596C1531.02 548.948 1530.62 550.27 1529.87 551.394C1529.11 552.518 1528.05 553.394 1526.8 553.911C1525.55 554.429 1524.17 554.564 1522.85 554.3C1521.52 554.037 1520.3 553.386 1519.35 552.43C1518.39 551.474 1517.74 550.256 1517.48 548.93C1517.21 547.604 1517.35 546.229 1517.87 544.98C1518.38 543.731 1519.26 542.664 1520.38 541.913C1521.51 541.162 1522.83 540.761 1524.18 540.761C1525.08 540.761 1525.97 540.938 1526.8 541.281C1527.63 541.625 1528.38 542.128 1529.02 542.763C1529.65 543.398 1530.15 544.151 1530.5 544.98C1530.84 545.81 1531.02 546.699 1531.02 547.596Z" fill="#ED8B67"/>
<path d="M1438.71 611.267C1438.71 611.267 1477.23 631.591 1509.37 592.66" stroke="#402A45" stroke-width="2" stroke-miterlimit="10" stroke-linecap="round"/>
<path d="M1471.93 661.379L1500.85 699.872L1557.63 646.929" stroke="#402A45" stroke-width="2" stroke-miterlimit="10" stroke-linecap="round"/>
<path d="M1471.5 661.5L1438.7 700.64L1409.54 641.558" stroke="#402A45" stroke-width="2" stroke-miterlimit="10" stroke-linecap="round"/>
<path d="M1491.48 687.506L1467.7 714.016L1450.57 686.027L1471.48 660.975L1491.48 687.506Z" fill="#402A45"/>
<path d="M1444.5 795.881L1459.88 837.625L1484.13 797.677L1474.92 692.969L1465.21 693.668L1444.5 795.881Z" fill="#402A45"/>
<path d="M1433.94 740.617L1516.67 938.158C1517.19 939.385 1517.39 940.722 1517.25 942.046C1517.12 943.37 1516.66 944.64 1515.91 945.74C1515.16 946.84 1514.15 947.736 1512.97 948.346C1511.78 948.956 1510.47 949.261 1509.14 949.233L1350.92 945.937C1349.39 945.905 1347.9 945.434 1346.62 944.578C1345.35 943.723 1344.35 942.521 1343.75 941.114L1263.45 754.998C1262.94 753.814 1262.72 752.525 1262.82 751.24C1262.91 749.955 1263.32 748.712 1264 747.617C1264.68 746.522 1265.61 745.608 1266.72 744.953C1267.83 744.297 1269.08 743.92 1270.37 743.853L1426.16 735.724C1427.8 735.638 1429.43 736.062 1430.82 736.938C1432.22 737.813 1433.31 739.098 1433.94 740.617Z" fill="#FFC700"/>
<path d="M1403.65 846.219C1394.38 843.807 1347.78 824.354 1336.98 817.782C1319.23 806.979 1316.16 846.647 1356.3 855.099C1357.8 856.04 1322.9 854.571 1306.98 843.963C1299.79 839.163 1271.98 858.814 1304.19 875.075C1304.19 875.075 1284.13 886.649 1312.68 905.94C1312.68 905.94 1301.1 920.6 1327.34 932.946C1327.34 932.946 1318.65 944.739 1336.6 951.465C1362.23 961.069 1430.74 953.78 1430.74 953.78L1443.87 856.683L1403.65 846.219Z" fill="#F59C7D"/>
<path d="M1467.57 541.67C1468.19 543.88 1469.65 545.406 1470.82 545.078C1471.99 544.75 1472.43 542.692 1471.81 540.481C1471.19 538.27 1469.74 536.744 1468.57 537.073C1467.4 537.401 1466.95 539.459 1467.57 541.67Z" fill="#402A45"/>
<path d="M1427.57 544.162C1428.19 546.373 1429.64 547.898 1430.81 547.57C1431.98 547.242 1432.42 545.184 1431.8 542.973C1431.18 540.763 1429.73 539.237 1428.56 539.565C1427.39 539.893 1426.95 541.951 1427.57 544.162Z" fill="#402A45"/>
<path d="M1617.37 745.859C1617.37 745.859 1614.46 790.328 1620.29 874.892C1620.29 874.892 1543.74 850.835 1436.58 827.507" stroke="#402A45" stroke-width="2" stroke-miterlimit="10" stroke-linecap="round"/>
<path d="M1620.29 645.614L1563.63 711.087L1588.81 725.567L1483.21 852.492" stroke="#C7C5E6" stroke-width="2" stroke-miterlimit="10" stroke-linecap="round"/>
<path d="M1358.97 664.99L1395.91 707.935L1372.03 716.123L1390.91 760.262" stroke="#C7C5E6" stroke-width="2" stroke-miterlimit="10" stroke-linecap="round"/>
<path d="M1323.66 751.217L1374.31 749.362C1374.79 749.345 1375.25 749.21 1375.67 748.971C1376.09 748.731 1376.44 748.394 1376.69 747.988C1376.95 747.582 1377.1 747.12 1377.13 746.642C1377.17 746.164 1377.09 745.685 1376.9 745.245L1372.79 735.828C1372.56 735.286 1372.16 734.828 1371.66 734.513C1371.16 734.199 1370.58 734.042 1369.99 734.063L1319.33 735.918C1318.86 735.936 1318.39 736.07 1317.97 736.309C1317.56 736.549 1317.21 736.886 1316.95 737.292C1316.7 737.698 1316.54 738.16 1316.51 738.638C1316.47 739.116 1316.55 739.596 1316.74 740.035L1320.85 749.452C1321.09 749.994 1321.48 750.452 1321.98 750.767C1322.48 751.082 1323.07 751.238 1323.66 751.217Z" fill="#402A45"/>
<path d="M1419.12 953.962C1419.12 953.962 1418.81 966.39 1421.23 986.555" stroke="#C7C5E6" stroke-width="2" stroke-miterlimit="10" stroke-linecap="round"/>
<path d="M1659.49 906.664C1659.49 906.664 1637.55 883.451 1620.29 874.893" stroke="#C7C5E6" stroke-width="2" stroke-miterlimit="10" stroke-linecap="round"/>
<path d="M1481.62 529.19C1481.62 529.19 1477.15 522.594 1463.82 523.773" stroke="#402A45" stroke-width="2" stroke-miterlimit="10" stroke-linecap="round"/>
<path d="M1431.98 526.613C1429.23 526.575 1426.5 527.14 1423.98 528.269C1421.47 529.398 1419.23 531.064 1417.43 533.15" stroke="#402A45" stroke-width="2" stroke-miterlimit="10" stroke-linecap="round"/>
<path d="M1304.19 875.075C1304.19 875.075 1312.83 879.519 1327.51 880.292" stroke="#402A45" stroke-width="2" stroke-miterlimit="10" stroke-linecap="round"/>
<path d="M1333.69 908.877C1333.69 908.877 1320.25 909.182 1312.68 905.939" stroke="#402A45" stroke-width="2" stroke-miterlimit="10" stroke-linecap="round"/>
<path d="M1342.19 935.145C1342.19 935.145 1331.03 935.382 1327.34 932.946" stroke="#402A45" stroke-width="2" stroke-miterlimit="10" stroke-linecap="round"/>
<path d="M1353.1 854.917L1367.1 856.294" stroke="#402A45" stroke-width="2" stroke-miterlimit="10" stroke-linecap="round"/>
<path d="M1402.9 436.052V436.117C1402.9 446.733 1407.29 456.531 1414.69 464.394C1425.31 475.698 1442.17 483.001 1461.14 483.001C1464.82 483.003 1468.5 482.722 1472.14 482.162C1481.01 480.849 1489.51 477.726 1497.12 472.988C1495.26 472.192 1493.29 471.46 1491.2 470.793C1483.16 468.195 1474.92 466.274 1466.56 465.05C1456.88 448.593 1436.12 433.761 1416.03 433.761C1411.55 433.743 1407.11 434.519 1402.9 436.052Z" fill="#4D4D4D"/>
<path d="M1489.09 561.495C1497.37 553.218 1497.37 539.799 1489.09 531.522C1480.81 523.246 1467.39 523.246 1459.12 531.522C1450.84 539.799 1450.84 553.218 1459.12 561.495C1467.39 569.772 1480.81 569.772 1489.09 561.495Z" stroke="white" stroke-width="2" stroke-miterlimit="10"/>
<path d="M1435.66 561.495C1443.94 553.218 1443.94 539.799 1435.66 531.522C1427.39 523.246 1413.97 523.246 1405.69 531.522C1397.41 539.799 1397.41 553.218 1405.69 561.495C1413.97 569.772 1427.39 569.772 1435.66 561.495Z" stroke="white" stroke-width="2" stroke-miterlimit="10"/>
<path d="M1527.21 531.164C1527.21 531.164 1517.5 529.579 1495.3 546.508" stroke="white" stroke-width="2" stroke-miterlimit="10"/>
<path d="M1452.67 544.729L1441.7 544.944" stroke="white" stroke-width="2" stroke-miterlimit="10"/>
<path d="M960.058 1029.2C960.058 1029.78 960.088 1030.35 960.138 1030.91H1859.29C1859.34 1030.35 1859.37 1029.78 1859.37 1029.2C1859.37 1026.85 1858.91 1024.53 1858.01 1022.36C1857.11 1020.19 1855.8 1018.22 1854.14 1016.56C1852.48 1014.9 1850.51 1013.59 1848.34 1012.69C1846.17 1011.79 1843.85 1011.33 1841.5 1011.33H977.928C975.581 1011.33 973.258 1011.79 971.089 1012.69C968.921 1013.59 966.951 1014.91 965.292 1016.56C963.632 1018.22 962.316 1020.19 961.418 1022.36C960.52 1024.53 960.058 1026.85 960.058 1029.2Z" fill="#402A45"/>
<path d="M1762.76 412.955C1779.51 416.107 1784.03 420.623 1787.18 437.375C1787.25 437.724 1787.43 438.04 1787.7 438.267C1787.98 438.495 1788.32 438.619 1788.68 438.619C1789.03 438.619 1789.37 438.495 1789.65 438.267C1789.92 438.04 1790.11 437.724 1790.17 437.375C1793.32 420.623 1797.84 416.107 1814.59 412.955C1814.94 412.891 1815.25 412.706 1815.48 412.433C1815.71 412.16 1815.83 411.816 1815.83 411.461C1815.83 411.105 1815.71 410.761 1815.48 410.488C1815.25 410.215 1814.94 410.03 1814.59 409.966C1797.84 406.814 1793.32 402.299 1790.17 385.547C1790.11 385.197 1789.92 384.881 1789.65 384.654C1789.37 384.426 1789.03 384.302 1788.68 384.302C1788.32 384.302 1787.98 384.426 1787.7 384.654C1787.43 384.881 1787.25 385.197 1787.18 385.547C1784.03 402.299 1779.51 406.814 1762.76 409.966C1762.41 410.03 1762.1 410.215 1761.87 410.488C1761.64 410.761 1761.52 411.105 1761.52 411.461C1761.52 411.816 1761.64 412.16 1761.87 412.433C1762.1 412.706 1762.41 412.891 1762.76 412.955Z" fill="white"/>
<path d="M1725.88 376.948C1730.68 376.948 1734.57 373.056 1734.57 368.255C1734.57 363.454 1730.68 359.562 1725.88 359.562C1721.08 359.562 1717.18 363.454 1717.18 368.255C1717.18 373.056 1721.08 376.948 1725.88 376.948Z" fill="white"/>
<path d="M858.57 1027.69C863.371 1027.69 867.263 1023.8 867.263 1019C867.263 1014.2 863.371 1010.31 858.57 1010.31C853.769 1010.31 849.877 1014.2 849.877 1019C849.877 1023.8 853.769 1027.69 858.57 1027.69Z" fill="white"/>
<path d="M777.76 719.815C777.76 719.815 722.963 703.711 724.015 731.423C724.828 752.844 778.962 743.649 777.76 719.815Z" fill="#19C152"/>
<path d="M789.505 711C789.505 711 775.579 726.01 743.892 729.05" stroke="#3B7D6C" stroke-width="2" stroke-miterlimit="10" stroke-linecap="round"/>
<path d="M1628.27 893.389C1628.27 893.389 1547.99 846.116 1435.61 827.385C1435.61 827.385 1418.66 900.525 1419.55 962.962L1589.02 1006.67C1589.02 1006.67 1631.84 940.663 1628.27 893.389Z" fill="white"/>
<path d="M1552.35 1011.68C1622.61 1018.4 1656.99 965.703 1652.43 927.163C1651.23 917.053 1647.35 907.921 1640.74 901.09C1608.9 868.213 1564.58 900.818 1564.58 900.818C1548.38 892.465 1534.64 888.579 1523.28 888.08C1455.04 885.1 1471.75 1003.97 1552.35 1011.68Z" fill="#EB551F"/>
<path d="M1564.58 900.814C1564.58 900.814 1566.05 854.095 1595.25 834.487" stroke="#402A45" stroke-width="2" stroke-miterlimit="10" stroke-linecap="round"/>
<path d="M1529.39 835.082C1529.39 835.082 1566.67 838.646 1564.8 886.18C1564.8 886.18 1523.79 878.456 1529.39 835.082Z" fill="#19C152"/>
<path d="M1523.27 888.08C1525.65 918.303 1559.25 942.256 1600.34 942.256C1620.41 942.256 1638.7 936.531 1652.43 927.163C1651.23 917.053 1647.35 907.921 1640.74 901.09C1608.9 868.213 1564.58 900.818 1564.58 900.818C1548.38 892.465 1534.64 888.579 1523.27 888.08Z" fill="#FF5C22"/>
<path d="M1806.35 114.377C1845.97 148.3 1901.82 149.543 1935.7 122.129C1986.15 81.3059 1952.27 -4.90891 1912.65 -38.8325C1873.02 -72.756 1819.88 -75.3528 1785.8 -6.84562C1766.35 32.2539 1766.72 80.4533 1806.35 114.377Z" fill="#19C152" fill-opacity="0.3"/>
</g>
<defs>
<clipPath id="clip0_3579_3904">
<rect width="1920" height="1080" fill="white"/>
</clipPath>
</defs>
</svg>
